<?xml version="1.0" encoding="UTF-8"?>
<!-- Generator: visioncortex VTracer 0.6.12 -->
<svg version="1.1" xmlns="http://www.w3.org/2000/svg" width="386" height="386">
<path d="M0 0 C5.61 0.33 11.22 0.66 17 1 C22.28 2.32 27.56 3.64 33 5 C35.97 6.98 38.94 8.96 42 11 C42.99 12.65 43.98 14.3 45 16 C49.95 30.19 54.9 44.38 60 59 C65.61 75.83 71.22 92.66 77 110 C77.33 111.65 77.66 113.3 78 115 C77.01 117.31 76.02 119.62 75 122 C72.03 124.64 69.06 127.28 66 130 C60.72 132.31 55.44 134.62 50 137 C46.535 137.825 46.535 137.825 29 142 C25.535 142.33 25.535 142.33 8 144 C8.33 193.5 8.66 243 9 294 C11.64 294.495 11.64 294.495 25 297 C28.96 298.98 32.92 300.96 37 303 C38.65 304.98 40.3 306.96 42 309 C42 310.98 42 312.96 42 315 C40.02 317.31 38.04 319.62 36 322 C32.04 323.65 28.08 325.3 24 327 C21.03 327.66 18.06 328.32 15 329 C9.39 329.33 3.78 329.66 -2 330 C-7.28 329.34 -12.56 328.68 -18 328 C-22.29 326.35 -26.58 324.7 -31 323 C-32.65 321.68 -34.3 320.36 -36 319 C-36.33 318.34 -36.33 318.34 -38 315 C-38 313.02 -38 311.04 -38 309 C-36.02 306.69 -34.04 304.38 -32 302 C-28.37 300.35 -24.74 298.7 -21 297 C-18.36 296.34 -15.72 295.68 -13 295 C-10.36 295 -7.72 295 -5 295 C-5 245.17 -5 195.34 -5 144 C-11.6 143.34 -18.2 142.68 -25 142 C-30.61 140.68 -36.22 139.36 -42 138 C-44.145 137.175 -44.145 137.175 -55 133 C-58.3 131.02 -61.6 129.04 -65 127 C-66.98 124.69 -68.96 122.38 -71 120 C-71.33 117.36 -71.66 114.72 -72 112 C-67.38 98.14 -62.76 84.28 -58 70 C-56.35 64.72 -54.7 59.44 -53 54 C-48.71 41.46 -44.42 28.92 -40 16 C-38.68 14.02 -37.36 12.04 -36 10 C-32.04 8.02 -28.08 6.04 -24 4 C-19.71 3.01 -15.42 2.02 -11 1 C-7.37 0.67 -3.74 0.34 0 0 Z M-8 4 C-10.475 4.495 -10.475 4.495 -23 7 C-24.65 7.825 -24.65 7.825 -33 12 C-33.66 12.66 -34.32 13.32 -35 14 C-34.67 15.65 -34.34 17.3 -34 19 C-33.175 19.66 -33.175 19.66 -29 23 C-25.04 24.32 -21.08 25.64 -17 27 C-15.02 27.33 -15.02 27.33 -5 29 C-0.05 29 4.9 29 10 29 C12.805 28.505 12.805 28.505 27 26 C30.96 24.02 34.92 22.04 39 20 C39.66 18.35 40.32 16.7 41 15 C39.35 13.35 37.7 11.7 36 10 C32.37 8.68 28.74 7.36 25 6 C20.71 5.34 16.42 4.68 12 4 C5.4 4 -1.2 4 -8 4 Z M-38 20 C-42.95 34.19 -47.9 48.38 -53 63 C-56.63 74.55 -60.26 86.1 -64 98 C-65.65 103.28 -67.3 108.56 -69 114 C-68.34 115.98 -67.68 117.96 -67 120 C-65.35 121.65 -63.7 123.3 -62 125 C-58.7 126.98 -55.4 128.96 -52 131 C-47.05 132.65 -42.1 134.3 -37 136 C-32.38 136.99 -27.76 137.98 -23 139 C-20.03 139.33 -17.06 139.66 -14 140 C-2.78 140 8.44 140 20 140 C26.27 139.01 32.54 138.02 39 137 C44.94 135.02 50.88 133.04 57 131 C60.63 129.02 64.26 127.04 68 125 C69.98 122.69 71.96 120.38 74 118 C73.67 115.03 73.34 112.06 73 109 C68.38 94.81 63.76 80.62 59 66 C54.38 52.47 49.76 38.94 45 25 C44.67 24.34 44.67 24.34 43 21 C38.38 23.31 33.76 25.62 29 28 C24.71 28.99 20.42 29.98 16 31 C4.78 31 -6.44 31 -18 31 C-24.93 61.03 -31.86 91.06 -39 122 C-39.33 122.99 -39.66 123.98 -40 125 C-40.33 125.165 -40.33 125.165 -42 126 C-38.37 111.15 -34.74 96.3 -31 81 C-27.37 64.17 -23.74 47.34 -20 30 C-23.63 28.35 -27.26 26.7 -31 25 C-31.825 24.67 -31.825 24.67 -36 23 C-36.165 22.505 -36.165 22.505 -37 20 C-37.33 20 -37.66 20 -38 20 Z M-1 144 C-1 197.79 -1 251.58 -1 307 C0.65 307.33 2.3 307.66 4 308 C4.33 307.67 4.66 307.34 5 307 C5 253.21 5 199.42 5 144 C3.02 144 1.04 144 -1 144 Z M-12 298 C-16.62 299.32 -21.24 300.64 -26 302 C-28.64 303.98 -31.28 305.96 -34 308 C-34.33 309.98 -34.66 311.96 -35 314 C-33.68 315.65 -32.36 317.3 -31 319 C-28.36 320.32 -25.72 321.64 -23 323 C-18.71 323.99 -14.42 324.98 -10 326 C-2.41 326 5.18 326 13 326 C18.28 324.68 23.56 323.36 29 322 C31.97 320.02 34.94 318.04 38 316 C38.33 314.35 38.66 312.7 39 311 C37.02 308.69 35.04 306.38 33 304 C31.515 303.34 31.515 303.34 24 300 C21.36 299.34 18.72 298.68 16 298 C13.69 298 11.38 298 9 298 C8.67 301.96 8.34 305.92 8 310 C6.515 310.165 6.515 310.165 -1 311 C-1.99 310.34 -2.98 309.68 -4 309 C-4.33 305.37 -4.66 301.74 -5 298 C-7.31 298 -9.62 298 -12 298 Z " fill="#000000" transform="translate(192,30)"/>
<path d="M0 0 C4.62 0 9.24 0 14 0 C15.485 0.33 15.485 0.33 23 2 C24.32 2.66 25.64 3.32 27 4 C27.165 4.825 27.165 4.825 28 9 C26.35 10.32 24.7 11.64 23 13 C20.36 13.66 17.72 14.32 15 15 C9.39 15 3.78 15 -2 15 C-4.97 14.01 -7.94 13.02 -11 12 C-11.99 10.35 -12.98 8.7 -14 7 C-12.35 5.35 -10.7 3.7 -9 2 C-6.03 1.34 -3.06 0.68 0 0 Z M3 3 C0.03 3.66 -2.94 4.32 -6 5 C-6.99 5.99 -7.98 6.98 -9 8 C-8.175 8.495 -8.175 8.495 -4 11 C-1.69 11.165 -1.69 11.165 10 12 C13.63 11.34 17.26 10.68 21 10 C21 8.68 21 7.36 21 6 C19.68 5.34 18.36 4.68 17 4 C14.69 3.835 14.69 3.835 3 3 Z " fill="#000000" transform="translate(188,39)"/>
</svg>
