<?xml version="1.0" encoding="UTF-8"?>
<!-- Generator: visioncortex VTracer 0.6.12 -->
<svg version="1.1" xmlns="http://www.w3.org/2000/svg" width="500" height="500">
<path d="M0 0 C1.32 0 2.64 0 4 0 C4.196 0.526 4.196 0.526 5.188 3.188 C8.424 10.581 14.948 14.587 22 18 C45.221 26.427 73.089 27.076 96 17 C103.213 13.199 109.202 9.693 111.75 1.625 C111.832 1.089 111.915 0.552 112 0 C113.65 0 115.3 0 117 0 C114.758 9.341 110.039 14.803 102 20 C100.699 20.432 99.387 20.833 98.062 21.188 C97.557 21.487 97.557 21.487 95 23 C94.237 25.986 93.917 28.928 93.559 31.988 C92.698 36.628 90.702 39.167 87 42 C83.151 44.325 79.23 46.546 74.793 47.449 C73 48 73 48 71.438 50.938 C70.963 51.948 70.489 52.959 70 54 C69.01 54.66 68.02 55.32 67 56 C66.601 58.063 66.601 58.063 66.568 60.633 C66.558 61.114 66.558 61.114 66.508 63.545 C66.501 64.585 66.495 65.624 66.488 66.695 C66.47 67.758 66.452 68.82 66.434 69.915 C66.38 73.318 66.346 76.722 66.312 80.125 C66.279 82.428 66.245 84.732 66.209 87.035 C66.124 92.69 66.056 98.345 66 104 C66.942 104.133 67.883 104.267 68.854 104.404 C72 105 72 105 74.34 106.535 C76.707 110.05 76.622 113.344 76.562 117.438 C76.586 118.188 76.61 118.939 76.635 119.713 C76.629 121.927 76.536 123.85 76 126 C75.176 126.793 74.353 127.586 73.504 128.402 C70.255 131.773 70.35 133.857 70.316 138.402 C70.336 139.301 70.355 140.199 70.375 141.125 C70.356 142.031 70.336 142.937 70.316 143.871 C70.335 146.36 70.421 148.578 71 151 C73.414 152.93 73.414 152.93 76 154 C78.495 157.743 78.331 159.909 78.375 164.375 C78.403 165.682 78.432 166.989 78.461 168.336 C77.942 172.461 76.864 174.068 74 177 C74.66 177.99 75.32 178.98 76 180 C75.434 186.566 75.434 186.566 74 188 C73.911 190.884 73.885 193.745 73.902 196.629 C73.904 197.493 73.905 198.357 73.907 199.248 C73.912 202.019 73.925 204.791 73.938 207.562 C73.943 209.437 73.947 211.311 73.951 213.186 C73.962 217.79 73.979 222.395 74 227 C74.261 226.69 74.261 226.69 75.581 225.121 C76.28 224.309 76.979 223.497 77.699 222.66 C78.386 221.855 79.073 221.049 79.78 220.219 C84.747 215.255 90.762 213.809 97.625 213.562 C106.015 213.952 111.228 216.344 116.988 222.5 C122.162 228.93 126.169 236.12 129.688 243.562 C131.557 247.377 133.067 250.034 137 252 C140.912 252 143.324 251.369 146.75 249.5 C151.595 244.117 152.364 236.995 153 230 C152.618 229.876 152.618 229.876 150.688 229.25 C147.555 227.793 146.574 227.068 145 224 C144.468 221.009 144.188 218.031 144 215 C143.668 214.879 143.668 214.879 141.988 214.266 C130.441 209.883 130.441 209.883 128 205 C127.422 200.787 127.629 197.851 130.062 194.375 C134.868 189.195 142.41 187.819 149 186 C149.218 181.981 149.415 177.961 149.592 173.939 C149.655 172.574 149.724 171.208 149.799 169.843 C149.906 167.873 149.99 165.901 150.074 163.93 C150.103 163.338 150.103 163.338 150.249 160.343 C149.967 156.563 148.866 154.266 147 151 C143.422 140.371 146.405 129.705 151 120 C151.327 119.31 151.653 118.619 151.99 117.908 C158.278 104.722 158.278 104.722 161 102 C163 102.172 163 102.172 165 103 C166.528 105.48 167.781 107.812 169 110.438 C169.349 111.165 169.698 111.892 170.057 112.641 C181.772 137.307 181.772 137.307 177 151.25 C176.629 152.245 176.257 153.24 175.875 154.266 C175 157 175 157 175 161 C175 169.667 175 178.333 175 187 C175.332 187.055 175.332 187.055 177.012 187.334 C181.887 188.213 185.911 188.984 190 191.938 C190.722 192.442 191.444 192.946 192.188 193.465 C195.069 195.906 195.952 197.632 196.438 201.375 C196 205 196 205 194.125 207.625 C190.039 210.73 184.327 215 179 215 C179.046 215.592 179.093 216.183 179.141 216.793 C179.33 220.938 179.385 223.34 177.25 227 C174.966 229.03 173.892 229.417 171 230 C170.986 230.871 170.972 231.743 170.957 232.641 C170.402 246.504 165.923 256.307 156.75 266.5 C155 268 155 268 153 268 C176.474 298.779 176.474 298.779 195 302 C200.147 301.951 203.729 300.892 207.938 297.938 C213.263 290.353 213.594 282.047 214 273 C213.216 272.711 212.433 272.423 211.625 272.125 C209 271 209 271 207 269 C206.805 266.398 206.805 266.398 206.875 263.375 C206.893 262.372 206.911 261.369 206.93 260.336 C206.941 259.951 206.941 259.951 207 258 C206.443 257.925 205.886 257.85 205.312 257.773 C199.078 256.699 194.391 254.658 190 250 C188.11 246.079 187.718 244.152 188.75 239.938 C194.144 232.895 201.614 230.606 210 229 C210.168 224.75 210.334 220.5 210.5 216.25 C210.548 215.043 210.595 213.837 210.645 212.594 C210.667 212.014 210.667 212.014 210.781 209.078 C210.823 208.01 210.865 206.942 210.908 205.841 C211.037 201.844 211.091 198.756 209.562 195.062 C204.861 183.02 207.493 172.46 212.523 160.93 C213.464 158.907 214.415 156.889 215.375 154.875 C215.844 153.836 216.313 152.797 216.797 151.727 C217.264 150.742 217.73 149.757 218.211 148.742 C218.626 147.854 219.042 146.966 219.47 146.05 C221 144 221 144 223.674 143.204 C224.442 143.136 225.209 143.069 226 143 C243.123 174.076 243.123 174.076 241 188 C240.114 190.968 239.095 193.779 237.875 196.625 C236.403 200.62 237.054 204.873 237.219 209.078 C237.264 210.238 237.309 211.398 237.355 212.594 C237.403 213.8 237.451 215.007 237.5 216.25 C237.548 217.472 237.595 218.694 237.645 219.953 C237.762 222.969 237.881 225.984 238 229 C238.409 229.126 238.409 229.126 240.478 229.765 C241.554 230.108 242.63 230.451 243.738 230.805 C244.803 231.14 245.869 231.475 246.966 231.82 C251.602 233.623 255.735 236.47 258 241 C258.488 244 258.49 246.102 257.012 248.809 C253.006 254.056 248.175 256.035 242 258 C241.974 258.592 241.948 259.183 241.922 259.793 C241.548 265 241.033 268.312 237 272 C234.863 272.625 234.863 272.625 233 273 C233.023 273.583 233.046 274.165 233.07 274.766 C233.358 287.821 231.151 301.154 222.625 311.5 C216.706 317.675 209.725 320.629 201.168 321.301 C181.636 321.358 168.044 313.951 154.415 300.409 C153.948 299.944 153.481 299.479 153 299 C152.225 298.251 151.451 297.502 150.652 296.73 C146.226 292.406 141.722 287.954 138 283 C138 282.34 138 281.68 138 281 C137.34 281 136.68 281 136 281 C134.615 279.376 133.292 277.699 132 276 C126.569 269.212 120.438 262.786 112 260 C107.262 259.549 105.013 259.493 100.75 261.625 C96.357 265.419 93.686 269.166 93 275 C93.382 275.248 93.382 275.248 95.312 276.5 C99.427 280.327 100.757 284.482 101.285 289.959 C101.403 293.311 101.409 296.646 101.375 300 C101.387 301.137 101.398 302.274 101.41 303.445 C101.384 310.853 101.004 317.041 96.379 323.137 C91.006 327.724 83.329 333 76 333 C75.918 334.072 75.835 335.145 75.75 336.25 C74.944 340.279 74.218 341.562 71 344 C70.34 344 69.68 344 69 344 C69.179 344.568 69.358 345.137 69.543 345.723 C70.678 349.845 71.462 352.899 69.75 356.938 C68 360 68 360 66 362 C66.804 362.928 67.609 363.856 68.438 364.812 C71.684 368.558 72.355 371.886 72.281 376.871 C71.672 381.484 69.311 384.768 65.938 387.938 C61.3 389.615 56.868 389.643 52 389 C47.57 386.864 44.804 384.61 43 380 C42.3 374.84 42.39 371.139 44.875 366.5 C47 364 47 364 49 362 C48.34 361.381 47.68 360.762 47 360.125 C44.224 355.787 44.48 352.027 45 347 C45.33 346.01 45.66 345.02 46 344 C45.701 343.887 45.701 343.887 44.188 343.312 C41.368 341.621 40.404 339.948 39 337 C39 335.68 39 334.36 39 333 C38.383 332.853 37.765 332.706 37.129 332.555 C28.924 330.382 21.457 326.744 16.024 319.983 C13.779 315.635 14.17 310.601 14.125 305.812 C14.108 305.276 14.108 305.276 14.023 302.561 C13.555 283.19 13.555 283.19 17.438 278.312 C20 276 20 276 22 276 C20.453 269.012 19.067 265.002 13 261 C9.416 259.208 5.906 259.437 2 260 C-5.443 263.331 -11.107 268.561 -16.688 274.375 C-17.395 275.092 -18.102 275.808 -18.83 276.547 C-23.401 281.215 -27.73 286.058 -32 291 C-43.389 303.954 -57.691 319.281 -76 321 C-87.651 321.709 -97.103 321.603 -106.312 313.938 C-115.324 305.152 -118.553 293.854 -119.18 281.438 C-119.186 278.617 -119.139 275.817 -119 273 C-119.789 272.702 -120.578 272.404 -121.391 272.098 C-124.539 270.773 -125.442 270.038 -127 267 C-127.536 263.988 -127.775 261.06 -128 258 C-131.96 256.35 -135.92 254.7 -140 253 C-140 252.34 -140 251.68 -140 251 C-140.99 250.67 -141.98 250.34 -143 250 C-144.608 246.785 -144.464 243.487 -144 240 C-141.339 235.122 -137.092 232.831 -132 231 C-129.013 230.269 -126.012 229.62 -123 229 C-122.9 224.911 -122.828 220.822 -122.78 216.732 C-122.76 215.345 -122.733 213.958 -122.698 212.572 C-122.507 204.801 -122.735 198.246 -126.079 191.097 C-129.208 183.974 -127.41 175.287 -125.062 168.188 C-122.817 162.543 -120.197 157.098 -117.438 151.688 C-117.062 150.939 -116.686 150.191 -116.299 149.421 C-113.504 144.167 -113.504 144.167 -110.864 143.292 C-110.556 143.244 -110.556 143.244 -109 143 C-105.4 148.288 -102.548 153.794 -99.812 159.562 C-99.468 160.282 -99.123 161.002 -98.768 161.744 C-93.96 172.029 -91.697 183.051 -95.438 194.125 C-95.958 195.417 -96.479 196.709 -97 198 C-98.276 201.367 -97.801 204.215 -97.293 207.73 C-96.767 211.803 -96.63 215.9 -96.438 220 C-96.394 220.87 -96.351 221.74 -96.307 222.637 C-96.202 224.758 -96.1 226.879 -96 229 C-95.566 229.121 -95.566 229.121 -93.367 229.734 C-79.336 233.815 -79.336 233.815 -75.625 238.875 C-74.595 242.376 -74.47 245.533 -75.719 248.988 C-78.81 253.842 -85.211 256.568 -90.625 257.875 C-91.017 257.896 -91.017 257.896 -93 258 C-92.954 258.675 -92.907 259.351 -92.859 260.047 C-92.562 267.401 -92.562 267.401 -94.875 270.562 C-97 272 -97 272 -99 273 C-99.357 282.304 -99.581 290.413 -94.438 298.438 C-89.454 301.632 -84.608 302.426 -78.773 301.473 C-66.45 298.111 -58.494 290.219 -50 281 C-49.67 280.34 -49.34 279.68 -49 279 C-48.34 279 -47.68 279 -47 279 C-46.876 278.711 -46.876 278.711 -46.25 277.25 C-45 275 -45 275 -42.812 273 C-41 271 -41 271 -40.938 269.062 C-42 267 -42 267 -44.188 264.812 C-53.216 255.784 -56.129 246.536 -57.18 234.074 C-58 231 -58 231 -60.445 229.27 C-60.867 229.06 -60.867 229.06 -63 228 C-65.209 224.686 -65.225 223.655 -65.125 219.812 C-65.107 218.911 -65.089 218.01 -65.07 217.082 C-65.047 216.395 -65.024 215.708 -65 215 C-65.598 214.876 -65.598 214.876 -68.625 214.25 C-73.942 212.923 -78.463 210.232 -82 206 C-82.818 202.887 -82.714 200.131 -82 197 C-78.858 192.072 -73.491 190.294 -68.23 188.328 C-67.063 187.889 -65.895 187.45 -64.692 186.997 C-64.248 186.833 -64.248 186.833 -62 186 C-61.713 181.543 -61.477 177.085 -61.25 172.625 C-61.209 171.999 -61.209 171.999 -61.004 168.832 C-60.67 161.746 -61.047 156.607 -64.061 150.168 C-67.191 142.941 -65.648 133.798 -63.062 126.625 C-62.089 124.395 -61.062 122.189 -60 120 C-59.652 119.273 -59.303 118.547 -58.944 117.798 C-57.8 115.435 -56.626 113.09 -55.438 110.75 C-55.062 109.998 -54.686 109.246 -54.299 108.471 C-53.931 107.774 -53.563 107.077 -53.184 106.359 C-52.859 105.735 -52.535 105.111 -52.201 104.468 C-50.647 102.568 -49.378 102.37 -47 102 C-43.621 107.808 -40.623 113.743 -37.75 119.812 C-37.397 120.554 -37.044 121.295 -36.68 122.058 C-36.347 122.767 -36.015 123.476 -35.672 124.207 C-35.374 124.841 -35.076 125.475 -34.769 126.128 C-31.707 133.586 -31.553 144.312 -33.93 152.012 C-35.063 154.375 -35.063 154.375 -36.223 156.336 C-37 158 -37 158 -36 161 C-35.917 162.992 -35.893 164.987 -35.902 166.98 C-35.904 167.562 -35.904 167.562 -35.912 170.506 C-35.916 171.113 -35.916 171.113 -35.938 174.188 C-35.942 175.414 -35.947 176.641 -35.951 177.904 C-35.963 180.936 -35.979 183.968 -36 187 C-34.93 187.138 -33.86 187.276 -32.758 187.418 C-25.548 188.535 -19.186 190.8 -14.625 196.812 C-13.623 200.32 -13.974 202.498 -15 206 C-18.993 210.962 -24.037 213.181 -30 215 C-30.66 215 -31.32 215 -32 215 C-31.942 215.664 -31.884 216.328 -31.824 217.012 C-31.453 224.28 -31.453 224.28 -34.375 228.125 C-37 230 -37 230 -39 230 C-37.396 244.228 -37.396 244.228 -33 249 C-30.474 250.943 -28.672 251.862 -25.562 252.5 C-21.844 251.774 -19.539 249.688 -17 247 C-15.165 244.218 -13.686 241.286 -12.188 238.312 C-6.842 228.221 -0.407 217.802 11 214 C20.345 213.28 27.545 213.949 34.875 220 C37.05 221.943 38.347 223.521 40 226 C40.025 220.464 40.043 214.928 40.055 209.392 C40.06 207.508 40.067 205.623 40.075 203.738 C40.088 201.035 40.093 198.332 40.098 195.629 C40.1 195.205 40.1 195.205 40.113 193.059 C40.113 191.039 40.062 189.019 40 187 C39.67 186.67 39.34 186.34 39 186 C38.76 181.767 38.675 178.633 41 175 C40.01 174.67 39.02 174.34 38 174 C36.506 171.013 36.694 167.963 36.625 164.688 C36.576 163.371 36.527 162.055 36.477 160.699 C37.118 156.166 38.483 154.815 42 152 C42.66 151.67 43.32 151.34 44 151 C44.145 147.75 44.234 144.502 44.312 141.25 C44.354 140.33 44.396 139.409 44.439 138.461 C44.486 135.884 44.479 133.534 44 131 C42.366 129.627 40.699 128.292 39 127 C38.202 124.019 38.256 121.132 38.312 118.062 C38.299 117.663 38.299 117.663 38.229 115.643 C38.252 109.962 38.252 109.962 40.279 107.355 C42.707 105.262 44.963 104.012 48 103 C48.127 96.398 48.214 89.797 48.275 83.194 C48.3 80.949 48.334 78.703 48.377 76.458 C48.438 73.228 48.466 70 48.488 66.77 C48.514 65.767 48.54 64.765 48.566 63.732 C48.569 56.689 48.569 56.689 45.532 53.014 C44.696 52.35 43.861 51.685 43 51 C42.67 50.01 42.34 49.02 42 48 C39.488 46.789 39.488 46.789 36.312 45.625 C30.75 43.423 26.16 41.408 22.852 36.188 C21.81 33.511 21.937 31.424 22 28.562 C21.785 25.613 21.785 25.613 21 23 C18.685 21.172 16.449 20.254 13.711 19.172 C8.001 16.703 2.389 11.824 0 6 C-0.188 2.687 -0.188 2.687 0 0 Z M26 25 C25.515 32.147 25.515 32.147 27.562 35.75 C36.332 43.845 47.774 45.311 59.297 45.152 C68.64 44.626 80.271 43.315 87.125 36.25 C89.543 32.058 89.41 29.761 89 25 C86.958 25.312 84.917 25.625 82.875 25.938 C81.738 26.112 80.601 26.286 79.43 26.465 C77.373 26.786 75.321 27.138 73.281 27.551 C60 29.369 46.083 28.626 33.047 25.656 C30 25 30 25 26 25 Z M48 48 C50 52 50 52 51 53 C53.122 53.126 55.249 53.176 57.375 53.188 C57.956 53.195 57.956 53.195 60.898 53.23 C64 53 64 53 67 51 C66.67 50.01 66.34 49.02 66 48 C60.06 48 54.12 48 48 48 Z M53 58 C52.901 59.591 52.872 61.186 52.871 62.779 C52.867 63.797 52.864 64.815 52.861 65.863 C52.863 66.971 52.865 68.078 52.867 69.219 C52.866 70.347 52.865 71.475 52.864 72.638 C52.864 75.028 52.865 77.419 52.87 79.81 C52.875 83.484 52.87 87.158 52.863 90.832 C52.864 93.148 52.865 95.465 52.867 97.781 C52.865 98.889 52.863 99.996 52.861 101.137 C52.864 102.154 52.867 103.172 52.871 104.221 C52.871 105.121 52.872 106.022 52.873 106.95 C53 109 53 109 54 110 C57.5 110.125 57.5 110.125 61 110 C62 109 62 109 62.12 106.906 C62.118 105.984 62.116 105.063 62.114 104.113 C62.113 103.072 62.113 102.031 62.113 100.958 C62.108 99.826 62.103 98.694 62.098 97.527 C62.096 96.375 62.095 95.222 62.093 94.034 C62.088 90.335 62.075 86.636 62.062 82.938 C62.057 80.437 62.053 77.936 62.049 75.436 C62.038 69.29 62.021 63.145 62 57 C54.125 56.875 54.125 56.875 53 58 Z M162 107 C160.362 110.327 158.742 113.663 157.125 117 C156.665 117.935 156.205 118.869 155.73 119.832 C150.23 131.231 148.444 140.555 151.953 152.836 C153.201 155.415 154.614 156.472 157 158 C156.969 157.35 156.969 157.35 156.812 154.062 C156.791 149.606 157.744 146.079 159.344 141.945 C160 140 160 140 160 137 C161.812 137.062 161.812 137.062 164 138 C167.565 143.942 167.676 150.196 168 157 C168.66 157 169.32 157 170 157 C174.171 151.613 175.317 144.927 174.938 138.25 C173.48 127.283 167.709 116.887 163 107 C162.67 107 162.34 107 162 107 Z M-49 108 C-51.715 113.31 -54.378 118.643 -57 124 C-57.469 124.946 -57.938 125.892 -58.422 126.867 C-62.343 135.534 -62.041 144.228 -59.047 153.16 C-57.745 155.447 -56.174 156.558 -54 158 C-54.035 157.406 -54.07 156.811 -54.105 156.199 C-54.33 149.337 -53.082 143.519 -51 137 C-49.105 137.289 -49.105 137.289 -47 138 C-43.917 144.166 -43.364 150.178 -43 157 C-42.34 157 -41.68 157 -41 157 C-40.35 155.585 -39.705 154.168 -39.062 152.75 C-38.703 151.961 -38.343 151.172 -37.973 150.359 C-33.903 140.488 -37.174 131.411 -41 122 C-43.143 117.236 -45.537 112.606 -48 108 C-48.33 108 -48.66 108 -49 108 Z M43 111 C43.97 113.645 44.585 114.78 47.113 116.117 C50.678 117.207 53.775 117.265 57.5 117.25 C58.145 117.253 58.145 117.253 61.406 117.266 C64.782 117.016 67.027 116.572 70 115 C71.312 112.875 71.312 112.875 72 111 C71.175 110.505 71.175 110.505 67 108 C66.758 108.633 66.515 109.266 66.266 109.918 C65 112 65 112 63.047 112.863 C58.391 113.774 54.694 114.204 50 113 C49.67 111.35 49.34 109.7 49 108 C46.238 108 45.107 109.314 43 111 Z M43 119 C42.887 121.391 42.887 121.391 43 124 C47.264 128.117 51.605 128.182 57.312 128.25 C57.96 128.263 57.96 128.263 61.238 128.328 C65.358 127.969 68.985 127.015 72 124 C72.041 122.334 72.043 120.666 72 119 C71.287 119.144 70.574 119.289 69.84 119.438 C60.285 121.289 52.507 120.925 43 119 Z M49 132 C49 140.58 49 149.16 49 158 C52.614 159.807 53.738 160.276 57.5 160.25 C58.253 160.255 59.006 160.26 59.781 160.266 C62 160 62 160 66 158 C66 149.42 66 140.84 66 132 C60.39 132 54.78 132 49 132 Z M-49 144 C-51.204 149.186 -51.099 152.597 -50 158 C-49.34 158.33 -48.68 158.66 -48 159 C-46.768 156.536 -46.833 154.811 -46.812 152.062 C-46.798 151.187 -46.784 150.312 -46.77 149.41 C-47 147 -47 147 -49 144 Z M162 144 C159.796 149.186 159.901 152.597 161 158 C161.66 158.33 162.32 158.66 163 159 C164.232 156.536 164.167 154.811 164.188 152.062 C164.202 151.187 164.216 150.312 164.23 149.41 C164 147 164 147 162 144 Z M-111 148 C-112.634 151.35 -114.256 154.706 -115.875 158.062 C-116.335 159.005 -116.795 159.948 -117.27 160.92 C-122.192 171.157 -125.16 180.627 -121.75 191.938 C-120.458 195.387 -118.934 197.673 -116 200 C-116.062 198.907 -116.124 197.814 -116.188 196.688 C-116.211 190.191 -114.035 184.106 -112 178 C-111.01 178.33 -110.02 178.66 -109 179 C-105.683 185.835 -104.499 192.484 -105 200 C-99.966 195.628 -98.351 192.079 -97.781 185.457 C-97.424 174.918 -101.104 166.203 -105.688 156.875 C-106.103 156.014 -106.519 155.153 -106.947 154.266 C-107.958 152.174 -108.976 150.085 -110 148 C-110.33 148 -110.66 148 -111 148 Z M223 149 C221.359 152.305 219.74 155.62 218.125 158.938 C217.665 159.864 217.205 160.79 216.73 161.744 C211.623 172.292 209.848 180.853 212.875 192.312 C214.03 195.071 215.324 197.523 217 200 C217.33 200 217.66 200 218 200 C218.026 199.238 218.052 198.476 218.078 197.691 C218.465 190.652 219.631 185.206 223 179 C226 180 226 180 226.914 181.715 C228.754 187.467 229.635 192.975 230 199 C234.697 195.045 236.209 191.898 237 186 C237.828 175.734 233.763 166.933 229.312 157.875 C228.897 157.014 228.481 156.153 228.053 155.266 C227.042 153.174 226.024 151.085 225 149 C224.34 149 223.68 149 223 149 Z M43 157 C40.416 159.584 40.673 160.784 40.625 164.375 C40.713 167.724 40.782 169.593 42.375 172.562 C49.723 176.586 57.931 176.527 66 175 C68.591 174.214 70.6 173.304 73 172 C74.232 169.536 74.167 167.811 74.188 165.062 C74.202 164.187 74.216 163.312 74.23 162.41 C74 160 74 160 72 157 C71.34 157 70.68 157 70 157 C69.752 157.619 69.505 158.238 69.25 158.875 C67.714 161.487 66.815 161.931 64 163 C60.941 163.266 60.941 163.266 57.562 163.25 C56.45 163.255 55.338 163.26 54.191 163.266 C51.021 163.002 48.812 162.467 46 161 C45.188 158.875 45.188 158.875 45 157 C44.34 157 43.68 157 43 157 Z M-57 162 C-56.67 162.495 -56.67 162.495 -55 165 C-52.285 165.398 -52.285 165.398 -49.062 165.375 C-48.002 165.383 -46.941 165.39 -45.848 165.398 C-43 165 -43 165 -40 162 C-45.61 162 -51.22 162 -57 162 Z M154 162 C154.33 162.495 154.33 162.495 156 165 C158.75 165.328 158.75 165.328 162 165.25 C162.536 165.242 162.536 165.242 165.25 165.203 C168 165 168 165 170 164 C170 163.34 170 162.68 170 162 C164.72 162 159.44 162 154 162 Z M-57 168 C-57.069 172.664 -57.129 177.326 -57.165 181.989 C-57.18 183.576 -57.2 185.163 -57.226 186.75 C-57.263 189.029 -57.28 191.307 -57.293 193.586 C-57.301 193.942 -57.301 193.942 -57.34 195.742 C-57.341 197.744 -57.341 197.744 -57 201 C-53.648 203.235 -52.422 203.271 -48.5 203.25 C-47.541 203.255 -46.582 203.26 -45.594 203.266 C-43 203 -43 203 -40 201 C-39.733 198.446 -39.652 196.137 -39.707 193.586 C-39.709 193.221 -39.709 193.221 -39.72 191.375 C-39.737 189.041 -39.774 186.708 -39.812 184.375 C-39.828 182.794 -39.841 181.214 -39.854 179.633 C-39.884 175.755 -39.943 171.878 -40 168 C-45.61 168 -51.22 168 -57 168 Z M154 168 C154 179.22 154 190.44 154 202 C156.948 202.983 158.927 203.134 162 203.125 C162.433 203.126 162.433 203.126 164.625 203.133 C167 203 167 203 170 202 C170.33 190.78 170.66 179.56 171 168 C165.39 168 159.78 168 154 168 Z M44.125 179.188 C43 181 43 181 42.875 183 C44.303 185.539 45.946 186.448 48.641 187.461 C56.179 189.183 64.324 189.097 71 185 C71.33 184.01 71.66 183.02 72 182 C70.25 179.938 70.25 179.938 68 178 C66.656 178.287 65.324 178.632 64 179 C61.856 179.093 59.709 179.13 57.562 179.125 C56.45 179.128 55.338 179.13 54.191 179.133 C51 179 51 179 48.207 178.418 C46 178 46 178 44.125 179.188 Z M-111 186 C-112.301 188.602 -112.168 190.597 -112.188 193.5 C-112.202 194.48 -112.216 195.459 -112.23 196.469 C-112 199 -112 199 -110 201 C-108.156 197.894 -107.796 195.947 -108.25 192.375 C-108.338 191.599 -108.425 190.823 -108.516 190.023 C-109 188 -109 188 -111 186 Z M223 187 C222.058 189.827 221.865 191.632 221.875 194.562 C221.872 195.348 221.87 196.133 221.867 196.941 C222 199 222 199 223 201 C223.66 201 224.32 201 225 201 C225.892 198.324 226.135 196.746 226.125 194 C226.128 193.319 226.13 192.639 226.133 191.938 C226 190 226 190 225 187 C224.34 187 223.68 187 223 187 Z M46 191 C46 218.06 46 245.12 46 273 C53.967 276.415 53.967 276.415 57.5 276.375 C58.191 276.383 58.882 276.39 59.594 276.398 C62 276 62 276 69 273 C69 245.94 69 218.88 69 191 C64.05 191.33 59.1 191.66 54 192 C51.36 191.67 48.72 191.34 46 191 Z M133.25 197.438 C132 200 132 200 131.812 202.562 C134.386 207.846 140.652 209.385 145.875 211.25 C159.737 215.286 175.693 214.016 188.508 207.184 C190.947 205.249 191.461 202.966 192 200 C187.836 195.004 183.156 192.95 177 191 C176.34 191 175.68 191 175 191 C174.986 191.831 174.972 192.663 174.957 193.52 C174.909 194.606 174.862 195.693 174.812 196.812 C174.778 197.891 174.743 198.97 174.707 200.082 C174 203 174 203 171.648 204.836 C164.929 207.789 158.869 206.921 152 205 C150.122 203.122 150.609 199.961 150.438 197.438 C150.396 196.839 150.396 196.839 150.184 193.809 C150.123 192.882 150.062 191.955 150 191 C143.927 191 137.766 193.435 133.25 197.438 Z M-68.938 193.312 C-69.468 193.527 -69.468 193.527 -72.152 194.613 C-74.729 195.868 -76.297 196.727 -78 199 C-78.188 201.875 -78.188 201.875 -77 205 C-69.122 212.643 -56.847 213.481 -46.444 213.426 C-36.825 213.114 -26.056 211.056 -19 204 C-18.438 201.25 -18.438 201.25 -19 198 C-23.665 193.435 -29.732 191.972 -36 191 C-36.014 191.831 -36.028 192.663 -36.043 193.52 C-36.091 194.606 -36.138 195.693 -36.188 196.812 C-36.222 197.891 -36.257 198.97 -36.293 200.082 C-37 203 -37 203 -39.316 204.836 C-46.058 207.76 -52.151 207.188 -59 205 C-60.878 203.122 -60.391 199.961 -60.562 197.438 C-60.604 196.839 -60.604 196.839 -60.816 193.809 C-60.877 192.882 -60.938 191.955 -61 191 C-63.956 191 -66.213 192.193 -68.938 193.312 Z M-119 204 C-119 204.66 -119 205.32 -119 206 C-113.747 208.29 -109.495 208.088 -104 207 C-103.34 206.67 -102.68 206.34 -102 206 C-102 205.34 -102 204.68 -102 204 C-102.724 204.084 -103.449 204.168 -104.195 204.254 C-109.335 204.795 -113.914 205.237 -119 204 Z M216 204 C216.33 204.99 216.66 205.98 217 207 C227.558 208.517 227.558 208.517 232 206 C232 205.34 232 204.68 232 204 C231.632 204.042 231.632 204.042 229.77 204.254 C229.282 204.305 229.282 204.305 226.812 204.562 C225.85 204.667 224.887 204.771 223.895 204.879 C221.058 204.998 218.746 204.678 216 204 Z M-118 210 C-119 211 -119 211 -119.114 214.143 C-119.113 215.534 -119.108 216.925 -119.098 218.316 C-119.096 219.047 -119.095 219.779 -119.093 220.532 C-119.088 222.875 -119.075 225.219 -119.062 227.562 C-119.057 229.148 -119.053 230.733 -119.049 232.318 C-119.038 236.212 -119.021 240.106 -119 244 C-114.751 245.834 -111.661 246.333 -107 246 C-105.35 245.34 -103.7 244.68 -102 244 C-102 232.78 -102 221.56 -102 210 C-103.32 210.33 -104.64 210.66 -106 211 C-107.519 211.089 -109.041 211.13 -110.562 211.125 C-110.945 211.126 -110.945 211.126 -112.879 211.133 C-115 211 -115 211 -118 210 Z M216 210 C215.926 214.805 215.871 219.611 215.835 224.417 C215.82 226.052 215.8 227.687 215.774 229.323 C215.737 231.671 215.72 234.019 215.707 236.367 C215.692 237.101 215.676 237.834 215.66 238.59 C215.659 240.652 215.659 240.652 216 244 C219.073 246.048 219.872 246.295 223.375 246.312 C224.125 246.329 224.875 246.346 225.648 246.363 C228.823 245.873 230.493 245.033 233 243 C233.459 240.351 233.588 238.346 233.488 235.707 C233.481 235.001 233.474 234.295 233.467 233.568 C233.439 231.315 233.376 229.065 233.312 226.812 C233.287 225.285 233.265 223.757 233.244 222.229 C233.189 218.485 233.103 214.743 233 211 C232.34 210.67 231.68 210.34 231 210 C230.01 210.33 229.02 210.66 228 211 C226.502 211.092 225.001 211.13 223.5 211.125 C222.727 211.128 221.953 211.13 221.156 211.133 C219 211 219 211 216 210 Z M-61 216 C-61 223 -61 223 -59.125 225.375 C-54.033 228.023 -49.015 228.672 -43.387 227.418 C-37.518 225.518 -37.518 225.518 -36 224 C-36 221.36 -36 218.72 -36 216 C-44.25 216 -52.5 216 -61 216 Z M149 216 C149 218.31 149 220.62 149 223 C153.056 226.853 157.48 228.114 163 228 C167.147 227.384 170.473 226.351 174 224 C175.31 220.724 174.909 219.637 174 216 C165.75 216 157.5 216 149 216 Z M-2 229 C-4.903 233.531 -7.466 238.255 -10 243 C-6.713 244.644 -4.002 243.398 -0.605 242.359 C3.41 240.265 5.188 237.114 7.43 233.277 C9.147 230.787 10.174 229.982 13 229 C18.502 228.556 22.444 228.558 27 232 C31.384 238.121 32.451 244.267 33.332 251.594 C34.491 257.501 37.237 262.691 40 268 C40.33 268 40.66 268 41 268 C41.151 263.948 41.258 259.896 41.33 255.842 C41.359 254.468 41.4 253.095 41.453 251.723 C41.821 241.839 40.745 234.244 35 226 C29.758 220.798 24.498 218.339 17.125 217.625 C9.081 217.885 2.757 222.825 -2 229 Z M79 227 C75.013 233.203 72.732 239.884 72.805 247.273 C72.811 248.427 72.818 249.581 72.824 250.77 C72.841 251.959 72.858 253.149 72.875 254.375 C72.884 255.588 72.893 256.801 72.902 258.051 C72.926 261.034 72.959 264.017 73 267 C73.99 267 74.98 267 76 267 C78.522 260.843 80.311 254.867 81.5 248.312 C82.875 241.076 84.128 235.611 89.75 230.5 C94.918 228.115 98.792 228.35 104.188 229.938 C107.205 232.15 107.66 233.199 109.125 236.5 C110.744 239.808 111.528 240.802 114.98 242.254 C117.983 242.983 120.94 243.575 124 244 C121.271 234.69 115.313 225.292 107 220 C96.557 215.112 86.428 218.778 79 227 Z M-53 231 C-53.13 242.143 -50.44 252.086 -42.758 260.438 C-40.897 262.079 -39.04 263.59 -37 265 C-32.863 263.21 -31.337 260.839 -29 257 C-30.287 255.994 -31.58 254.996 -32.875 254 C-33.594 253.443 -34.314 252.886 -35.055 252.312 C-37 251 -37 251 -39 251 C-41.27 244.29 -42.495 238.069 -43 231 C-46.3 231 -49.6 231 -53 231 Z M157 231 C156.89 231.869 156.781 232.738 156.668 233.633 C154.764 247.471 154.764 247.471 149.062 252.688 C148.052 253.451 147.041 254.214 146 255 C145.608 255.299 145.608 255.299 143.625 256.812 C143.089 257.204 142.553 257.596 142 258 C144.31 260.31 146.62 262.62 149 265 C154.661 263.628 157.804 259.597 161 255 C165.283 247.203 166.827 239.845 167 231 C163.7 231 160.4 231 157 231 Z M9 236 C8.328 238.645 8.328 238.645 8 241 C8.678 241.086 9.356 241.173 10.055 241.262 C17.149 242.333 22.774 244.461 29 248 C28.077 238.769 28.077 238.769 26 236 C23.203 233.762 21.035 232.207 17.5 231.5 C13.92 232.216 11.781 233.662 9 236 Z M89.516 236.039 C86.993 239.302 85.65 242.937 85 247 C85.33 247.66 85.66 248.32 86 249 C86.866 248.237 87.732 247.474 88.625 246.688 C94.011 242.762 100.566 242.098 107 241 C106.183 237.178 105.176 235.424 102 233 C96.362 231.085 93.617 232.104 89.516 236.039 Z M-138.625 239.875 C-140 242 -140 242 -140.188 245 C-138.574 249.077 -135.801 250.228 -132 252 C-116.561 257.243 -102.453 257.111 -87 252 C-83.51 250.137 -80.807 248.614 -79 245 C-79.643 241.326 -80.828 240.137 -83.75 237.812 C-88.322 235.263 -91.746 234 -97 234 C-97.144 235.031 -97.289 236.062 -97.438 237.125 C-97.917 240.425 -98.439 243.713 -99 247 C-105.715 249.904 -112.573 249.709 -119.625 248.25 C-123.204 244.859 -122.822 241.289 -122.992 236.52 C-122.993 236.104 -122.993 236.104 -123 234 C-129.021 234 -133.763 236.402 -138.625 239.875 Z M194.312 239.875 C193 242 193 242 192.812 245 C194.176 248.445 195.615 249.505 198.902 251.125 C211.858 256.529 224.817 257.59 238.5 254.25 C239.158 254.093 239.816 253.936 240.494 253.775 C244.949 252.589 248.364 250.822 252 248 C253.375 245.25 253.375 245.25 254 243 C250.648 237.516 245.933 235.773 240 234 C239.01 234 238.02 234 237 234 C236.997 234.831 236.995 235.663 236.992 236.52 C236.678 245.34 236.678 245.34 233.688 248.25 C226.745 249.662 219.48 250.269 213 247 C211.716 244.431 211.67 242.234 211.438 239.375 C211.396 238.874 211.396 238.874 211.184 236.336 C211.123 235.565 211.062 234.794 211 234 C204.794 234 199.384 236.337 194.312 239.875 Z M-28.125 262.875 C-28.457 263.21 -28.457 263.21 -30.137 264.902 C-43 277.967 -43 277.967 -43 281 C-43.66 281 -44.32 281 -45 281 C-46.41 282.434 -46.41 282.434 -48.062 284.438 C-57.325 295.25 -66.457 304.561 -81.18 306.25 C-86.911 306.567 -92.39 305.567 -97 302 C-101.721 296.347 -102.994 290.675 -103.812 283.5 C-103.933 282.582 -104.054 281.664 -104.178 280.719 C-104.469 278.481 -104.737 276.241 -105 274 C-106.65 274.165 -106.65 274.165 -115 275 C-115.687 286.171 -113.539 298.019 -106.695 307.133 C-100.813 313.611 -95.097 316.388 -86.508 317.25 C-72.607 317.895 -60.372 312.097 -50.25 303 C-46.761 299.736 -43.37 296.386 -40 293 C-39.198 292.21 -38.396 291.42 -37.57 290.605 C-32.483 285.575 -27.653 280.431 -23 275 C-7.802 257.26 -7.802 257.26 4.188 255.719 C9.622 255.492 15.215 256.289 20 259 C21.125 260.797 21.125 260.797 22 263 C22.342 263.804 22.683 264.609 23.035 265.438 C23.374 266.283 23.713 267.129 24.062 268 C24.404 268.846 24.746 269.691 25.098 270.562 C26.736 274.989 27.232 279.03 27.562 283.75 C27.646 284.92 27.73 286.091 27.816 287.297 C27.877 288.189 27.938 289.081 28 290 C30.97 289.34 33.94 288.68 37 288 C37.511 275.036 36.446 262.682 27.59 252.453 C20.475 245.95 12.752 244.629 3.449 244.723 C-9.545 245.768 -19.384 253.859 -28.125 262.875 Z M85.496 253.906 C78.235 264.068 76.829 275.774 77 288 C80.3 288.66 83.6 289.32 87 290 C87.075 288.756 87.15 287.512 87.227 286.23 C88.606 267.506 88.606 267.506 95 260 C100.493 256.308 105.373 255.223 112 256 C124.665 259.063 132.816 269.557 141 279 C142.166 280.333 143.333 281.667 144.5 283 C145.057 283.638 145.614 284.276 146.188 284.934 C149.75 288.995 153.358 293.01 157 297 C157.54 297.619 158.08 298.238 158.637 298.875 C165.904 306.783 176.467 313.655 187 316 C187.799 316.18 188.598 316.361 189.422 316.547 C197.999 318.054 207.176 317.486 214.781 312.934 C224.005 305.804 227.176 295.105 229 284 C229.064 282.397 229.086 280.792 229.062 279.188 C229.052 278.497 229.052 278.497 229 275 C225.7 275 222.4 275 219 275 C217.859 278.422 217.65 281.532 217.312 285.125 C216.502 291.882 215.036 297.201 210 302 C204.471 305.804 198.598 307.051 192 306 C175.31 301.858 164.359 289.124 153.708 276.464 C128.348 246.325 128.348 246.325 111.293 244.75 C101.476 244.347 92.223 246.292 85.496 253.906 Z M-123 259 C-123 265 -123 265 -121.688 267.312 C-118.385 270.615 -114.553 270.194 -110.125 270.25 C-108.911 270.276 -107.696 270.302 -106.445 270.328 C-102.48 269.95 -99.835 268.835 -97 266 C-97 263.69 -97 261.38 -97 259 C-105.58 259 -114.16 259 -123 259 Z M211 259 C211 261.64 211 264.28 211 267 C214.66 270.562 218.577 270.405 223.5 270.375 C224.145 270.379 224.145 270.379 227.406 270.398 C231.141 269.984 233.042 269.263 236 267 C237 265 237 265 237 259 C228.42 259 219.84 259 211 259 Z M41 274 C41.375 276.312 41.375 276.312 43 279 C51.949 283.38 60.741 282.628 70.031 280.047 C72 279 72 279 72.781 276.891 C72.853 276.267 72.926 275.643 73 275 C72.639 275.237 72.639 275.237 70.812 276.438 C64.528 279.929 55.666 280.259 48.77 278.398 C45.964 277.214 43.532 275.688 41 274 Z M22 280 C19.877 282.3 19.042 283.761 18.5 286.875 C19.159 290.997 20.91 293.346 24 296 C38.108 305.291 56.769 305.428 72.82 302.695 C81.18 300.867 88.639 298.08 94.938 292.188 C96.557 288.853 95.895 286.517 95 283 C93.5 281.062 93.5 281.062 92 280 C91.67 280 91.34 280 91 280 C91 284.29 91 288.58 91 293 C84.998 293.218 79.808 292.506 74 291 C73.835 289.68 73.835 289.68 73 283 C71.969 283.33 70.938 283.66 69.875 284 C60.677 286.287 51.05 285.496 42 283 C41.67 285.97 41.34 288.94 41 292 C38.521 292.194 36.042 292.38 33.562 292.562 C32.855 292.619 32.148 292.675 31.42 292.732 C29.616 292.862 27.808 292.935 26 293 C23.874 290.874 24.553 286.348 24.379 283.469 C24.254 282.654 24.129 281.839 24 281 C23.34 280.67 22.68 280.34 22 280 Z M19 297 C18.864 300.043 18.766 303.08 18.688 306.125 C18.646 306.981 18.604 307.837 18.561 308.719 C18.48 312.931 18.509 316.017 21.172 319.418 C32.406 329.675 47.606 331.79 62.234 331.348 C72.725 330.759 83.871 327.968 92 321 C96.376 315.933 96.514 311.995 96.25 305.625 C96.232 304.794 96.214 303.962 96.195 303.105 C96.149 301.07 96.077 299.035 96 297 C95.535 297.241 95.535 297.241 93.184 298.461 C91.935 299.099 90.686 299.737 89.438 300.375 C88.828 300.692 88.219 301.009 87.592 301.336 C73.182 308.655 52.544 309.474 37 305 C30.662 302.861 24.667 300.587 19 297 Z M43 334 C45.408 340.02 45.408 340.02 50 342 C53.34 342.398 53.34 342.398 56.938 342.375 C57.53 342.379 57.53 342.379 60.527 342.398 C64.388 341.955 66.789 341.192 70 339 C70.33 337.35 70.66 335.7 71 334 C61.76 334 52.52 334 43 334 Z M49 348 C48.562 351.312 48.562 351.312 49 355 C51.115 357.703 52.89 359.427 55.938 361 C59.176 361 61.276 359.658 64 358 C66.313 354.53 66.34 353.075 66 349 C65.34 348.01 64.68 347.02 64 346 C61.031 345.637 61.031 345.637 57.5 345.688 C56.335 345.691 55.169 345.695 53.969 345.699 C51 346 51 346 49 348 Z M49 368 C46.672 371.215 46.603 374.108 47 378 C48.261 380.774 49.311 382.483 51.75 384.312 C55.074 385.328 57.537 385.418 61 385 C63.972 383.215 66.426 381.148 68 378 C68.412 373.364 67.875 370.696 65 367 C59.979 363.234 53.68 364.256 49 368 Z " fill="#000000" transform="translate(193,0)"/>
</svg>
