<?xml version="1.0" encoding="UTF-8"?>
<!-- Generator: visioncortex VTracer 0.6.12 -->
<svg version="1.1" xmlns="http://www.w3.org/2000/svg" width="500" height="500">
<path d="M0,0 L7,1 L11,5 L12,7 L11,23 L36,37 L60,51 L89,67 L106,77 L118,84 L126,88 L128,79 L133,75 L140,75 L144,77 L146,80 L146,89 L145,91 L144,248 L143,308 L142,311 L147,313 L149,317 L149,325 L144,330 L141,332 L134,332 L129,329 L127,325 L127,318 L131,313 L131,310 L128,307 L129,275 L92,292 L56,308 L23,323 L-6,336 L-31,347 L-46,354 L-81,370 L-101,379 L-112,384 L-114,384 L-114,416 L-115,418 L-110,421 L-107,426 L-108,433 L-113,438 L-117,440 L-124,439 L-129,433 L-129,425 L-127,422 L-125,422 L-126,418 L-128,417 L-129,383 L-157,367 L-178,355 L-206,339 L-231,325 L-243,318 L-243,344 L-244,346 L-239,350 L-237,354 L-238,361 L-244,366 L-246,367 L-253,367 L-258,363 L-260,356 L-258,351 L-256,349 L-257,344 L-258,321 L-259,132 L-261,129 L-261,121 L-257,116 L-249,115 L-244,118 L-242,121 L-242,127 L-222,118 L-183,100 L-147,84 L-106,65 L-90,58 L-75,51 L-57,43 L-42,36 L-12,22 L-5,20 L-8,11 L-6,4 L-3,1 Z M0,2 L-5,6 L-6,12 L-3,17 L-1,18 L6,18 L10,14 L10,6 L5,2 Z M-3,19 Z M6,19 L-2,20 L0,22 L7,21 L8,19 Z M-5,21 L-42,38 L-75,53 L-110,69 L-143,84 L-170,96 L-185,103 L-217,118 L-243,130 L-243,134 L-231,129 L-190,110 L-157,95 L-124,80 L-91,65 L-56,49 L-30,37 L-6,26 L-2,23 Z M1,24 L0,33 L-3,35 L-3,149 L8,149 L8,45 L4,42 L4,24 Z M8,24 L6,25 L7,28 L27,39 L48,51 L73,65 L97,79 L124,94 L129,96 L129,92 L104,78 L76,62 L51,48 L23,32 L9,24 Z M-4,26 L-23,35 L-56,50 L-89,65 L-126,82 L-162,98 L-177,105 L-211,121 L-242,135 L-243,136 L-243,143 L-220,133 L-186,117 L-162,106 L-129,91 L-92,74 L-59,59 L-25,44 L-10,37 L-1,32 L-1,26 Z M5,29 L5,41 L22,51 L50,67 L76,82 L99,95 L113,103 L120,102 L127,98 L122,94 L97,80 L74,67 L46,51 L21,37 L7,29 Z M-6,36 L-12,39 L-13,61 L-13,153 L-5,149 L-5,36 Z M-16,41 L-21,43 L-22,66 L-22,157 L-15,154 L-14,41 Z M-25,45 L-37,51 L-38,136 L-38,163 L-36,164 L-24,158 L-23,97 L-23,45 Z M10,46 L9,149 L12,151 L19,147 L20,89 L20,51 Z M-41,52 L-48,56 L-48,168 L-43,167 L-39,165 L-39,52 Z M22,53 L21,75 L21,146 L27,144 L28,143 L28,56 L24,53 Z M-52,57 L-58,60 L-58,173 L-51,171 L-50,170 L-49,84 L-49,57 Z M30,58 L30,142 L39,139 L43,137 L44,94 L44,65 L32,58 Z M-61,61 L-73,67 L-74,68 L-74,180 L-69,179 L-60,175 L-60,61 Z M46,67 L45,78 L45,135 L51,133 L52,132 L52,70 L48,67 Z M-78,69 L-84,72 L-84,185 L-78,183 L-76,182 L-76,69 Z M54,72 L54,131 L63,128 L67,126 L67,78 L56,72 Z M-87,73 L-101,80 L-101,193 L-91,189 L-87,187 L-86,179 L-86,73 Z M133,77 L129,81 L128,85 L130,90 L134,93 L140,93 L144,89 L145,83 L142,78 L140,77 Z M69,80 L69,124 L75,122 L76,121 L76,83 Z M-105,81 L-112,85 L-113,167 L-113,195 L-112,198 L-106,196 L-103,194 L-102,141 L-102,81 Z M78,85 L77,120 L82,119 L91,115 L91,92 L79,85 Z M-116,86 L-130,93 L-130,191 L-120,189 L-115,191 L-114,139 L-114,86 Z M-133,94 L-141,98 L-142,197 L-139,200 L-132,203 L-131,149 L-131,94 Z M93,94 L93,113 L97,112 L100,111 L100,97 L95,94 Z M131,94 Z M140,94 L133,95 L136,97 L142,95 Z M131,97 L131,99 L133,100 L134,112 L131,113 L130,194 L130,258 L133,261 L132,273 L130,280 L130,307 L133,309 L139,309 L141,308 L142,275 L143,97 Z M102,99 L102,109 L111,106 L111,103 L104,99 Z M-146,100 L-154,104 L-154,191 L-144,197 L-143,197 L-143,100 Z M127,100 L106,109 L91,116 L63,129 L39,140 L10,153 L-23,168 L-62,186 L-98,202 L-114,210 L-114,213 L-109,212 L-76,197 L-41,181 L-6,165 L20,153 L49,140 L88,122 L124,106 L132,102 L131,100 Z M130,104 L114,111 L99,118 L69,132 L33,148 L16,156 L-10,168 L-45,184 L-78,199 L-114,215 L-114,222 L-105,219 L-77,206 L-52,195 L-38,188 L-5,173 L30,157 L66,141 L103,124 L132,111 L133,110 L133,104 Z M-157,105 L-170,111 L-170,182 L-161,188 L-156,190 L-156,105 Z M-174,113 L-182,117 L-182,176 L-172,181 L-172,113 Z M128,114 L122,117 L121,157 L121,246 L127,250 L128,250 L129,239 L129,114 Z M-254,117 L-258,119 L-260,126 L-257,132 L-255,133 L-248,133 L-244,129 L-243,125 L-245,120 L-249,117 Z M-186,118 L-200,125 L-200,166 L-190,172 L-184,174 L-184,118 Z M119,118 L113,121 L112,194 L112,266 L117,265 L119,263 L120,178 L120,118 Z M110,122 L101,127 L101,201 L109,206 L110,206 L111,187 L111,122 Z M-203,126 L-212,131 L-213,135 L-212,160 L-202,165 L-202,126 Z M99,128 L99,135 L100,135 L100,128 Z M95,129 L89,132 L88,174 L88,228 L96,225 L97,202 L97,129 Z M-216,132 L-230,139 L-230,150 L-216,158 L-214,158 L-214,132 Z M-247,134 Z M86,133 L79,136 L78,180 L78,281 L83,281 L86,278 L87,200 L87,133 Z M-255,135 Z M-251,135 L-252,137 L-247,136 Z M-246,137 L-253,138 L-257,138 L-256,343 L-252,345 L-246,344 L-245,343 L-245,316 L-247,315 L-248,298 L-245,297 L-245,164 L-248,162 L-248,146 L-245,144 L-245,137 Z M72,139 L69,141 L68,184 L75,188 L75,139 Z M-233,140 L-239,143 L-239,145 L-234,148 L-232,148 L-232,140 Z M64,143 L63,164 L63,181 L66,182 L67,167 L67,143 Z M-245,145 L-245,148 L-228,157 L-205,170 L-173,187 L-150,200 L-133,209 L-129,210 L-130,206 L-159,190 L-187,175 L-210,162 L-227,153 L-242,145 Z M59,145 L54,148 L53,259 L53,291 L58,292 L61,289 L62,214 L62,145 Z M-247,149 L-247,161 L-237,167 L-219,177 L-195,190 L-173,202 L-149,215 L-131,225 L-129,225 L-129,213 L-137,208 L-159,196 L-181,184 L-205,171 L-234,155 L-245,149 Z M50,149 L45,152 L45,171 L50,174 L52,174 L52,149 Z M-2,150 L-12,154 L-49,171 L-75,183 L-108,198 L-112,200 L-114,204 L-114,208 L-109,206 L-89,197 L-54,181 L-21,166 L6,154 L9,151 L6,150 Z M42,153 L30,159 L30,163 L41,169 L43,169 L43,153 Z M24,161 L0,172 L-35,188 L-61,200 L-81,209 L-99,217 L-100,218 L-100,311 L-88,306 L-87,305 L-87,280 L-90,279 L-90,270 L-91,268 L-93,268 L-94,260 L-91,256 L-91,238 L-93,237 L-94,230 L-86,228 L-55,214 L-30,203 L-1,190 L18,182 L33,175 L41,171 L37,168 Z M-243,166 L-243,283 L-241,283 L-241,166 Z M-239,168 L-239,282 L-235,280 L-236,275 L-236,259 L-235,256 L-235,170 Z M-234,171 L-234,235 L-233,306 L-230,308 L-226,307 L-226,222 L-227,174 L-232,171 Z M45,173 L44,178 L41,180 L41,199 L43,199 L44,202 L44,209 L40,212 L35,215 L35,251 L40,250 L52,244 L52,177 L46,173 Z M40,173 L13,185 L-32,205 L-77,225 L-88,230 L-87,235 L-70,228 L-28,209 L2,196 L31,183 L43,177 L42,173 Z M98,175 Z M-225,176 L-225,248 L-219,247 L-215,245 L-215,181 L-223,176 Z M98,177 L98,199 L99,199 L99,177 Z M-213,182 L-213,316 L-209,320 L-206,319 L-206,186 Z M38,181 L36,182 L36,200 L39,199 L39,181 Z M31,184 L26,187 L26,204 L32,202 L34,201 L34,184 Z M63,184 L63,239 L73,235 L76,233 L77,217 L77,191 L65,184 Z M-204,187 L-204,239 L-202,239 L-202,188 Z M22,188 L7,195 L7,213 L23,206 L24,205 L24,188 Z M-200,190 L-200,237 L-194,236 L-191,234 L-191,194 L-197,190 Z M-123,190 L-128,193 L-130,196 L-129,203 L-124,207 L-118,206 L-115,204 L-114,195 L-118,191 Z M-189,195 L-189,330 L-186,333 L-181,332 L-182,199 Z M4,196 L-3,200 L-3,217 L3,215 L5,214 L5,196 Z M-180,200 L-180,229 L-172,226 L-172,204 Z M-7,201 L-22,208 L-22,225 L-17,224 L-5,218 L-5,201 Z M40,200 L38,201 L40,210 L43,209 L43,202 Z M98,202 L98,223 L104,221 L110,217 L110,208 Z M35,202 L6,215 L-19,226 L-50,240 L-71,249 L-86,256 L-88,258 L-83,259 L-52,245 L-21,231 L4,220 L37,205 L36,202 Z M-170,206 L-170,224 L-168,224 L-168,206 Z M-117,207 Z M35,207 L-7,226 L-45,243 L-72,255 L-85,261 L-85,266 L-68,259 L-28,241 L-3,230 L26,217 L38,211 L38,207 Z M-166,208 L-166,298 L-165,344 L-163,346 L-158,346 L-158,257 L-159,211 L-164,208 Z M-126,208 L-125,210 L-118,210 L-117,208 Z M-25,209 L-31,212 L-31,229 L-26,228 L-24,227 L-24,209 Z M-127,211 L-127,406 L-126,416 L-124,417 L-118,417 L-116,416 L-116,211 Z M-157,213 L-157,218 L-156,218 L-156,213 Z M-34,213 L-50,220 L-50,238 L-41,235 L-33,231 L-33,213 Z M-154,215 L-152,217 L-152,215 Z M31,216 L26,218 L25,275 L25,303 L26,304 L31,304 L33,302 L34,240 L34,216 Z M-150,217 L-157,221 L-157,298 L-156,303 L-147,308 L-144,308 L-145,219 Z M-105,220 L-109,222 L-109,364 L-105,365 L-102,363 L-102,220 Z M108,220 L99,225 L98,226 L98,244 L103,243 L109,239 L110,238 L110,220 Z M-143,221 L-143,332 L-142,357 L-137,360 L-135,359 L-135,291 L-136,224 L-140,221 Z M22,220 L7,227 L7,264 L13,262 L24,257 L24,220 Z M-54,222 L-59,224 L-59,242 L-53,240 L-52,239 L-52,222 Z M-114,224 L-114,317 L-111,316 L-111,224 Z M-170,226 L-180,231 L-180,289 L-172,294 L-168,296 L-168,226 Z M-134,226 L-134,314 L-131,317 L-129,317 L-129,228 L-131,226 Z M-64,226 L-77,232 L-77,250 L-71,248 L-61,243 L-61,226 Z M94,227 L88,230 L88,249 L96,246 L96,227 Z M4,228 L-2,231 L-3,232 L-3,317 L4,316 L5,314 L5,228 Z M-92,231 L-93,235 L-89,236 L-90,232 Z M-81,234 L-85,236 L-85,253 L-80,252 L-79,251 L-79,234 Z M-7,233 L-22,240 L-22,276 L-17,275 L-5,269 L-5,233 Z M73,236 L63,241 L63,260 L72,257 L76,255 L76,236 Z M-192,236 L-204,242 L-204,276 L-194,282 L-191,283 L-191,236 Z M-88,237 L-89,238 L-89,255 L-87,255 L-87,237 Z M-25,241 L-31,244 L-31,330 L-26,330 L-24,328 L-24,241 Z M107,242 L107,245 L110,246 L110,242 Z M101,245 L98,247 L98,257 L108,262 L110,262 L110,248 L104,245 Z M-34,245 L-50,252 L-50,289 L-44,287 L-33,282 L-33,245 Z M-217,247 L-225,251 L-225,264 L-216,270 L-215,270 L-215,247 Z M49,247 L35,254 L35,272 L40,271 L52,265 L52,247 Z M94,248 L90,250 L91,253 L96,255 L96,248 Z M121,249 L122,254 L128,255 L127,251 Z M88,253 L88,271 L95,269 L96,268 L96,257 Z M-54,254 L-59,256 L-59,342 L-56,343 L-52,340 L-52,254 Z M121,255 L121,257 L123,256 Z M74,257 L63,262 L63,282 L68,281 L76,277 L76,257 Z M126,257 L121,260 L120,265 L130,261 L128,257 Z M-91,258 L-93,260 L-92,266 L-88,267 L-87,262 Z M-63,258 L-77,265 L-77,300 L-72,299 L-61,294 L-61,258 Z M22,259 L7,266 L7,285 L20,280 L24,277 L24,259 Z M98,259 L98,267 L104,265 L106,263 L100,259 Z M129,263 L99,276 L59,294 L30,307 L0,320 L-15,327 L-52,344 L-81,357 L-114,372 L-114,382 L-108,380 L-66,361 L-41,350 L-26,343 L9,327 L38,314 L69,300 L88,292 L98,287 L117,279 L132,271 L132,263 Z M109,264 L98,269 L98,275 L113,269 L112,267 L110,267 Z M-81,266 L-82,267 L-82,279 L-86,281 L-86,353 L-83,355 L-79,353 L-78,351 L-78,266 Z M-225,267 L-225,280 L-223,287 L-217,291 L-215,291 L-215,272 L-223,267 Z M-86,268 L-89,270 L-89,277 L-84,278 L-84,268 Z M49,268 L35,275 L35,295 L45,291 L51,288 L52,277 L52,268 Z M93,271 L88,273 L87,279 L92,278 L96,276 L96,271 Z M-8,272 L-22,279 L-22,298 L-7,292 L-5,290 L-5,272 Z M-204,279 L-204,298 L-193,304 L-191,304 L-191,285 L-201,279 Z M75,279 L63,285 L63,290 L72,287 L79,284 Z M22,280 L7,287 L7,307 L12,306 L23,301 L24,281 Z M-238,283 L-243,286 L-243,290 L-237,288 L-235,287 L-235,283 Z M-35,284 L-50,291 L-50,310 L-41,307 L-33,303 L-33,284 Z M-224,289 L-224,295 L-219,294 L-218,292 Z M-236,289 L-243,292 L-243,295 L-237,298 L-235,298 L-235,289 Z M62,290 Z M50,290 L35,297 L34,303 L43,300 L54,295 L54,293 Z M-180,292 L-180,311 L-170,317 L-167,317 L-167,305 L-168,298 L-178,292 Z M-7,293 L-22,300 L-22,320 L-17,319 L-5,313 L-5,293 Z M-216,294 L-224,298 L-224,305 L-217,309 L-215,309 L-215,294 Z M-63,296 L-77,303 L-77,321 L-75,322 L-61,315 L-61,296 Z M-243,297 L-245,301 L-235,306 L-235,301 L-241,297 Z M-204,300 L-204,316 L-192,323 L-191,323 L-191,307 L-200,301 Z M-247,302 L-247,313 L-239,318 L-218,330 L-193,344 L-176,354 L-151,368 L-138,376 L-129,380 L-128,379 L-128,370 L-132,366 L-157,352 L-181,338 L-199,328 L-220,316 L-238,306 L-245,302 Z M21,303 L7,309 L6,316 L12,314 L27,307 L24,303 Z M-156,305 L-157,307 L-156,324 L-148,329 L-144,330 L-144,311 L-154,305 Z M-35,305 L-50,312 L-50,333 L-41,330 L-33,326 L-33,305 Z M-224,307 L-227,311 L-215,317 L-215,312 Z M-90,308 L-100,313 L-100,332 L-94,330 L-88,327 L-87,326 L-87,308 Z M134,311 L138,312 Z M140,312 L145,319 L146,324 L148,320 L146,315 L142,312 Z M-180,313 L-180,329 L-171,335 L-167,336 L-167,320 L-179,313 Z M133,314 L129,318 L128,322 L131,328 L134,330 L141,330 L144,327 L144,319 L139,314 Z M-6,315 L-22,323 L-23,329 L-17,327 L-2,320 Z M-133,317 L-134,318 L-133,337 L-129,339 L-129,319 Z M-204,318 L-207,322 L-194,330 L-191,330 L-191,325 L-203,318 Z M-62,317 L-77,324 L-77,343 L-76,345 L-70,343 L-61,339 L-61,317 Z M-112,318 L-114,319 L-114,338 L-111,337 L-111,318 Z M-156,327 L-156,343 L-146,349 L-144,349 L-144,333 L-154,327 Z M-89,329 L-100,334 L-100,356 L-88,351 L-87,350 L-87,329 Z M-34,328 L-50,335 L-50,341 L-41,338 L-30,333 L-31,331 L-33,331 Z M-180,332 L-183,336 L-169,344 L-167,344 L-167,339 L-176,333 Z M-133,339 L-133,356 L-129,358 L-129,341 Z M-112,339 L-114,340 L-114,362 L-111,361 L-111,339 Z M-63,341 L-77,348 L-77,353 L-72,352 L-58,345 L-61,341 Z M-156,345 L-160,349 L-146,357 L-144,357 L-144,352 L-155,345 Z M-252,346 L-253,348 L-249,347 Z M-247,348 L-242,354 L-241,358 L-239,358 L-240,352 L-244,348 Z M-254,350 L-257,352 L-258,359 L-256,363 L-253,365 L-246,365 L-243,362 L-242,357 L-245,352 L-247,350 Z M-90,353 L-100,358 L-101,364 L-92,361 L-84,357 L-87,353 Z M-133,358 L-134,361 L-137,362 L-129,366 L-129,360 Z M-112,363 L-114,364 L-114,370 L-108,368 L-108,366 Z M-123,419 L-123,420 L-118,420 L-118,419 Z M-117,420 L-112,426 L-110,431 L-109,431 L-110,424 L-114,420 Z M-123,422 L-127,425 L-128,430 L-125,436 L-122,438 L-115,437 L-112,434 L-112,428 L-116,423 Z " fill="#000000" transform="translate(306,27)"/>
</svg>
