<?xml version="1.0" encoding="UTF-8"?>
<!-- Generator: visioncortex VTracer 0.6.12 -->
<svg version="1.1" xmlns="http://www.w3.org/2000/svg" width="500" height="500">
<path d="M0,0 L11,0 L23,5 L34,11 L39,15 L44,24 L45,28 L45,37 L41,40 L32,40 L30,39 L31,50 L49,47 L60,46 L80,46 L103,49 L118,53 L131,58 L150,68 L230,108 L249,118 L277,132 L288,139 L297,147 L304,158 L306,165 L306,178 L302,189 L295,199 L287,207 L280,212 L278,212 L277,220 L271,244 L270,250 L272,258 L274,262 L274,274 L269,285 L268,295 L269,297 L277,299 L282,304 L283,313 L278,319 L272,321 L264,321 L255,318 L251,313 L248,301 L244,294 L236,300 L225,307 L211,313 L196,317 L172,320 L163,329 L160,335 L160,346 L162,351 L161,358 L157,362 L152,364 L143,365 L129,362 L123,357 L122,351 L125,343 L129,339 L129,330 L125,321 L118,309 L118,305 L112,303 L83,288 L60,276 L26,258 L9,249 L5,247 L0,248 L-5,251 L-9,259 L-11,271 L-14,276 L-22,279 L-34,279 L-42,274 L-44,272 L-44,264 L-40,258 L-31,255 L-31,246 L-39,229 L-40,225 L-40,214 L-36,205 L-36,194 L-42,167 L-45,154 L-56,147 L-64,139 L-70,129 L-72,122 L-72,111 L-69,102 L-63,94 L-56,87 L-42,79 L-19,69 L-18,22 L-15,13 L-11,7 L-5,2 Z M3,4 L-5,7 L-11,14 L-14,24 L-14,76 L-9,78 L-6,76 L-6,28 L-4,18 L-8,21 L-5,15 L1,12 L10,13 L26,21 L30,26 L33,35 L34,36 L41,35 L40,26 L35,18 L29,13 L12,5 Z M4,16 L-1,21 L-2,24 L-2,63 L14,57 L15,56 L15,20 L11,17 Z M-4,17 Z M19,22 L19,64 L26,64 L26,26 L21,22 Z M56,51 L36,54 L30,56 L30,64 L28,67 L21,68 L16,66 L15,61 L-1,67 L-2,68 L-3,78 L-8,81 L-15,80 L-18,75 L-28,78 L-41,84 L-53,91 L-61,99 L-67,111 L-67,122 L-63,131 L-56,140 L-44,149 L-12,165 L7,175 L22,183 L38,191 L57,201 L73,209 L92,219 L107,226 L122,231 L141,235 L166,237 L189,236 L211,233 L231,228 L251,221 L270,212 L283,203 L290,197 L297,187 L301,177 L301,165 L295,153 L288,145 L278,138 L238,118 L219,108 L137,67 L121,59 L104,54 L84,51 Z M-38,157 L-37,166 L-31,193 L-29,198 L-24,203 L-20,211 L-18,216 L-13,218 L-11,223 L-6,233 L2,240 L34,256 L56,268 L93,287 L112,297 L117,299 L121,293 L124,291 L130,289 L134,283 L138,281 L147,281 L154,285 L160,295 L169,299 L173,304 L174,313 L177,314 L195,312 L212,307 L228,299 L240,290 L250,279 L256,270 L263,253 L271,224 L272,217 L266,219 L245,228 L222,235 L201,239 L184,241 L155,241 L128,237 L105,230 L89,222 L63,209 L44,199 L3,178 L-20,166 L-37,157 Z M-31,203 L-34,212 L-35,214 L-35,226 L-27,243 L-26,251 L-28,258 L-31,260 L-37,262 L-39,264 L-40,269 L-37,269 L-35,264 L-30,262 L-25,262 L-32,267 L-34,273 L-30,275 L-21,274 L-16,271 L-13,257 L-8,247 L-3,244 L-3,242 L-8,238 L-15,224 L-19,226 L-22,230 L-19,225 L-17,221 L-20,219 L-24,220 L-27,223 L-23,215 L-27,206 L-29,203 Z M266,259 L264,263 L265,267 L265,269 L261,269 L255,280 L248,288 L249,292 L254,304 L257,313 L259,315 L263,316 L272,316 L274,315 L273,309 L269,306 L265,305 L269,302 L265,301 L264,297 L264,286 L268,276 L270,267 L267,259 Z M139,285 L134,289 L133,292 L132,306 L130,295 L127,294 L123,297 L122,304 L125,312 L132,323 L134,336 L133,344 L136,344 L132,349 L131,351 L131,357 L134,358 L138,347 L142,344 L139,353 L139,359 L144,360 L146,354 L146,345 L148,346 L149,359 L154,358 L155,355 L153,347 L155,346 L155,335 L160,325 L168,317 L170,312 L169,305 L165,307 L161,311 L162,309 L166,304 L165,301 L159,300 L153,308 L156,300 L155,294 L151,288 L146,285 Z M271,303 L276,307 L276,304 Z M277,307 L278,309 Z M156,351 L157,353 Z " fill="#000000" transform="translate(132,49)"/>
<path d="M0,0 L26,0 L44,3 L59,8 L139,48 L155,56 L172,65 L188,73 L205,82 L215,91 L219,97 L220,100 L219,92 L215,85 L215,82 L221,89 L224,96 L224,108 L219,118 L213,125 L199,135 L182,143 L164,149 L141,154 L123,156 L98,156 L81,154 L62,149 L46,142 L20,129 L1,119 L-16,110 L-32,102 L-65,85 L-90,72 L-98,66 L-105,58 L-107,53 L-107,43 L-103,35 L-96,28 L-92,27 L-97,32 L-101,37 L-103,42 L-103,48 L-99,40 L-91,33 L-68,23 L-39,11 L-18,3 Z M1,4 L-16,7 L-30,12 L-76,31 L-90,38 L-96,43 L-99,48 L-100,56 L-96,62 L-87,68 L-50,87 L-33,96 L-27,95 L-6,89 L8,87 L27,87 L46,90 L61,95 L80,104 L99,114 L114,122 L135,132 L154,142 L158,144 L167,143 L186,136 L202,127 L209,122 L215,114 L216,112 L216,101 L211,93 L202,85 L175,71 L65,16 L55,11 L42,7 L24,4 Z M13,90 L-8,93 L-22,97 L-25,100 L-2,112 L2,114 L16,114 L23,116 L25,118 L24,122 L23,125 L59,143 L76,148 L85,150 L95,151 L126,151 L147,148 L152,147 L152,145 L112,125 L93,115 L71,104 L57,97 L39,92 L21,90 Z " fill="#000000" transform="translate(190,113)"/>
<path d="M0,0 Z " fill="#000000" transform="translate(100,138)"/>
<path d="M0,0 L2,1 Z " fill="#000000" transform="translate(98,139)"/>
<path d="M0,0 L8,0 L11,3 L12,10 L9,17 L3,22 L-3,22 L-7,18 L-7,8 L-2,1 Z " fill="#000000" transform="translate(145,142)"/>
<path d="M0,0 L2,2 L2,13 L-4,25 L-8,27 L-6,23 L-2,15 L-1,12 L-1,1 Z " fill="#000000" transform="translate(426,211)"/>
<path d="M0,0 L3,1 L0,1 Z " fill="#000000" transform="translate(235,263)"/>
<path d="M0,0 L5,1 L25,7 L42,10 L43,12 L35,12 L17,8 L0,1 Z " fill="#000000" transform="translate(238,265)"/>
<path d="M0,0 Z " fill="#000000" transform="translate(274,338)"/>
<path d="M0,0 L1,0 L0,20 L-2,20 L-2,7 Z " fill="#000000" transform="translate(273,340)"/>
<path d="M0,0 L2,3 L4,11 L1,9 Z " fill="#000000" transform="translate(257,347)"/>
</svg>
