<?xml version="1.0" encoding="UTF-8"?>
<!-- Generator: visioncortex VTracer 0.6.12 -->
<svg version="1.1" xmlns="http://www.w3.org/2000/svg" width="500" height="500">
<path d="M0,0 L15,0 L32,8 L51,18 L78,32 L97,42 L120,54 L139,64 L166,78 L172,82 L176,89 L176,191 L175,251 L171,260 L165,265 L142,277 L119,289 L96,301 L63,318 L40,330 L19,341 L15,342 L2,342 L-21,331 L-40,321 L-67,307 L-100,290 L-127,276 L-152,263 L-157,257 L-159,253 L-160,214 L-160,92 L-157,84 L-150,78 L-111,58 L-88,46 L-60,31 L-25,13 L-5,2 Z M3,5 L-13,13 L-30,22 L-46,30 L-54,35 L-51,38 L-38,45 L-27,45 L-14,48 L-4,53 L6,61 L8,63 L14,63 L23,55 L37,48 L43,46 L54,45 L60,45 L73,38 L73,36 L46,22 L27,12 L16,6 L12,5 Z M-63,39 L-77,47 L-73,50 L-52,61 L-49,61 L-46,52 L-43,48 L-57,40 Z M79,40 L66,47 L68,52 L72,61 L78,59 L96,49 L91,45 L81,40 Z M-35,50 L-40,53 L-44,59 L-43,63 L-37,61 L-20,61 L-8,65 L-3,68 L1,66 L1,63 L-8,56 L-19,51 L-23,50 Z M45,50 L32,55 L20,64 L23,68 L29,66 L39,62 L43,61 L60,61 L66,63 L65,56 L60,51 L57,50 Z M-86,51 L-114,66 L-147,83 L-149,86 L-145,91 L-106,111 L-89,120 L-73,112 L-48,99 L-30,89 L-26,85 L-26,83 L-39,79 L-45,75 L-49,68 L-74,55 L-81,51 Z M101,52 L78,64 L71,68 L67,76 L57,81 L48,83 L52,89 L84,106 L106,118 L110,119 L137,105 L159,93 L165,89 L164,84 L142,72 L111,56 L104,52 Z M-35,65 L-42,68 L-41,72 L-37,75 L-27,78 L-20,79 L-9,79 L-2,78 L-2,74 L-18,66 L-22,65 Z M45,65 L33,69 L24,75 L24,78 L32,79 L43,79 L55,77 L63,73 L64,68 L57,65 Z M6,68 L3,73 L4,79 L8,81 L17,80 L19,77 L19,71 L16,68 Z M21,83 L20,87 L29,97 L38,108 L48,119 L49,119 L50,109 L64,109 L58,102 L44,87 L41,84 Z M-7,83 L-18,84 L-41,107 L-41,109 L-29,109 L-28,110 L-27,117 L-24,117 L-12,104 L-3,93 L3,86 L2,83 Z M9,86 L10,89 L16,91 L14,87 Z M16,91 Z M-153,95 L-154,96 L-154,249 L-150,257 L-136,265 L-120,273 L-93,287 L-90,287 L-89,127 L-98,121 L-124,108 L-143,98 L-150,95 Z M10,95 L-6,104 L-15,114 L-24,125 L-26,127 L-30,127 L-32,120 L-37,122 L-55,132 L-59,134 L-56,137 L-17,157 L2,167 L4,168 L15,168 L31,160 L51,150 L73,138 L79,135 L79,133 L57,121 L54,121 L53,128 L47,126 L38,115 L27,103 L12,95 Z M168,95 L158,99 L138,110 L122,118 L110,125 L109,158 L108,245 L108,287 L113,286 L135,274 L151,266 L165,258 L169,252 L170,228 L171,125 L171,97 Z M-46,103 L-80,121 L-81,124 L-68,131 L-63,131 L-40,118 L-34,115 L-34,114 L-51,115 L-50,110 L-44,103 Z M67,103 L69,107 L73,111 L73,114 L56,114 L59,117 L85,131 L90,129 L102,123 L102,121 L70,104 Z M102,128 L87,136 L86,142 L85,243 L85,300 L101,292 L103,290 L104,198 L104,128 Z M-84,129 L-85,290 L-77,295 L-67,300 L-66,252 L-66,137 L-81,129 Z M-60,141 L-61,179 L-61,303 L-41,314 L-25,322 L0,335 L5,334 L7,331 L7,180 L0,172 L-37,153 L-56,143 Z M78,141 L44,159 L20,172 L15,178 L14,181 L13,264 L13,332 L15,334 L22,333 L55,316 L74,306 L79,303 L80,297 L81,183 L81,141 Z " fill="#000000" transform="translate(243,61)"/>
</svg>
