<?xml version="1.0" encoding="UTF-8"?>
<!-- Generator: visioncortex VTracer 0.6.12 -->
<svg version="1.1" xmlns="http://www.w3.org/2000/svg" width="500" height="500">
<path d="M0,0 L20,1 L38,5 L54,11 L70,20 L84,31 L93,40 L103,53 L112,69 L118,86 L121,102 L122,121 L120,140 L116,156 L108,176 L99,193 L89,210 L81,226 L76,240 L74,247 L72,270 L68,280 L59,290 L60,309 L64,314 L64,323 L60,329 L60,344 L64,348 L65,356 L62,362 L57,371 L43,381 L33,388 L28,401 L19,410 L10,414 L-5,414 L-15,409 L-22,401 L-26,394 L-28,388 L-47,375 L-55,369 L-59,364 L-59,355 L-55,350 L-55,334 L-59,330 L-60,321 L-57,316 L-55,314 L-54,290 L-60,285 L-67,273 L-70,246 L-74,233 L-79,221 L-89,203 L-100,184 L-108,168 L-114,150 L-117,133 L-118,124 L-118,112 L-115,90 L-109,72 L-99,53 L-91,43 L-82,33 L-69,22 L-56,14 L-43,8 L-27,3 L-16,1 Z M-2,5 L-24,8 L-40,13 L-52,18 L-62,24 L-75,34 L-87,46 L-96,59 L-104,74 L-108,85 L-112,105 L-112,130 L-109,146 L-104,163 L-95,182 L-81,206 L-72,223 L-66,240 L-64,249 L-62,270 L-58,278 L-51,286 L-47,289 L-23,289 L-22,229 L-18,219 L-16,217 L-17,202 L-16,198 L-23,181 L-29,165 L-37,144 L-46,121 L-46,116 L-41,117 L-32,126 L-27,125 L-17,115 L-11,115 L-9,119 L-3,126 L1,125 L11,116 L16,116 L25,128 L30,126 L39,118 L43,117 L48,122 L50,122 L51,118 L55,119 L54,124 L41,154 L27,187 L22,199 L22,218 L27,226 L28,288 L29,289 L51,289 L59,283 L65,274 L67,266 L68,251 L72,234 L79,217 L90,197 L102,176 L110,157 L114,142 L116,129 L116,105 L112,85 L105,68 L98,56 L90,45 L78,33 L64,23 L53,17 L39,11 L23,7 L6,5 Z M-15,120 L-23,127 L-29,132 L-34,130 L-38,127 L-35,137 L-27,157 L-21,173 L-15,189 L-12,196 L-4,195 L-1,194 L7,194 L14,196 L19,195 L33,162 L46,131 L45,126 L41,122 L29,133 L23,133 L14,121 L10,123 L-1,132 L-5,131 L-14,120 Z M1,198 L-12,202 L-12,220 L-17,226 L-17,289 L23,289 L23,229 L20,223 L17,218 L18,203 L9,199 Z M-48,294 L-48,313 L-33,313 L44,309 L53,308 L54,307 L54,295 L53,294 Z M45,313 L-50,318 L-54,320 L-54,328 L-51,330 L-20,329 L34,326 L57,324 L59,321 L58,314 L56,313 Z M35,330 L4,332 L-33,334 L-48,335 L-48,349 L-16,348 L53,344 L54,343 L54,330 Z M53,348 L4,351 L-51,354 L-54,357 L-53,364 L-48,366 L8,363 L54,360 L58,359 L60,356 L59,351 L56,348 Z M39,365 L-7,368 L-42,370 L-42,372 L-26,383 L31,383 L49,370 L54,365 Z M-21,389 L-19,395 L-15,401 L-8,407 L-2,409 L8,409 L18,404 L24,397 L27,389 Z " fill="#000000" transform="translate(249,39)"/>
</svg>
