<?xml version="1.0" standalone="no"?>
<!DOCTYPE svg PUBLIC "-//W3C//DTD SVG 20010904//EN"
 "http://www.w3.org/TR/2001/REC-SVG-20010904/DTD/svg10.dtd">
<svg version="1.0" xmlns="http://www.w3.org/2000/svg"
 width="500.000000pt" height="500.000000pt" viewBox="0 0 500.000000 500.000000"
 preserveAspectRatio="xMidYMid meet">

<g transform="translate(0.000000,500.000000) scale(0.100000,-0.100000)"
fill="#000000" stroke="none">
<path d="M1238 3249 l-3 -1502 -332 2 -333 2 0 -240 0 -241 333 -2 332 -3 3
-522 2 -523 923 0 c938 0 1008 3 1209 40 483 91 842 392 987 827 53 162 66
247 66 463 0 206 -8 267 -51 417 -118 408 -445 703 -905 817 -186 46 -231 49
-978 55 l-714 6 -1 707 c0 389 2 710 6 713 4 4 496 7 1095 8 l1088 2 0 235 0
235 -1362 3 -1363 2 -2 -1501z m1747 -888 c206 -12 302 -30 422 -80 203 -84
382 -266 453 -460 123 -336 -15 -747 -323 -959 -128 -88 -217 -125 -385 -159
-78 -16 -154 -18 -727 -18 l-640 0 -8 278 c-5 153 -6 284 -3 292 5 13 85 15
581 15 l575 0 -2 238 -3 237 -315 -4 c-173 -2 -430 0 -571 4 l-257 8 -4 296
c-2 163 -3 301 -1 306 5 14 972 19 1208 6z"/>
</g>
</svg>
