<?xml version="1.0" encoding="UTF-8"?>
<!-- Generator: visioncortex VTracer 0.6.12 -->
<svg version="1.1" xmlns="http://www.w3.org/2000/svg" width="500" height="500">
<path d="M0,0 L5,1 L40,17 L76,33 L93,41 L93,152 L90,153 L90,163 L109,155 L115,156 L118,161 L118,168 L114,172 L91,182 L90,191 L85,196 L65,205 L63,205 L62,216 L57,230 L49,241 L41,248 L32,252 L23,252 L7,245 L0,237 L-1,235 L-38,252 L-76,269 L-99,279 L-102,279 L-102,286 L-106,300 L-112,310 L-120,319 L-128,324 L-133,326 L-144,326 L-157,321 L-165,314 L-166,310 L-176,315 L-179,319 L-184,321 L-191,322 L-201,320 L-224,309 L-288,277 L-291,274 L-291,255 L-287,251 L-280,248 L-278,200 L-258,191 L-250,187 L-237,162 L-228,146 L-223,142 L-201,132 L-185,125 L-174,122 L-169,122 L-169,77 L-166,74 L-126,56 L-90,40 L-54,24 L-18,8 Z M-1,5 L-30,18 L-75,38 L-111,54 L-140,67 L-160,76 L-160,79 L-124,95 L-98,107 L-77,116 L-39,99 L-3,83 L31,68 L60,55 L85,44 L84,41 L57,29 L26,15 L4,5 Z M88,46 L70,54 L55,61 L28,73 L1,85 L-33,100 L-62,113 L-74,119 L-75,141 L-75,222 L-66,219 L-33,204 L-8,193 L15,183 L30,176 L49,168 L64,161 L84,152 L89,149 L89,46 Z M-165,81 L-165,122 L-150,127 L-123,139 L-107,147 L-98,153 L-92,160 L-91,165 L-90,194 L-87,202 L-86,203 L-85,219 L-81,222 L-79,222 L-78,120 L-94,112 L-130,96 L-163,81 Z M-172,126 L-183,129 L-204,138 L-222,146 L-222,150 L-217,154 L-201,163 L-180,172 L-158,179 L-150,180 L-150,178 L-146,176 L-126,167 L-107,159 L-101,157 L-103,153 L-117,145 L-151,130 L-160,127 L-165,126 Z M-227,152 L-241,178 L-247,189 L-245,193 L-237,200 L-222,209 L-201,218 L-182,224 L-168,227 L-164,218 L-153,186 L-153,184 L-172,178 L-191,171 L-212,161 L-222,154 Z M85,155 L43,174 L18,185 L-3,194 L-18,201 L-47,214 L-72,225 L-78,227 L-85,224 L-85,268 L-64,259 L-24,241 L7,227 L9,220 L13,207 L19,197 L20,194 L22,194 L27,189 L34,184 L39,182 L47,181 L55,183 L61,188 L65,197 L66,199 L71,198 L85,191 L86,190 L86,155 Z M110,159 L92,167 L90,168 L90,177 L95,176 L113,168 L114,167 L113,160 Z M-99,160 L-111,164 L-143,178 L-148,183 L-153,195 L-165,230 L-175,240 L-173,241 L-146,229 L-116,216 L-91,205 L-90,203 L-93,196 L-94,164 L-96,160 Z M38,187 L30,191 L22,199 L16,209 L13,219 L13,234 L18,244 L22,247 L31,248 L39,245 L49,236 L55,226 L59,212 L59,204 L56,195 L51,189 L47,187 Z M-252,193 L-270,201 L-270,204 L-241,218 L-222,227 L-206,235 L-187,244 L-183,243 L-171,231 L-174,229 L-197,223 L-221,213 L-237,204 L-246,197 L-249,193 Z M-274,206 L-275,207 L-275,263 L-231,285 L-208,296 L-197,301 L-186,301 L-186,249 L-190,246 L-213,235 L-248,218 L-273,206 Z M-90,208 L-119,221 L-149,234 L-181,248 L-182,249 L-182,299 L-177,299 L-176,309 L-167,306 L-162,303 L-158,285 L-152,273 L-141,261 L-131,255 L-124,253 L-113,253 L-107,256 L-102,262 L-100,267 L-99,273 L-93,272 L-89,270 L-89,208 Z M8,230 L4,232 L5,237 L10,242 L12,241 L9,230 Z M-282,253 L-286,255 L-285,258 L-279,260 L-279,253 Z M-114,257 Z M-112,258 Z M-110,259 Z M-125,260 L-133,263 L-142,270 L-149,280 L-153,290 L-154,295 L-154,307 L-150,317 L-145,321 L-142,322 L-134,322 L-127,319 L-122,316 L-122,314 L-118,312 L-111,301 L-107,291 L-106,287 L-106,274 L-110,266 L-116,261 Z M-109,260 Z M-287,261 L-287,273 L-201,316 L-197,317 L-186,317 L-181,315 L-180,304 L-194,305 L-205,301 L-224,292 L-240,284 L-286,261 Z M-108,261 Z M-107,262 L-106,265 L-106,262 Z M-105,265 L-104,267 Z M-160,306 L-163,308 L-161,313 L-156,317 L-155,315 L-158,306 Z " fill="#000000" transform="translate(331,69)"/>
<path d="M0,0 L5,1 L6,33 L2,37 L-34,53 L-43,57 L-48,57 L-49,52 L-37,18 L-34,15 Z M-1,5 L-20,13 L-32,19 L-35,24 L-44,49 L-44,52 L-35,49 L-4,35 L2,32 L1,5 Z " fill="#000000" transform="translate(225,237)"/>
<path d="M0,0 L9,0 L14,6 L15,8 L15,18 L11,28 L3,36 L0,37 L-7,37 L-12,33 L-14,26 L-13,17 L-8,7 Z M2,4 L-3,7 L-7,12 L-10,20 L-9,29 L-5,33 L2,32 L9,24 L11,19 L11,9 L7,4 Z " fill="#000000" transform="translate(366,268)"/>
<path d="M0,0 L7,1 L12,6 L15,12 L15,21 L11,26 L5,26 L-1,22 L-5,15 L-5,5 Z M0,5 L-2,8 L-1,15 L2,20 L8,22 L11,20 L12,15 L9,8 L6,5 Z " fill="#000000" transform="translate(65,308)"/>
<path d="M0,0 L7,0 L13,4 L17,12 L17,19 L14,24 L13,25 L5,25 L-1,20 L-4,14 L-4,5 Z M2,4 L0,6 L0,15 L4,20 L11,21 L13,19 L13,11 L9,5 Z " fill="#000000" transform="translate(122,337)"/>
<path d="M0,0 L7,0 L12,4 L14,8 L14,19 L8,31 L1,37 L-1,38 L-9,38 L-14,34 L-16,29 L-16,21 L-13,12 L-4,2 Z M1,4 L-5,8 L-9,13 L-12,20 L-12,28 L-9,33 L-8,34 L-2,34 L4,30 L10,20 L10,9 L5,4 Z " fill="#000000" transform="translate(202,341)"/>
</svg>
