<?xml version="1.0" encoding="UTF-8"?>
<!-- Generator: visioncortex VTracer 0.6.12 -->
<svg version="1.1" xmlns="http://www.w3.org/2000/svg" width="500" height="500">
<path d="M0,0 L6,0 L12,4 L15,2 L22,2 L27,8 L27,10 L37,8 L39,12 L36,20 L35,31 L35,43 L32,52 L25,60 L20,63 L9,65 L7,77 L6,88 L11,83 L19,76 L28,71 L44,67 L57,67 L56,76 L52,85 L46,95 L42,100 L32,108 L21,113 L12,115 L4,115 L4,117 L20,119 L32,123 L39,128 L41,134 L38,140 L33,146 L26,160 L23,173 L23,195 L27,208 L29,211 L33,205 L40,199 L48,196 L59,196 L69,200 L76,207 L79,213 L80,218 L80,230 L77,246 L72,267 L75,272 L74,279 L71,281 L68,281 L72,297 L73,306 L73,328 L70,347 L64,367 L55,388 L46,405 L40,415 L41,422 L38,429 L32,434 L20,439 L10,441 L-14,441 L-28,438 L-37,434 L-44,429 L-46,425 L-46,413 L-54,400 L-64,381 L-72,360 L-76,345 L-78,332 L-78,303 L-75,288 L-73,281 L-78,280 L-80,277 L-79,270 L-77,268 L-79,257 L-85,232 L-85,217 L-81,207 L-74,200 L-64,196 L-53,196 L-45,199 L-37,206 L-34,211 L-30,203 L-27,186 L-28,173 L-32,158 L-40,143 L-46,136 L-45,129 L-39,124 L-25,119 L-13,117 L-8,117 L-8,105 L-24,102 L-33,98 L-44,90 L-52,80 L-60,64 L-61,55 L-48,55 L-34,58 L-20,65 L-13,71 L-7,79 L-6,78 L-4,63 L-12,61 L-18,57 L-23,50 L-25,44 L-25,32 L-21,22 L-19,4 L-16,3 L-10,6 L-6,5 Z M2,4 L-5,10 L-1,16 L3,14 L8,10 L6,6 Z M17,6 L12,11 L18,18 L23,14 L22,9 L20,6 Z M-14,9 L-17,24 L-20,31 L-20,45 L-17,51 L-12,56 L-10,55 L-11,51 L-11,37 L-8,28 L-4,21 L-6,16 L-10,11 Z M30,14 L22,20 L21,25 L23,33 L23,44 L20,54 L18,58 L23,56 L29,47 L31,40 L31,22 L33,14 Z M7,15 L-1,23 L-7,35 L-8,40 L-8,49 L-5,57 L0,61 L7,61 L12,58 L18,50 L19,46 L19,30 L15,21 L10,15 Z M-56,59 L-53,69 L-46,81 L-36,91 L-25,97 L-18,99 L-10,99 L-14,92 L-21,84 L-33,75 L-39,72 L-41,72 L-41,68 L-31,72 L-19,81 L-12,88 L-8,94 L-7,94 L-7,88 L-14,77 L-24,68 L-34,63 L-44,60 Z M0,65 L-2,79 L-3,89 L-4,114 L-4,140 L-3,146 L0,146 L1,103 L3,75 L3,66 Z M48,71 L34,74 L25,78 L14,86 L7,96 L5,99 L5,105 L10,100 L17,92 L29,83 L37,80 L37,84 L31,86 L18,96 L9,107 L8,110 L18,109 L28,105 L37,98 L45,89 L51,77 L52,71 Z M-17,122 L-32,126 L-40,131 L-41,135 L-35,140 L-24,144 L-8,146 L-8,122 Z M4,122 L4,143 L5,146 L19,144 L32,139 L36,135 L35,131 L29,127 L16,123 Z M-32,146 L-26,161 L-24,169 L-23,178 L-23,189 L-25,203 L-30,215 L-37,228 L-44,236 L-55,254 L-63,270 L-69,285 L-72,297 L-73,305 L-73,330 L-71,343 L-64,368 L-57,384 L-44,407 L-40,413 L-41,424 L-36,429 L-28,433 L-14,436 L10,436 L26,432 L32,428 L36,424 L36,418 L35,413 L43,400 L51,385 L59,366 L64,351 L68,329 L68,305 L64,285 L60,276 L55,264 L48,251 L36,232 L30,225 L24,214 L20,204 L18,194 L18,175 L20,164 L26,149 L26,147 L14,149 L3,150 L-18,149 Z M26,146 Z M-64,201 L-72,204 L-78,211 L-80,217 L-80,233 L-74,259 L-73,262 L-73,271 L-76,274 L-73,277 L-69,275 L-67,272 L-67,259 L-72,237 L-73,227 L-71,217 L-66,211 L-60,209 L-51,210 L-47,212 L-44,218 L-45,222 L-47,226 L-42,227 L-38,223 L-37,216 L-41,208 L-47,203 L-52,201 Z M48,201 L40,204 L34,211 L32,216 L33,223 L37,227 L42,226 L40,222 L39,218 L40,213 L44,211 L50,209 L59,210 L64,213 L67,219 L68,230 L66,244 L62,260 L62,271 L65,276 L70,276 L71,274 L68,271 L68,264 L75,234 L75,216 L71,208 L63,202 L59,201 Z M-62,213 L-67,217 L-69,223 L-69,232 L-66,249 L-63,258 L-60,254 L-49,236 L-47,231 L-50,230 L-51,224 L-50,220 L-48,220 L-49,216 L-53,213 Z M47,213 L43,217 L45,222 L45,230 L41,232 L52,249 L57,258 L59,258 L64,237 L64,221 L60,215 L57,213 Z " fill="#000000" transform="translate(254,25)"/>
</svg>
