<?xml version="1.0" encoding="UTF-8"?>
<!-- Generator: visioncortex VTracer 0.6.12 -->
<svg version="1.1" xmlns="http://www.w3.org/2000/svg" width="500" height="500">
<path d="M0,0 L7,0 L23,8 L50,22 L72,34 L107,52 L126,62 L154,77 L183,92 L193,98 L196,103 L196,115 L194,118 L193,214 L192,345 L191,366 L186,370 L182,372 L175,371 L167,366 L162,348 L156,350 L131,363 L109,375 L86,387 L64,399 L54,404 L48,436 L45,441 L37,445 L31,444 L23,439 L21,432 L17,408 L17,403 L12,401 L-21,384 L-43,372 L-69,359 L-88,349 L-123,331 L-125,330 L-130,347 L-140,353 L-146,353 L-155,347 L-156,320 L-157,313 L-158,312 L-158,155 L-156,150 L-158,147 L-159,88 L-154,83 L-120,65 L-98,53 L-76,41 L-52,28 L-28,15 L-4,2 Z M1,4 L-27,19 L-53,33 L-75,45 L-99,58 L-121,70 L-145,83 L-150,87 L-148,91 L-113,109 L-80,126 L-51,141 L-22,156 L-3,166 L25,181 L33,185 L40,185 L64,172 L87,159 L116,143 L143,128 L172,112 L186,104 L187,101 L183,97 L156,83 L137,73 L109,58 L78,42 L56,30 L36,20 L14,8 L6,4 Z M-155,89 L-155,99 L-136,109 L-109,123 L-70,143 L-43,157 L-20,169 L-1,179 L22,191 L35,198 L42,197 L70,182 L88,172 L115,157 L144,141 L173,125 L191,115 L192,114 L192,104 L189,105 L186,108 L157,124 L133,137 L112,149 L88,162 L67,174 L42,188 L32,188 L8,176 L-11,166 L-39,151 L-59,141 L-78,131 L-107,116 L-148,95 L-153,90 Z M-154,105 L-154,146 L-136,156 L-114,167 L-95,177 L-48,201 L-25,213 L8,230 L29,241 L34,241 L35,239 L35,202 L12,190 L-7,180 L-29,168 L-45,160 L-82,141 L-101,131 L-130,116 L-151,105 Z M187,121 L163,134 L147,143 L118,159 L93,173 L69,186 L51,196 L50,278 L50,401 L66,393 L93,379 L115,367 L138,355 L160,343 L187,329 L188,328 L188,121 Z M-152,153 L-154,155 L-154,256 L-150,261 L-126,273 L-107,283 L-85,294 L-66,304 L-25,325 L-6,335 L23,350 L28,353 L33,352 L34,350 L34,250 L30,245 L-2,229 L-21,219 L-54,202 L-89,184 L-116,170 L-149,153 Z M45,199 L39,202 L39,241 L45,239 L47,232 L47,199 Z M38,241 Z M44,243 L37,247 L38,352 L46,348 L46,243 Z M-154,266 L-154,310 L-135,320 L-96,340 L-51,363 L-32,373 L-9,385 L13,397 L32,407 L34,407 L34,363 L24,357 L-3,343 L-22,333 L-49,319 L-82,302 L-115,285 L-141,272 L-152,266 Z M-151,316 L-151,345 L-144,349 L-139,322 Z M-135,324 L-137,330 L-140,347 L-134,345 L-131,336 L-130,327 Z M186,333 L177,338 L178,351 L181,367 L186,365 L187,364 L188,333 Z M171,341 L166,344 L169,359 L171,364 L177,366 L173,341 Z M44,353 L43,355 L45,355 Z M41,355 Z M39,356 Z M37,357 L35,359 L39,358 Z M45,359 L38,363 L38,407 L46,403 L46,359 Z M22,406 L23,418 L26,436 L32,440 L33,440 L33,412 L25,407 Z M46,407 L38,412 L37,428 L37,439 L42,438 L44,435 L48,413 L48,407 Z " fill="#000000" transform="translate(233,26)"/>
<path d="M0,0 L22,0 L39,4 L50,10 L57,17 L60,24 L60,32 L56,40 L47,48 L36,53 L24,56 L7,57 L-8,55 L-20,51 L-29,46 L-36,39 L-39,32 L-39,23 L-35,15 L-26,8 L-18,4 L-7,1 Z M0,4 L-14,7 L-28,14 L-33,20 L-35,24 L-35,31 L-32,37 L-27,42 L-19,47 L-8,51 L6,53 L15,53 L28,51 L40,47 L49,41 L55,34 L56,25 L53,19 L44,11 L31,6 L21,4 Z " fill="#000000" transform="translate(226,44)"/>
<path d="M0,0 L7,0 L12,2 L12,6 L7,5 L0,5 L-4,6 L-4,2 Z " fill="#000000" transform="translate(233,50)"/>
<path d="M0,0 L4,2 L6,7 L2,8 L0,6 L2,11 L-2,12 L-6,9 L-7,13 L-9,12 L-9,7 L-1,1 Z " fill="#000000" transform="translate(212,53)"/>
<path d="M0,0 L4,4 L4,6 L9,7 L10,12 L6,12 L6,10 L3,12 L-1,11 L1,6 L-4,9 L-5,5 Z " fill="#000000" transform="translate(261,53)"/>
<path d="M0,0 L15,0 L24,4 L28,9 L28,17 L24,22 L11,27 L11,29 L15,28 L18,32 L18,35 L15,36 L13,33 L9,33 L9,30 L7,30 L7,33 L2,32 L1,36 L-1,35 L-1,30 L3,28 L5,27 L-7,23 L-12,19 L-14,14 L-13,8 L-8,3 Z M0,4 L-6,7 L-9,10 L-9,16 L-4,20 L3,22 L13,22 L22,18 L24,16 L24,10 L18,5 L15,4 Z " fill="#000000" transform="translate(229,58)"/>
<path d="M0,0 L6,0 L6,3 L0,6 L-2,10 L-5,10 L-4,3 Z " fill="#000000" transform="translate(205,70)"/>
<path d="M0,0 L7,1 L11,6 L11,10 L7,10 L6,6 L0,3 Z " fill="#000000" transform="translate(262,70)"/>
<path d="M0,0 L3,3 L1,6 L0,11 L-4,10 L-3,3 Z " fill="#000000" transform="translate(214,78)"/>
<path d="M0,0 L5,1 L7,4 L7,9 L3,10 L1,4 Z " fill="#000000" transform="translate(256,80)"/>
<path d="M0,0 L20,0 L34,3 L46,8 L54,14 L59,21 L60,24 L60,32 L57,39 L52,45 L42,51 L31,55 L20,57 L0,57 L-16,53 L-28,47 L-33,43 L-38,34 L-39,26 L-35,16 L-27,9 L-17,4 Z M1,4 L-13,7 L-27,14 L-33,21 L-35,28 L-32,37 L-27,42 L-18,48 L-5,52 L1,53 L20,53 L37,49 L48,43 L54,36 L56,31 L55,22 L48,14 L36,8 L25,5 L19,4 Z " fill="#000000" transform="translate(153,84)"/>
<path d="M0,0 L9,1 L11,3 L11,6 L0,5 L-5,6 L-5,2 Z " fill="#000000" transform="translate(161,90)"/>
<path d="M0,0 L5,1 L7,7 L3,7 L3,5 L1,7 L3,11 L-3,10 L-5,9 L-5,12 L-8,11 L-8,6 L-2,3 Z " fill="#000000" transform="translate(138,94)"/>
<path d="M0,0 L3,0 L5,5 L9,6 L11,11 L7,12 L6,10 L1,11 L1,8 L2,5 L-2,8 L-4,8 L-3,3 Z " fill="#000000" transform="translate(187,94)"/>
<path d="M0,0 L13,0 L23,4 L27,9 L28,15 L25,20 L20,24 L14,26 L10,26 L10,29 L15,29 L17,32 L16,36 L12,34 L9,34 L7,31 L5,34 L1,33 L1,36 L-2,36 L-1,29 L4,29 L4,27 L-6,24 L-12,20 L-14,17 L-14,9 L-10,4 Z M1,4 L-7,7 L-10,11 L-9,17 L-3,21 L0,22 L13,22 L20,19 L24,14 L22,9 L16,5 L12,4 Z " fill="#000000" transform="translate(157,98)"/>
<path d="M0,0 L20,2 L35,7 L45,14 L50,21 L51,24 L51,33 L47,41 L38,49 L27,54 L13,57 L-8,57 L-24,53 L-38,46 L-45,38 L-47,33 L-47,23 L-41,14 L-33,8 L-21,3 L-11,1 Z M-11,5 L-23,8 L-33,13 L-40,19 L-43,25 L-43,32 L-39,39 L-32,45 L-21,50 L-8,53 L13,53 L26,50 L38,44 L46,35 L47,32 L47,25 L43,18 L35,12 L23,7 L14,5 Z " fill="#000000" transform="translate(338,97)"/>
<path d="M0,0 L10,0 L14,3 L13,6 L9,5 L1,5 L-3,6 L-3,2 Z " fill="#000000" transform="translate(335,104)"/>
<path d="M0,0 L4,1 L6,4 L6,8 L2,6 L0,5 L0,8 L2,8 L1,12 L-3,10 L-5,9 L-5,12 L-9,11 L-8,6 L-3,5 L-1,1 Z " fill="#000000" transform="translate(315,107)"/>
<path d="M0,0 L4,2 L6,5 L11,8 L10,13 L8,13 L7,11 L1,12 L2,7 L0,7 L-4,8 L-3,4 Z " fill="#000000" transform="translate(363,107)"/>
<path d="M0,0 L4,0 L4,4 L-1,6 L-4,11 L-7,9 L-5,3 Z " fill="#000000" transform="translate(134,110)"/>
<path d="M0,0 L7,2 L10,6 L9,11 L6,10 L4,6 L-1,4 Z " fill="#000000" transform="translate(190,110)"/>
<path d="M0,0 L13,2 L20,6 L23,11 L22,19 L16,24 L7,27 L5,27 L7,29 L11,30 L12,36 L8,35 L4,34 L2,32 L1,34 L-3,35 L-7,36 L-6,30 L-1,28 L-13,23 L-18,18 L-19,16 L-19,10 L-14,4 L-7,1 Z M0,4 L-8,6 L-13,9 L-15,12 L-14,17 L-9,21 L-2,23 L6,23 L15,20 L19,15 L18,10 L12,6 L4,4 Z " fill="#000000" transform="translate(338,111)"/>
<path d="M0,0 L4,0 L3,4 L1,11 L-2,10 L-3,6 Z " fill="#000000" transform="translate(140,119)"/>
<path d="M0,0 L4,2 L6,4 L6,9 L2,10 L0,4 Z " fill="#000000" transform="translate(184,120)"/>
<path d="M0,0 L5,1 L4,4 L-1,6 L-4,11 L-6,10 L-6,5 L-2,1 Z " fill="#000000" transform="translate(310,123)"/>
<path d="M0,0 L7,1 L11,5 L11,10 L7,9 L5,5 L0,3 Z " fill="#000000" transform="translate(365,124)"/>
<path d="M0,0 L3,0 L2,5 L1,11 L-3,10 L-3,4 Z " fill="#000000" transform="translate(317,132)"/>
<path d="M0,0 L6,1 L7,3 L7,9 L3,9 L1,3 Z " fill="#000000" transform="translate(359,134)"/>
<path d="M0,0 L24,0 L40,4 L52,10 L57,14 L62,23 L62,32 L58,40 L49,48 L38,53 L24,56 L2,56 L-14,52 L-26,46 L-32,41 L-36,34 L-37,25 L-34,17 L-27,10 L-13,3 Z M0,4 L-12,7 L-24,13 L-32,22 L-32,33 L-26,41 L-16,47 L-4,51 L2,52 L24,52 L37,49 L47,44 L56,36 L58,31 L57,22 L52,15 L42,9 L29,5 L24,4 Z " fill="#000000" transform="translate(254,137)"/>
<path d="M0,0 L8,0 L12,2 L13,5 L9,6 L8,5 L0,5 L-4,6 L-5,3 Z " fill="#000000" transform="translate(263,143)"/>
<path d="M0,0 L3,0 L6,5 L6,8 L2,7 L2,5 L0,5 L2,11 L-1,12 L-4,10 L-6,12 L-9,12 L-9,7 L-5,5 Z " fill="#000000" transform="translate(242,146)"/>
<path d="M0,0 L5,5 L9,7 L10,12 L6,12 L6,10 L3,12 L0,12 L1,7 L-1,7 L-5,8 L-4,4 Z " fill="#000000" transform="translate(291,146)"/>
<path d="M0,0 L9,0 L15,3 L20,10 L22,16 L22,23 L19,29 L13,32 L7,31 L-2,27 L-6,21 L-6,8 L-3,2 Z M2,4 L-1,8 L8,8 L10,5 L8,4 Z M10,6 L11,9 L11,13 L12,16 L12,24 L11,28 L16,26 L18,22 L17,13 L12,6 Z M1,11 L-3,15 L-2,21 L2,25 L7,25 L9,23 L9,16 L5,16 L4,19 L1,19 L3,14 L3,11 Z " fill="#000000" transform="translate(100,150)"/>
<path d="M0,0 L13,2 L21,7 L23,11 L22,19 L16,24 L6,27 L7,29 L11,30 L12,35 L8,35 L3,33 L2,32 L1,34 L-4,33 L-4,36 L-7,36 L-7,31 L-5,29 L-1,27 L-10,25 L-16,21 L-19,17 L-19,10 L-14,4 L-7,1 Z M-1,4 L-11,7 L-15,11 L-15,16 L-9,21 L-2,23 L6,23 L15,20 L19,15 L18,10 L12,6 L4,4 Z " fill="#000000" transform="translate(265,150)"/>
<path d="M0,0 L6,0 L6,3 L0,6 L-2,10 L-5,9 L-4,4 Z " fill="#000000" transform="translate(235,163)"/>
<path d="M0,0 L7,1 L11,6 L11,10 L7,9 L5,5 L0,3 Z " fill="#000000" transform="translate(292,163)"/>
<path d="M0,0 L8,1 L14,5 L18,10 L20,15 L20,25 L16,31 L14,32 L6,32 L-3,28 L-7,23 L-8,20 L-7,7 L-4,2 Z M2,4 L-2,6 L-2,8 L6,10 L10,15 L11,23 L9,28 L14,27 L16,24 L16,15 L12,8 L5,4 Z M-1,12 L-4,15 L-3,22 L1,26 L6,25 L8,22 L7,16 L4,16 L3,19 L0,18 L2,12 Z " fill="#000000" transform="translate(141,170)"/>
<path d="M0,0 L3,1 L1,8 L0,11 L-3,11 L-4,6 L-1,1 Z " fill="#000000" transform="translate(244,171)"/>
<path d="M0,0 L5,1 L7,3 L7,9 L3,9 L2,4 L0,3 Z " fill="#000000" transform="translate(286,173)"/>
<path d="M0,0 L7,0 L15,5 L20,14 L20,25 L15,31 L13,32 L4,31 L-4,27 L-8,20 L-7,7 L-3,1 Z M1,4 L-2,6 L-2,8 L5,9 L8,5 Z M9,6 Z M10,7 L8,12 L11,18 L10,26 L9,28 L13,27 L16,24 L16,15 L12,8 Z M-2,12 L-4,15 L-3,22 L2,26 L6,25 L8,22 L7,16 L6,14 L4,14 L3,18 L1,18 L1,12 Z " fill="#000000" transform="translate(189,195)"/>
<path d="M0,0 L7,0 L15,5 L20,14 L20,25 L17,30 L13,32 L4,31 L-4,27 L-7,23 L-8,20 L-8,13 L-5,4 Z M2,4 L-2,8 L5,9 L9,8 L8,12 L11,18 L10,26 L9,28 L13,27 L16,24 L16,14 L10,6 L6,4 Z M-1,12 L-4,14 L-4,20 L1,26 L6,25 L8,22 L7,16 L6,14 L4,14 L3,18 L1,18 L0,12 Z " fill="#000000" transform="translate(228,215)"/>
<path d="M0,0 L5,1 L7,8 L39,24 L47,23 L49,24 L50,31 L45,36 L42,38 L35,37 L-5,17 L-8,15 L-9,10 L-7,4 Z M1,4 L2,6 Z M-4,8 L-3,13 L20,25 L38,34 L44,32 L46,30 L46,27 L37,28 L22,20 L6,12 L-2,8 Z " fill="#000000" transform="translate(151,220)"/>
<path d="M0,0 L6,0 L34,14 L43,19 L45,23 L44,29 L41,32 L35,33 L-1,15 L-4,11 L-4,4 Z M1,4 L0,5 L0,10 L16,19 L36,29 L40,28 L41,24 L38,21 L5,4 Z " fill="#000000" transform="translate(153,338)"/>
</svg>
