<?xml version="1.0" encoding="UTF-8"?>
<!-- Generator: visioncortex VTracer 0.6.12 -->
<svg version="1.1" xmlns="http://www.w3.org/2000/svg" width="500" height="500">
<path d="M0,0 L10,0 L13,2 L15,7 L20,12 L21,13 L21,25 L17,32 L16,37 L20,41 L21,47 L18,51 L16,51 L17,74 L25,67 L36,63 L42,61 L44,58 L46,58 L48,54 L53,42 L56,34 L60,32 L66,33 L69,37 L69,44 L64,57 L61,61 L62,71 L59,74 L51,76 L39,78 L31,82 L27,88 L26,91 L26,101 L30,110 L36,115 L50,121 L56,121 L62,116 L66,110 L70,108 L75,109 L78,112 L78,119 L73,127 L64,135 L54,137 L44,135 L28,128 L19,121 L18,118 L16,118 L17,158 L18,159 L18,166 L17,167 L17,174 L22,204 L27,250 L27,257 L22,261 L16,262 L17,380 L35,384 L45,388 L53,394 L57,398 L63,401 L64,402 L64,408 L61,416 L59,424 L55,430 L49,435 L51,439 L56,444 L56,446 L58,446 L65,454 L69,459 L68,465 L63,472 L57,473 L52,470 L51,463 L32,449 L26,445 L17,446 L-7,446 L-16,445 L-31,457 L-40,464 L-41,471 L-44,473 L-51,473 L-54,470 L-57,465 L-57,458 L-42,442 L-38,437 L-45,431 L-50,423 L-51,419 L-57,417 L-59,415 L-61,404 L-57,399 L-50,398 L-46,397 L-38,390 L-26,384 L-14,381 L-7,380 L-7,299 L-26,308 L-53,317 L-69,320 L-78,320 L-83,318 L-84,317 L-84,307 L-83,296 L-88,298 L-95,298 L-103,295 L-105,293 L-104,280 L-99,243 L-94,214 L-93,212 L-102,216 L-108,215 L-111,212 L-110,205 L-103,197 L-92,188 L-78,176 L-63,163 L-56,155 L-49,146 L-46,146 L-46,137 L-54,138 L-60,130 L-67,121 L-68,113 L-65,109 L-59,108 L-55,110 L-52,115 L-52,117 L-43,115 L-36,118 L-30,117 L-22,112 L-20,112 L-18,107 L-16,102 L-16,90 L-20,83 L-26,79 L-33,77 L-47,75 L-52,70 L-51,61 L-56,53 L-59,42 L-58,35 L-53,32 L-48,33 L-44,37 L-40,50 L-32,61 L-26,63 L-15,67 L-7,74 L-7,51 L-10,48 L-10,41 L-5,35 L-10,27 L-11,23 L-11,15 L-8,10 L-4,7 L-2,2 Z M1,3 L1,6 L8,7 L10,6 L9,3 Z M-1,9 L1,11 L9,11 L11,9 Z M-5,11 L-8,15 L-6,19 L2,22 L12,21 L18,17 L17,13 L13,11 L9,13 L1,13 Z M-8,21 L-7,26 L-3,32 L1,34 L9,34 L14,31 L18,25 L17,21 L8,24 L-2,23 Z M-53,35 L-56,38 L-55,46 L-50,58 L-47,61 L-36,62 L-38,58 L-43,51 L-48,36 Z M61,35 L57,38 L53,51 L48,58 L48,60 L46,60 L46,62 L57,61 L61,56 L65,47 L66,37 Z M-1,36 L-3,39 L2,42 L11,41 L13,40 L12,36 Z M-6,41 L-7,42 L-7,47 L-1,51 L11,51 L16,48 L18,46 L17,42 L14,42 L9,44 L2,44 Z M-3,53 L-3,81 L0,92 L0,99 L-3,110 L-3,409 L1,412 L9,412 L13,410 L13,110 L11,104 L11,88 L13,82 L13,53 Z M-47,64 L-49,69 L-46,72 L-28,75 L-20,79 L-15,85 L-13,90 L-13,102 L-16,110 L-20,115 L-33,122 L-32,130 L-27,129 L-17,124 L-10,118 L-5,110 L-2,100 L-2,92 L-5,82 L-11,74 L-16,70 L-26,66 L-40,64 Z M50,64 L36,66 L26,70 L18,77 L14,85 L13,88 L13,103 L17,113 L24,121 L29,125 L42,131 L53,134 L63,132 L71,125 L75,118 L75,113 L70,111 L66,115 L61,122 L57,124 L50,124 L35,118 L27,111 L24,105 L23,101 L23,91 L26,84 L31,78 L38,75 L56,72 L59,70 L58,65 L57,64 Z M-62,111 L-65,114 L-64,120 L-58,128 L-50,133 L-44,134 L-41,133 L-40,128 L-42,125 L-49,123 L-55,116 L-60,111 Z M-46,118 L-48,119 L-48,121 L-40,124 L-38,128 L-39,134 L-43,138 L-43,146 L-41,146 L-39,139 L-35,134 L-34,128 L-37,122 L-40,119 Z M-8,118 L-13,124 L-24,130 L-33,134 L-36,139 L-38,142 L-32,144 L-25,149 L-14,151 L-6,152 L-6,118 Z M-38,145 L-39,149 L-46,148 L-51,153 L-58,162 L-66,170 L-77,179 L-88,189 L-99,198 L-107,205 L-108,211 L-104,211 L-97,203 L-88,196 L-88,194 L-84,192 L-73,182 L-62,173 L-51,163 L-42,156 L-33,156 L-12,159 L-6,159 L-6,155 L-14,153 L-25,151 L-34,145 Z M-41,158 L-42,160 L-37,159 Z M-34,159 L-51,166 L-62,176 L-64,177 L-64,179 L-68,181 L-79,191 L-87,198 L-85,199 L-45,182 L-13,169 L-6,166 L-6,162 L-26,159 Z M-44,160 Z M-8,169 L-51,187 L-80,199 L-97,206 L-101,211 L-96,210 L-62,196 L-28,182 L-7,173 L-6,169 Z M-8,176 L-42,190 L-78,205 L-85,208 L-81,209 L-79,211 L-90,212 L-94,230 L-101,279 L-102,292 L-95,295 L-88,295 L-84,292 L-73,226 L-71,225 L-77,264 L-79,280 L-81,306 L-81,316 L-77,317 L-69,317 L-53,314 L-29,306 L-9,297 L-6,295 L-6,182 L-8,180 L-6,179 L-6,176 Z M16,194 L16,259 L23,257 L24,256 L23,240 L20,210 L17,194 Z M-13,384 L-28,388 L-39,394 L-46,402 L-47,410 L-43,418 L-35,425 L-23,430 L-10,433 L19,433 L35,429 L49,422 L55,415 L56,413 L56,403 L50,395 L40,389 L28,385 L23,384 L16,384 L15,411 L10,414 L1,414 L-4,412 L-5,410 L-6,384 Z M-54,401 L-58,404 L-56,408 L-50,410 L-49,409 L-49,402 Z M59,403 L59,407 L61,407 L61,403 Z M-56,412 L-55,415 L-50,415 L-50,413 Z M-47,418 L-46,424 L-39,432 L-30,437 L-18,441 L-7,443 L17,443 L35,439 L47,433 L54,427 L57,421 L56,418 L47,426 L36,431 L20,435 L-10,435 L-26,431 L-35,427 L-41,423 Z M-34,438 L-45,449 L-52,457 L-55,462 L-52,465 L-45,464 L-31,453 L-21,445 L-20,443 Z M43,438 L30,443 L34,447 L53,461 L60,465 L65,464 L66,460 L57,450 L49,442 L48,440 L46,440 L46,438 Z M55,466 L55,469 L60,470 L62,468 Z M-45,466 L-51,468 L-50,470 L-44,470 L-43,467 Z " fill="#000000" transform="translate(245,13)"/>
</svg>
