<?xml version="1.0" encoding="UTF-8"?>
<!-- Generator: visioncortex VTracer 0.6.12 -->
<svg version="1.1" xmlns="http://www.w3.org/2000/svg" width="340" height="340">
<path d="M0 0 C9.9 0 19.8 0 30 0 C34.29 0.99 38.58 1.98 43 3 C44.98 4.32 46.96 5.64 49 7 C49.165 7.33 49.165 7.33 50 9 C50 12.63 50 16.26 50 20 C48.845 21.485 48.845 21.485 43 29 C39.7 32.63 36.4 36.26 33 40 C30.69 40.99 28.38 41.98 26 43 C25.67 44.98 25.34 46.96 25 49 C23.68 49.33 22.36 49.66 21 50 C21.33 82.01 21.66 114.02 22 147 C22.99 147.99 23.98 148.98 25 150 C25 152.31 25 154.62 25 157 C26.65 157.33 28.3 157.66 30 158 C30.495 158.66 30.495 158.66 33 162 C33.33 162.99 33.66 163.98 34 165 C34 168.96 34 172.92 34 177 C36.31 177.33 38.62 177.66 41 178 C43.145 178.825 43.145 178.825 54 183 C57.96 185.31 61.92 187.62 66 190 C69.3 192.64 72.6 195.28 76 198 C78.31 200.31 80.62 202.62 83 205 C84.485 207.31 84.485 207.31 92 219 C93.98 223.29 95.96 227.58 98 232 C98.66 234.475 98.66 234.475 102 247 C102.33 249.31 102.66 251.62 103 254 C103 257.63 103 261.26 103 265 C101.68 266.65 100.36 268.3 99 270 C95.04 271.32 91.08 272.64 87 274 C81.39 274.99 75.78 275.98 70 277 C62.41 277.66 54.82 278.32 47 279 C40.4 279.33 33.8 279.66 27 280 C18.09 280 9.18 280 0 280 C-5.61 279.67 -5.61 279.67 -34 278 C-40.93 277.01 -47.86 276.02 -55 275 C-59.29 273.68 -63.58 272.36 -68 271 C-68.66 270.505 -68.66 270.505 -72 268 C-72 261.07 -72 254.14 -72 247 C-70.68 242.05 -69.36 237.1 -68 232 C-66.35 228.37 -64.7 224.74 -63 221 C-60.69 217.04 -58.38 213.08 -56 209 C-52.04 204.71 -48.08 200.42 -44 196 C-39.71 193.03 -35.42 190.06 -31 187 C-26.38 184.69 -21.76 182.38 -17 180 C-13.7 179.01 -10.4 178.02 -7 177 C-5.68 177 -4.36 177 -3 177 C-3 172.05 -3 167.1 -3 162 C-2.175 161.175 -2.175 161.175 2 157 C2.99 157 3.98 157 5 157 C5 155.02 5 153.04 5 151 C5.99 149.68 6.98 148.36 8 147 C8.66 147 9.32 147 10 147 C10 114.99 10 82.98 10 50 C9.34 49.835 9.34 49.835 6 49 C5.67 48.01 5.67 48.01 4 43 C2.845 42.505 2.845 42.505 -3 40 C-4.65 38.35 -6.3 36.7 -8 35 C-11.3 31.04 -14.6 27.08 -18 23 C-18.165 22.67 -18.165 22.67 -19 21 C-19.165 19.185 -19.165 19.185 -20 10 C-18.68 8.35 -17.36 6.7 -16 5 C-12.37 3.68 -8.74 2.36 -5 1 C-4.175 0.835 -4.175 0.835 0 0 Z M3 3 C-2.28 4.32 -7.56 5.64 -13 7 C-13.495 7.33 -13.495 7.33 -16 9 C-16 11.97 -16 14.94 -16 18 C-11.05 16.68 -6.1 15.36 -1 14 C0.485 13.835 0.485 13.835 8 13 C12.95 13 17.9 13 23 13 C27.62 13.66 32.24 14.32 37 15 C38.65 15.495 38.65 15.495 47 18 C47 15.36 47 12.72 47 10 C46.175 9.34 46.175 9.34 42 6 C37.38 5.01 32.76 4.02 28 3 C19.75 3 11.5 3 3 3 Z M3 16 C0.69 16.495 0.69 16.495 -11 19 C-11.495 19.33 -11.495 19.33 -14 21 C-13.34 22.65 -12.68 24.3 -12 26 C-8.7 29.63 -5.4 33.26 -2 37 C-0.02 37.66 1.96 38.32 4 39 C5.32 38.34 6.64 37.68 8 37 C12.62 37 17.24 37 22 37 C22.825 37.33 22.825 37.33 27 39 C28.155 38.34 28.155 38.34 34 35 C36.31 32.36 38.62 29.72 41 27 C41.99 26.01 42.98 25.02 44 24 C43.835 23.34 43.835 23.34 43 20 C40.03 19.01 37.06 18.02 34 17 C32.35 16.67 30.7 16.34 29 16 C20.42 16 11.84 16 3 16 Z M9 40 C8.67 40.33 8.34 40.66 8 41 C8 42.65 8 44.3 8 46 C12.62 46 17.24 46 22 46 C22 44.02 22 42.04 22 40 C17.71 40 13.42 40 9 40 Z M14 49 C13.67 80.68 13.34 112.36 13 145 C14.32 145.33 15.64 145.66 17 146 C17 114.32 17 82.64 17 50 C16.01 49.67 15.02 49.34 14 49 Z M10 150 C9.67 150.33 9.34 150.66 9 151 C9 152.65 9 154.3 9 156 C12.96 156 16.92 156 21 156 C21 154.02 21 152.04 21 150 C17.37 150 13.74 150 10 150 Z M8 159 C6.02 159.66 4.04 160.32 2 161 C1.67 161.495 1.67 161.495 0 164 C0 167.63 0 171.26 0 175 C6.6 175 13.2 175 20 175 C23.3 175.33 26.6 175.66 30 176 C30 171.71 30 167.42 30 163 C29.01 162.01 28.02 161.02 27 160 C25.68 159.67 24.36 159.34 23 159 C18.05 159 13.1 159 8 159 Z M6 178 C3.36 178.495 3.36 178.495 -10 181 C-14.29 182.65 -18.58 184.3 -23 186 C-24.98 187.155 -24.98 187.155 -35 193 C-38.63 195.97 -42.26 198.94 -46 202 C-48.97 205.63 -51.94 209.26 -55 213 C-57.31 216.96 -59.62 220.92 -62 225 C-63.65 229.62 -65.3 234.24 -67 239 C-67.66 242.3 -68.32 245.6 -69 249 C-69 250.65 -69 252.3 -69 254 C-63.225 253.175 -63.225 253.175 -34 249 C-23.11 248.34 -12.22 247.68 -1 247 C11.54 247 24.08 247 37 247 C47.56 247.66 58.12 248.32 69 249 C78.9 250.32 88.8 251.64 99 253 C98.67 249.7 98.34 246.4 98 243 C97.175 240.525 97.175 240.525 93 228 C90.36 223.05 87.72 218.1 85 213 C82.03 209.37 79.06 205.74 76 202 C71.38 198.37 66.76 194.74 62 191 C56.72 188.36 51.44 185.72 46 183 C41.38 181.68 36.76 180.36 32 179 C30.02 178.67 28.04 178.34 26 178 C19.4 178 12.8 178 6 178 Z M-15 250 C-20.28 250.495 -20.28 250.495 -47 253 C-52.61 253.99 -58.22 254.98 -64 256 C-65.65 256.66 -67.3 257.32 -69 258 C-69 259.65 -69 261.3 -69 263 C-61.08 261.68 -53.16 260.36 -45 259 C-40.71 258.67 -40.71 258.67 -19 257 C-15.205 256.835 -15.205 256.835 4 256 C12.25 256 20.5 256 29 256 C42.2 256.66 55.4 257.32 69 258 C72.96 258.495 72.96 258.495 93 261 C94.98 261.33 96.96 261.66 99 262 C99.33 260.68 99.66 259.36 100 258 C99.67 257.67 99.67 257.67 98 256 C92.72 255.01 87.44 254.02 82 253 C76.555 252.505 76.555 252.505 49 250 C27.88 250 6.76 250 -15 250 Z M0 259 C0.66 260.32 1.32 261.64 2 263 C3.32 264.32 4.64 265.64 6 267 C7.98 267.66 9.96 268.32 12 269 C14.31 269 16.62 269 19 269 C21.64 267.68 24.28 266.36 27 265 C28.32 263.68 29.64 262.36 31 261 C31 260.34 31 259.68 31 259 C20.77 259 10.54 259 0 259 Z M-12 259 C-24.21 259.99 -36.42 260.98 -49 262 C-54.61 262.99 -60.22 263.98 -66 265 C-66.66 265.66 -67.32 266.32 -68 267 C-66.02 267.99 -64.04 268.98 -62 270 C-54.41 271.32 -46.82 272.64 -39 274 C-30.42 274.66 -21.84 275.32 -13 276 C4.49 276 21.98 276 40 276 C45.61 275.505 45.61 275.505 74 273 C80.6 271.68 87.2 270.36 94 269 C95.32 268.34 96.64 267.68 98 267 C97.67 266.34 97.34 265.68 97 265 C92.38 264.01 87.76 263.02 83 262 C77.06 261.505 77.06 261.505 47 259 C43.04 259 39.08 259 35 259 C33.68 260.98 32.36 262.96 31 265 C29.02 266.65 27.04 268.3 25 270 C22.69 270.66 20.38 271.32 18 272 C16.35 271.835 16.35 271.835 8 271 C5.36 269.35 2.72 267.7 0 266 C-1.32 263.69 -2.64 261.38 -4 259 C-6.64 259 -9.28 259 -12 259 Z " fill="#000000" transform="translate(155,35)"/>
</svg>
