<?xml version="1.0" encoding="UTF-8"?>
<!-- Generator: visioncortex VTracer 0.6.12 -->
<svg version="1.1" xmlns="http://www.w3.org/2000/svg" width="500" height="500">
<path d="M0,0 L15,0 L46,2 L69,6 L76,9 L78,12 L78,30 L76,36 L74,38 L73,43 L72,71 L174,76 L182,78 L187,82 L188,84 L188,96 L179,111 L178,242 L164,263 L146,290 L137,290 L136,289 L136,283 L122,283 L69,280 L61,280 L57,285 L48,284 L47,243 L46,234 L45,235 L38,235 L37,234 L33,166 L-7,164 L-8,182 L-11,187 L-19,187 L-20,178 L-20,163 L-32,162 L-35,221 L-37,228 L-38,230 L-47,230 L-47,161 L-50,160 L-51,150 L-50,145 L-61,144 L-61,235 L-71,249 L-85,269 L-93,280 L-103,280 L-103,274 L-161,271 L-180,271 L-183,275 L-190,275 L-193,274 L-193,137 L-199,135 L-202,131 L-202,119 L-195,111 L-182,98 L-181,96 L-179,96 L-177,92 L-150,65 L-138,62 L-108,62 L-59,65 L-23,67 L-22,36 L-21,33 L-26,33 L-28,31 L-27,7 L-22,2 L-17,1 Z M-17,5 L-24,7 L-25,8 L-25,30 L20,31 L47,33 L72,36 L73,27 L73,15 L69,11 L50,7 L34,5 Z M72,10 L74,14 L75,27 L76,27 L76,13 L74,10 Z M74,30 L75,34 Z M-18,32 L-19,33 L-21,60 L-21,67 L-15,68 L-14,59 L-13,33 Z M-8,32 L-9,39 L-10,68 L46,71 L58,71 L60,37 L54,35 L36,33 L14,32 Z M62,37 L61,41 L60,59 L60,71 L66,71 L68,42 L68,37 Z M70,38 L71,40 Z M-12,45 L-12,56 L-11,56 L-11,45 Z M69,45 L69,58 L70,58 L70,45 Z M68,63 L68,71 L69,71 L69,63 Z M-116,64 L-121,69 L-137,85 L-137,88 L-107,90 L-94,90 L-78,73 L-74,68 L-76,66 Z M-13,65 L-12,67 Z M-135,64 L-146,66 L-152,70 L-170,88 L-170,90 L-173,91 L-180,99 L-198,117 L-200,122 L-196,126 L-193,127 L-164,129 L-49,134 L83,140 L129,142 L142,142 L151,139 L156,133 L168,114 L182,92 L185,87 L184,82 L178,79 L171,78 L21,71 L-67,67 L-71,73 L-71,76 L-69,77 L-70,84 L-73,85 L-80,93 L-88,101 L-93,106 L-131,104 L-141,103 L-144,98 L-144,91 L-137,83 L-129,75 L-129,73 L-127,73 L-127,71 L-125,71 L-121,65 Z M-71,68 Z M-72,69 L-73,71 L-71,71 Z M-74,71 L-81,78 L-80,80 L-73,73 Z M-74,76 L-80,82 L-79,84 L-73,78 Z M-71,78 L-75,82 L-74,84 L-70,80 Z M-82,80 Z M-83,81 Z M-84,82 Z M-85,83 Z M-86,84 L-92,90 L-91,92 L-85,86 Z M-81,84 L-92,95 L-94,96 L-94,99 L-92,99 L-85,91 L-80,86 Z M-77,84 L-76,86 L-75,84 Z M-78,86 Z M-79,87 Z M-80,88 L-88,96 L-87,98 L-79,90 Z M-141,90 L-142,91 L-142,100 L-140,102 L-126,102 L-126,101 L-139,100 L-140,99 L-140,91 L-133,92 L-95,94 L-95,92 L-127,90 Z M-139,94 L-138,99 L-105,101 L-96,101 L-96,96 L-119,94 Z M-89,98 Z M-90,99 Z M-91,100 Z M-92,101 Z M-125,102 L-125,103 L-110,104 L-94,104 L-94,103 L-106,102 Z M-93,102 Z M175,116 L162,136 L155,147 L146,151 L146,284 L151,279 L162,262 L176,241 L176,116 Z M185,91 L177,102 L166,120 L154,138 L154,140 L143,143 L126,143 L32,139 L-123,132 L-190,129 L-200,126 L-200,131 L-194,135 L-167,137 L-73,141 L35,146 L122,150 L145,150 L154,146 L168,124 L180,105 L186,95 Z M-191,138 L-191,272 L-185,272 L-185,138 Z M-183,138 L-183,173 L-182,174 L-104,178 L-103,177 L-103,142 L-105,141 L-170,138 Z M-101,142 L-101,277 L-100,278 L-95,278 L-95,142 Z M-93,142 L-93,275 L-89,271 L-75,251 L-63,234 L-63,206 L-64,143 Z M-46,144 L-48,148 L-44,150 L36,154 L44,154 L47,152 L47,148 L-13,145 Z M49,148 L49,215 L50,282 L55,282 L56,281 L55,149 L54,148 Z M57,149 L57,181 L61,182 L121,185 L136,185 L136,153 L135,152 L75,149 Z M-48,151 L-48,158 L-47,159 L-40,160 L39,164 L47,163 L47,155 L29,155 Z M138,152 L138,287 L144,288 L144,165 L143,152 Z M-45,162 L-45,227 L-40,228 L-37,168 L-37,162 Z M-18,163 L-17,185 L-13,184 L-13,163 Z M46,165 L46,195 L47,195 L47,165 Z M36,166 L37,200 L39,232 L43,233 L44,219 L44,166 Z M-183,176 L-183,216 L-174,217 L-110,220 L-103,220 L-103,180 L-108,179 L-168,176 Z M57,184 L57,216 L88,218 L136,220 L136,188 L133,187 L75,184 Z M-183,218 L-183,249 L-140,252 L-117,253 L-103,253 L-103,222 L-138,220 Z M57,218 L57,248 L58,250 L84,252 L121,254 L136,254 L136,222 L102,220 Z M-182,251 L-183,252 L-183,267 L-177,268 L-121,271 L-103,271 L-103,256 L-105,255 Z M58,252 L58,277 L126,281 L136,281 L136,257 L135,256 Z " fill="#000000" transform="translate(254,110)"/>
<path d="M0,0 L4,2 L3,7 L-5,14 L-20,29 L-28,32 L-27,27 L-23,21 L-18,16 L-16,16 L-15,13 L-7,6 Z M-1,3 L-16,18 L-20,21 L-19,24 L-12,18 L2,4 Z M-23,24 L-24,27 L-20,26 L-21,24 Z " fill="#000000" transform="translate(359,193)"/>
<path d="M0,0 L6,0 L9,4 L7,10 L1,11 L-2,8 L-3,4 Z M1,2 L0,7 L4,9 L6,7 L5,2 Z " fill="#000000" transform="translate(108,262)"/>
<path d="M0,0 L7,1 L8,2 L8,9 L6,11 L0,11 L-3,7 L-2,2 Z M2,2 L0,3 L0,8 L4,9 L6,8 L6,3 Z " fill="#000000" transform="translate(347,270)"/>
<path d="M0,0 L6,1 L8,4 L7,9 L6,11 L1,12 L-3,9 L-3,3 Z M0,3 L-1,8 L4,9 L6,5 L4,3 Z " fill="#000000" transform="translate(109,301)"/>
<path d="M0,0 L6,2 L7,8 L5,11 L-2,11 L-4,8 L-4,3 Z M-1,3 L-2,7 L-1,9 L4,8 L5,5 L4,3 Z " fill="#000000" transform="translate(349,305)"/>
<path d="M0,0 L6,0 L9,4 L8,9 L6,11 L-1,10 L-2,3 Z M2,2 L0,3 L1,8 L5,9 L7,5 L5,2 Z " fill="#000000" transform="translate(108,340)"/>
<path d="M0,0 L6,1 L8,3 L7,10 L0,11 L-3,8 L-3,3 Z M1,2 L-1,4 L0,8 L4,9 L6,7 L5,3 Z " fill="#000000" transform="translate(348,340)"/>
</svg>
