<?xml version="1.0" encoding="UTF-8"?>
<!-- Generator: visioncortex VTracer 0.6.12 -->
<svg version="1.1" xmlns="http://www.w3.org/2000/svg" width="500" height="500">
<path d="M0,0 L263,0 L274,3 L285,9 L294,17 L302,31 L305,44 L305,179 L302,191 L294,205 L286,213 L275,219 L262,223 L76,224 L62,235 L50,245 L36,256 L25,265 L15,273 L5,281 L-1,284 L-5,281 L-4,276 L11,237 L16,224 L1,223 L-12,219 L-21,214 L-29,207 L-37,195 L-41,182 L-41,39 L-36,25 L-28,14 L-17,6 L-8,2 Z M4,7 L-8,10 L-18,16 L-21,18 L-21,20 L-23,20 L-29,29 L-33,39 L-34,47 L-34,175 L-31,189 L-26,198 L-20,205 L-9,212 L-1,215 L15,216 L25,217 L26,220 L20,235 L14,251 L8,267 L12,265 L25,255 L41,242 L51,234 L62,225 L72,217 L85,216 L255,216 L267,214 L276,210 L284,204 L290,197 L295,187 L297,179 L297,43 L294,32 L287,21 L279,14 L268,9 L259,7 Z " fill="#000000" transform="translate(118,108)"/>
<path d="M0,0 L25,0 L40,5 L50,11 L57,18 L62,26 L65,36 L65,47 L61,60 L54,70 L43,81 L35,88 L33,88 L33,90 L31,90 L29,94 L26,99 L24,113 L22,115 L-1,115 L-3,110 L-2,96 L2,86 L8,77 L13,71 L15,71 L16,68 L24,61 L31,52 L33,48 L33,38 L30,33 L30,31 L26,29 L20,26 L8,25 L-2,28 L-8,32 L-12,39 L-15,51 L-16,52 L-28,52 L-39,51 L-43,49 L-43,40 L-40,30 L-34,19 L-26,11 L-16,5 Z M4,7 L-8,10 L-20,16 L-29,25 L-33,33 L-35,39 L-35,43 L-31,44 L-22,44 L-18,33 L-9,23 L0,19 L4,18 L19,18 L29,22 L33,25 L35,25 L37,29 L41,38 L41,48 L37,57 L29,67 L24,71 L24,73 L20,75 L12,84 L8,91 L5,100 L5,107 L16,107 L20,94 L26,86 L35,77 L43,70 L50,63 L56,52 L57,47 L57,36 L53,26 L46,18 L41,14 L30,9 L20,7 Z " fill="#000000" transform="translate(241,138)"/>
<path d="M0,0 L12,0 L18,4 L22,9 L24,15 L23,23 L19,29 L14,33 L12,34 L-1,34 L-7,30 L-11,25 L-12,22 L-12,12 L-8,5 L-3,1 Z M4,7 L-1,9 L-4,13 L-4,21 L1,26 L8,27 L13,24 L16,20 L16,14 L11,8 Z " fill="#000000" transform="translate(246,260)"/>
</svg>
