<?xml version="1.0" encoding="UTF-8"?>
<!-- Generator: visioncortex VTracer 0.6.12 -->
<svg version="1.1" xmlns="http://www.w3.org/2000/svg" width="500" height="500">
<path d="M0,0 L101,0 L115,3 L125,8 L130,12 L135,20 L137,29 L137,62 L125,98 L111,139 L106,144 L81,159 L60,172 L30,190 L16,199 L5,205 L-11,215 L-33,228 L-53,240 L-68,249 L-95,265 L-98,266 L-107,266 L-119,260 L-136,249 L-155,237 L-174,225 L-188,216 L-206,205 L-226,192 L-242,182 L-246,177 L-246,146 L-243,141 L-237,136 L-227,130 L-216,124 L-195,112 L-178,102 L-152,87 L-128,73 L-99,56 L-73,41 L-47,26 L-23,12 L-9,4 Z M7,4 L-3,6 L-29,21 L-53,35 L-79,50 L-103,64 L-127,78 L-153,93 L-172,104 L-196,118 L-222,133 L-237,142 L-241,147 L-241,153 L-233,160 L-209,175 L-187,189 L-173,198 L-154,210 L-137,221 L-121,231 L-108,239 L-100,239 L-79,227 L-53,211 L-31,198 L-3,181 L17,169 L40,155 L55,146 L78,132 L101,118 L105,113 L132,32 L131,24 L126,16 L120,11 L111,7 L102,5 Z M132,46 L126,62 L114,98 L108,117 L109,128 L111,125 L125,84 L133,60 L133,46 Z M103,122 L92,129 L83,134 L60,148 L47,156 L19,173 L-13,192 L-29,202 L-54,217 L-82,234 L-97,243 L-100,244 L-107,244 L-118,238 L-143,222 L-165,208 L-187,194 L-204,183 L-228,168 L-240,160 L-242,160 L-242,175 L-236,180 L-212,195 L-190,209 L-171,221 L-152,233 L-133,245 L-119,254 L-107,261 L-99,261 L-87,255 L-66,242 L-44,229 L-24,217 L-4,205 L24,188 L52,171 L72,159 L88,149 L104,139 L105,134 L104,122 Z " fill="#000000" transform="translate(286,120)"/>
<path d="M0,0 L10,1 L18,5 L21,9 L21,18 L17,24 L10,29 L4,31 L-9,31 L-17,27 L-21,22 L-21,13 L-17,7 L-9,2 Z M-4,5 L-14,10 L-17,15 L-16,22 L-11,25 L-3,21 L7,21 L12,23 L17,17 L16,10 L11,6 L8,5 Z M-1,24 L-5,26 L-5,27 L6,26 L5,24 Z " fill="#000000" transform="translate(374,140)"/>
<path d="M0,0 L15,0 L17,2 L16,9 L8,35 L-5,78 L-18,121 L-19,123 L-36,123 L-37,118 L-23,72 L-9,25 L-1,1 Z M2,5 L-9,40 L-27,100 L-32,117 L-32,119 L-22,119 L-7,70 L4,33 L12,8 L12,5 Z " fill="#000000" transform="translate(244,178)"/>
<path d="M0,0 L11,0 L23,3 L32,9 L36,17 L36,27 L31,36 L24,42 L16,46 L9,48 L-4,49 L-15,47 L-24,42 L-30,34 L-31,31 L-31,23 L-28,16 L-21,8 L-9,2 Z M3,4 L-8,6 L-16,10 L-23,16 L-26,21 L-26,32 L-23,37 L-18,41 L-9,44 L8,44 L19,40 L27,34 L32,26 L32,19 L29,13 L23,8 L15,5 Z " fill="#000000" transform="translate(179,213)"/>
<path d="M0,0 L10,0 L22,3 L31,9 L35,15 L36,23 L33,33 L28,39 L18,45 L9,48 L4,49 L-6,49 L-18,46 L-27,40 L-31,33 L-32,25 L-29,16 L-24,10 L-17,5 L-5,1 Z M-4,5 L-15,9 L-25,18 L-27,22 L-27,31 L-23,37 L-18,41 L-10,44 L7,44 L17,41 L25,35 L30,29 L31,26 L31,18 L28,13 L22,8 L14,5 Z " fill="#000000" transform="translate(284,217)"/>
<path d="M0,0 L11,0 L18,3 L22,7 L23,9 L23,15 L19,21 L10,26 L-2,27 L-11,24 L-15,20 L-16,12 L-12,6 L-4,1 Z M2,4 L-5,6 L-11,11 L-12,16 L-7,21 L-1,23 L8,22 L16,18 L19,13 L17,8 L13,5 L9,4 Z " fill="#000000" transform="translate(178,224)"/>
<path d="M0,0 L8,0 L16,3 L21,8 L22,13 L19,19 L12,25 L5,27 L-5,27 L-14,23 L-17,20 L-17,10 L-15,7 L-13,7 L-13,5 L-5,1 Z M1,4 L-8,7 L-13,12 L-13,18 L-8,22 L2,23 L10,21 L16,16 L17,10 L13,6 L6,4 Z " fill="#000000" transform="translate(284,228)"/>
</svg>
