<?xml version="1.0" encoding="UTF-8"?>
<!-- Generator: visioncortex VTracer 0.6.12 -->
<svg version="1.1" xmlns="http://www.w3.org/2000/svg" width="500" height="500">
<path d="M0,0 L5,1 L13,7 L14,8 L14,87 L29,97 L39,103 L67,118 L72,121 L79,123 L98,133 L120,145 L145,158 L152,162 L160,162 L168,164 L187,174 L207,185 L209,187 L213,199 L213,219 L211,224 L209,230 L209,232 L215,236 L215,262 L211,265 L208,266 L208,275 L204,287 L202,296 L200,298 L193,298 L191,296 L188,280 L186,275 L176,278 L133,294 L110,303 L94,309 L54,324 L18,338 L5,343 L5,351 L0,366 L-2,373 L-7,375 L-11,373 L-15,357 L-17,352 L-17,341 L-39,327 L-63,312 L-89,296 L-110,283 L-136,267 L-161,252 L-177,242 L-180,241 L-183,256 L-185,260 L-191,261 L-194,259 L-196,250 L-200,237 L-200,228 L-206,228 L-213,224 L-213,76 L-209,72 L-184,60 L-156,48 L-123,35 L-95,25 L-59,14 L-24,5 Z M-3,3 L-35,10 L-71,20 L-108,32 L-127,39 L-155,50 L-180,61 L-208,74 L-211,77 L-211,222 L-206,224 L-205,81 L-201,77 L-181,68 L-166,61 L-150,54 L-134,48 L-111,39 L-75,27 L-41,17 L-4,8 L6,6 L6,4 L4,3 Z M8,7 L-35,17 L-70,27 L-106,39 L-138,51 L-169,64 L-198,77 L-204,82 L-204,198 L-198,196 L-198,176 L-197,173 L-196,90 L-169,78 L-131,62 L-110,54 L-74,42 L-44,33 L-6,23 L4,21 L3,32 L3,84 L11,85 L12,10 L9,7 Z M-1,24 L-2,83 L1,83 L1,24 Z M-8,25 L-18,28 L-18,89 L-4,85 L-3,49 L-3,25 Z M-22,29 L-23,36 L-23,90 L-21,90 L-20,84 L-20,29 Z M-27,30 L-40,34 L-40,97 L-26,92 L-25,91 L-25,30 Z M-44,35 L-45,55 L-45,98 L-43,98 L-42,84 L-42,35 Z M-49,36 L-62,40 L-62,105 L-52,102 L-47,100 L-47,36 Z M-66,41 L-67,42 L-67,107 L-65,107 L-64,70 L-64,41 Z M-72,43 L-84,47 L-85,73 L-85,122 L-80,123 L-78,122 L-77,113 L-73,111 L-69,109 L-69,43 Z M-88,48 L-89,49 L-89,121 L-87,121 L-87,48 Z M-94,50 L-107,55 L-107,122 L-100,121 L-92,120 L-91,73 L-91,50 Z M-111,56 L-112,123 L-109,123 L-109,56 Z M-116,58 L-128,63 L-129,64 L-129,130 L-118,127 L-114,125 L-113,59 Z M-133,65 L-133,132 L-131,131 L-131,65 Z M-137,66 L-151,72 L-151,138 L-146,137 L-136,133 L-136,66 Z M-155,74 L-156,75 L-156,140 L-153,139 L-153,74 Z M-160,76 L-172,81 L-173,82 L-173,148 L-159,142 L-158,141 L-158,76 Z M-176,83 L-178,84 L-178,155 L-175,151 L-175,83 Z M-181,85 L-194,91 L-194,168 L-188,166 L-180,162 L-180,85 Z M-1,86 L-13,89 L-51,103 L-69,111 L-75,115 L-76,116 L-75,124 L-69,132 L-57,141 L-47,145 L-35,145 L14,127 L33,120 L37,116 L36,109 L30,101 L19,93 L8,87 Z M37,106 L38,110 L38,117 L34,121 L10,130 L-19,141 L-37,147 L-44,147 L-55,144 L-58,144 L-57,152 L-61,156 L-75,162 L-92,168 L-126,181 L-136,184 L-149,182 L-162,175 L-171,168 L-174,163 L-179,164 L-193,170 L-196,174 L-197,178 L-197,192 L-194,199 L-188,204 L-163,219 L-143,231 L-142,229 L-142,205 L-137,199 L-112,189 L-81,177 L-43,162 L-7,149 L37,134 L67,123 L67,121 L39,106 Z M-97,122 L-114,127 L-144,138 L-169,148 L-174,152 L-175,156 L-172,163 L-168,169 L-150,180 L-143,182 L-133,182 L-88,165 L-62,155 L-59,152 L-59,146 L-63,140 L-72,132 L-88,123 Z M-78,124 L-77,127 L-77,124 Z M69,124 L22,141 L-14,153 L-44,164 L-82,179 L-121,194 L-136,200 L-140,204 L-141,207 L-141,228 L-137,234 L-128,240 L-103,255 L-80,269 L-67,277 L-64,278 L-63,254 L-60,246 L-56,241 L-46,235 L-15,223 L39,204 L78,190 L112,177 L131,170 L148,165 L149,163 L126,151 L104,139 L81,127 L75,124 Z M-178,156 L-178,161 L-176,161 L-177,156 Z M154,165 L139,169 L113,178 L66,196 L29,209 L-2,220 L-35,232 L-52,240 L-57,245 L-61,251 L-62,255 L-62,282 L-58,287 L-38,299 L-37,299 L-36,274 L-34,265 L-30,260 L-30,258 L-28,258 L-28,256 L-24,254 L-1,243 L45,225 L81,212 L118,199 L154,187 L181,179 L187,178 L182,174 L167,166 L164,165 Z M185,180 L175,182 L137,194 L103,206 L74,216 L36,230 L-4,246 L-21,254 L-31,263 L-34,269 L-35,287 L-35,301 L-30,304 L-25,303 L-24,301 L-23,275 L-19,266 L-11,260 L8,251 L35,240 L75,225 L108,213 L144,201 L179,190 L192,187 L200,187 L205,190 L207,189 L202,185 L193,180 Z M-199,198 L-201,199 L-200,202 L-186,210 L-168,221 L-153,230 L-133,242 L-118,251 L-97,264 L-77,276 L-66,283 L-64,283 L-65,280 L-85,268 L-113,251 L-141,234 L-168,218 L-193,203 L-197,198 Z M195,188 L174,193 L131,207 L93,220 L58,233 L27,245 L1,256 L-13,263 L-20,271 L-22,278 L-22,297 L-12,303 L0,303 L40,288 L90,269 L117,259 L146,248 L169,240 L196,230 L206,226 L210,221 L211,213 L211,200 L206,199 L197,201 L179,208 L153,217 L115,231 L75,246 L58,252 L32,262 L12,269 L-2,275 L-6,281 L-6,300 L-8,300 L-7,280 L-4,275 L2,271 L27,262 L62,249 L119,228 L140,220 L166,211 L201,198 L208,196 L207,193 L198,188 Z M-204,202 L-204,223 L-184,235 L-156,252 L-128,269 L-100,286 L-76,301 L-55,314 L-36,326 L-17,338 L-8,343 L-8,321 L-22,312 L-41,300 L-66,285 L-82,275 L-105,261 L-133,244 L-165,225 L-183,214 L-203,202 Z M205,228 L190,234 L170,241 L106,265 L78,275 L31,293 L1,304 L-9,305 L-19,301 L-22,300 L-23,304 L-9,313 L1,313 L44,297 L89,280 L118,269 L139,261 L156,255 L196,240 L202,237 L206,232 Z M-197,230 L-198,235 L-195,242 L-192,244 L-185,244 L-181,239 L-196,230 Z M207,235 L202,239 L184,246 L150,259 L154,260 L196,244 L212,238 L209,235 Z M211,240 L171,255 L136,268 L75,291 L30,308 L-4,321 L-5,322 L-6,343 L-4,344 L16,336 L45,325 L65,317 L81,311 L124,295 L166,279 L209,263 L212,262 L213,256 L213,240 Z M-194,246 L-193,249 L-186,250 L-183,246 Z M-192,252 L-192,258 L-188,259 L-186,258 L-185,252 Z M146,260 L117,271 L77,286 L8,312 L0,315 L-8,315 L-22,307 L-26,306 L-21,311 L-8,319 L0,318 L44,301 L79,288 L121,272 L150,261 Z M202,267 L189,272 L190,279 L194,282 L200,282 L205,277 L206,269 L205,267 Z M191,283 L193,287 L199,288 L202,286 L201,283 Z M193,290 L194,296 L199,296 L200,295 L200,290 Z M-14,343 L-15,344 L-15,351 L-11,357 L-4,358 L1,355 L3,350 L2,344 L-7,346 L-12,343 Z M-12,359 L-10,363 L-5,364 L-1,362 L0,359 Z M-10,366 L-9,372 L-4,372 L-3,371 L-3,366 Z " fill="#000000" transform="translate(250,59)"/>
<path d="M0,0 L6,1 L22,11 L30,19 L33,24 L32,27 L29,24 L25,18 L13,9 L0,2 Z " fill="#000000" transform="translate(176,176)"/>
<path d="M0,0 L8,1 L22,10 L32,19 L35,24 L35,26 L32,26 L26,17 L16,10 L6,4 L0,2 Z " fill="#000000" transform="translate(77,213)"/>
</svg>
