<?xml version="1.0" encoding="UTF-8"?>
<!-- Generator: visioncortex VTracer 0.6.12 -->
<svg version="1.1" xmlns="http://www.w3.org/2000/svg" width="372" height="372">
<path d="M0 0 C1.11 0.598 2.221 1.197 3.365 1.813 C4.561 2.464 5.757 3.115 6.953 3.766 C8.202 4.441 9.452 5.116 10.702 5.79 C13.275 7.18 15.846 8.571 18.417 9.965 C21.959 11.885 25.506 13.794 29.055 15.699 C38.277 20.652 47.491 25.618 56.67 30.65 C64.968 35.198 73.303 39.659 81.703 44.016 C92.138 49.429 102.485 54.991 112.773 60.679 C115.014 61.911 117.263 63.126 119.516 64.336 C120.766 65.02 122.016 65.705 123.266 66.391 C123.787 66.673 123.787 66.673 126.426 68.102 C130.179 70.688 133.586 73.412 134.668 77.98 C134.855 80.301 134.882 82.575 134.856 84.904 C134.861 85.346 134.861 85.346 134.885 87.581 C134.912 90.536 134.903 93.49 134.894 96.446 C134.906 98.566 134.92 100.687 134.936 102.808 C134.973 108.564 134.978 114.32 134.978 120.076 C134.982 126.098 135.013 132.12 135.041 138.142 C135.083 148.255 135.106 158.367 135.117 168.479 C135.13 180.174 135.167 191.868 135.218 203.563 C135.273 216.009 135.312 228.456 135.345 240.902 C135.355 244.491 135.369 248.079 135.382 251.668 C135.403 257.304 135.413 262.941 135.414 268.577 C135.417 270.647 135.422 272.717 135.431 274.787 C135.443 277.61 135.443 280.432 135.439 283.255 C135.446 284.076 135.452 284.898 135.458 285.745 C135.439 289.93 135.208 293.298 133.203 297.016 C129.721 300.301 125.857 302.525 121.578 304.641 C120.451 305.231 119.325 305.821 118.164 306.43 C115.447 307.248 114.351 307.074 111.67 306.021 C108.785 304.443 106 302.744 103.203 301.016 C101.435 300.068 99.658 299.138 97.871 298.227 C96.982 297.766 96.093 297.306 95.178 296.832 C94.258 296.356 93.338 295.881 92.391 295.391 C84.612 291.352 76.884 287.236 69.203 283.016 C61.75 278.921 54.253 274.928 46.703 271.016 C38.502 266.764 30.368 262.408 22.277 257.951 C16.399 254.725 10.484 251.577 4.543 248.469 C3.008 247.664 1.472 246.858 -0.063 246.053 C-2.347 244.856 -4.632 243.661 -6.921 242.475 C-27.66 231.723 -27.66 231.723 -29.867 226.467 C-30.996 222.275 -31.075 218.521 -31.051 214.203 C-31.054 213.328 -31.057 212.453 -31.06 211.551 C-31.068 208.623 -31.062 205.696 -31.056 202.769 C-31.058 200.668 -31.062 198.567 -31.066 196.466 C-31.075 190.764 -31.072 185.061 -31.066 179.359 C-31.06 173.393 -31.065 167.427 -31.068 161.461 C-31.072 151.443 -31.067 141.425 -31.058 131.407 C-31.047 119.821 -31.05 108.236 -31.061 96.65 C-31.07 86.705 -31.072 76.76 -31.066 66.815 C-31.063 60.874 -31.063 54.934 -31.069 48.993 C-31.075 43.409 -31.071 37.825 -31.06 32.241 C-31.057 30.191 -31.058 28.14 -31.062 26.089 C-31.068 23.293 -31.061 20.497 -31.051 17.701 C-31.055 16.887 -31.06 16.073 -31.064 15.234 C-31.035 11.068 -30.766 7.728 -28.797 4.016 C-26.403 1.897 -23.615 0.509 -20.797 -0.984 C-20.032 -1.405 -19.268 -1.825 -18.48 -2.258 C-11.141 -5.959 -7.089 -3.84 0 0 Z M-14.863 -1.281 C-15.687 -0.771 -16.511 -0.26 -17.359 0.266 C-18.206 0.766 -19.053 1.266 -19.926 1.781 C-20.235 1.985 -20.235 1.985 -21.797 3.016 C-21.797 3.676 -21.797 4.336 -21.797 5.016 C-21.306 5.256 -20.816 5.496 -20.31 5.743 C-9.477 11.061 1.206 16.589 11.776 22.411 C18.372 26.038 25.019 29.554 31.703 33.016 C40.176 37.406 48.57 41.921 56.934 46.516 C64.421 50.617 71.98 54.569 79.56 58.496 C87.44 62.59 95.244 66.815 103.023 71.096 C104.691 72.013 106.362 72.924 108.037 73.827 C109.88 74.839 111.689 75.913 113.488 77 C116.203 78.016 116.203 78.016 118.977 77.215 C119.406 76.965 119.406 76.965 121.578 75.703 C122.452 75.212 123.326 74.721 124.227 74.215 C124.879 73.819 125.531 73.423 126.203 73.016 C124.011 70.628 121.861 69.121 119.012 67.59 C118.587 67.36 118.587 67.36 116.439 66.197 C115.516 65.704 114.592 65.211 113.641 64.703 C112.672 64.18 111.703 63.658 110.705 63.119 C107.54 61.413 104.372 59.714 101.203 58.016 C99.048 56.856 96.893 55.696 94.738 54.535 C91.451 52.765 88.164 50.995 84.876 49.227 C78.013 45.536 71.165 41.819 64.328 38.078 C53.154 31.968 41.926 25.957 30.693 19.955 C26.938 17.947 23.187 15.931 19.439 13.908 C16.908 12.541 14.375 11.177 11.842 9.813 C10.069 8.857 8.298 7.898 6.527 6.938 C3.431 5.272 0.323 3.636 -2.797 2.016 C-3.655 1.557 -4.513 1.098 -5.397 0.625 C-10.989 -2.17 -10.989 -2.17 -14.863 -1.281 Z M-26.797 6.016 C-26.914 34.614 -27.002 63.212 -27.056 91.81 C-27.082 105.088 -27.117 118.366 -27.174 131.644 C-27.224 143.216 -27.256 154.787 -27.267 166.358 C-27.274 172.487 -27.289 178.615 -27.326 184.744 C-27.359 190.51 -27.37 196.276 -27.362 202.042 C-27.364 204.16 -27.374 206.279 -27.393 208.397 C-27.418 211.286 -27.412 214.173 -27.398 217.062 C-27.413 217.904 -27.427 218.745 -27.442 219.612 C-27.387 223.917 -27.202 225.513 -24.405 228.983 C-22.003 230.855 -19.768 232.343 -17.051 233.707 C-16.143 234.17 -15.234 234.634 -14.299 235.111 C-13.329 235.595 -12.359 236.079 -11.359 236.578 C-9.276 237.64 -7.194 238.704 -5.113 239.77 C-4.058 240.309 -3.002 240.848 -1.915 241.403 C2.836 243.86 7.52 246.434 12.203 249.016 C20.61 253.636 29.085 258.105 37.602 262.518 C45.054 266.39 52.426 270.395 59.784 274.441 C67.831 278.849 75.968 283.072 84.124 287.274 C91.389 291.031 98.563 294.924 105.636 299.034 C109.185 301.06 112.189 302.336 116.203 303.016 C117.422 264.119 117.358 225.223 117.332 186.313 C117.327 179.163 117.33 172.013 117.335 164.863 C117.34 157.858 117.34 150.853 117.338 143.848 C117.336 139.71 117.336 135.572 117.339 131.434 C117.359 102.278 117.359 102.278 116.945 91.184 C116.9 89.881 116.854 88.578 116.808 87.236 C116.094 83.436 114.9 81.744 112.203 79.016 C109.903 77.563 107.704 76.302 105.289 75.082 C104.611 74.728 103.933 74.374 103.235 74.009 C101.021 72.855 98.8 71.717 96.578 70.578 C95.025 69.771 93.473 68.964 91.922 68.154 C88.802 66.528 85.681 64.905 82.558 63.286 C76.738 60.26 70.969 57.143 65.203 54.016 C55.085 48.547 44.932 43.144 34.766 37.766 C34.029 37.376 33.293 36.986 32.534 36.585 C23.683 31.903 14.825 27.234 5.954 22.591 C1.547 20.276 -2.831 17.913 -7.199 15.527 C-8.303 14.925 -9.407 14.323 -10.544 13.702 C-12.717 12.515 -14.888 11.323 -17.057 10.128 C-18.035 9.593 -19.012 9.059 -20.02 8.508 C-20.894 8.027 -21.768 7.546 -22.668 7.05 C-24.797 6.016 -24.797 6.016 -26.797 6.016 Z M123.141 77.516 C122.222 77.98 121.302 78.444 120.355 78.922 C119.645 79.283 118.935 79.644 118.203 80.016 C118.533 81.666 118.863 83.316 119.203 85.016 C123.958 84.439 127.174 82.465 131.203 80.016 C130.543 78.366 129.883 76.716 129.203 75.016 C127.1 75.016 124.961 76.594 123.141 77.516 Z M120.203 89.016 C119.873 158.976 119.543 228.936 119.203 301.016 C128.203 298.016 128.203 298.016 131.203 295.016 C131.492 292.165 131.595 289.534 131.564 286.682 C131.566 285.822 131.569 284.962 131.572 284.076 C131.577 281.183 131.56 278.291 131.544 275.398 C131.543 273.328 131.543 271.259 131.545 269.19 C131.546 263.562 131.528 257.934 131.507 252.306 C131.489 246.429 131.487 240.551 131.483 234.673 C131.474 223.539 131.449 212.404 131.419 201.269 C131.386 188.595 131.369 175.92 131.354 163.246 C131.323 137.169 131.27 111.092 131.203 85.016 C128.203 85.016 128.203 85.016 120.203 89.016 Z " fill="#000000" transform="translate(140.796875,34.984375)"/>
<path d="M0 0 C6.493 0.105 11.719 3.78 17.219 6.902 C18.434 7.576 19.65 8.248 20.867 8.918 C22.792 9.978 24.716 11.04 26.636 12.107 C31.5 14.81 36.399 17.439 41.32 20.035 C42.033 20.411 42.746 20.788 43.481 21.175 C46.282 22.652 49.083 24.127 51.885 25.601 C76.805 38.725 76.805 38.725 79.719 47.465 C79.828 49.478 79.878 51.494 79.896 53.509 C79.902 54.132 79.902 54.132 79.935 57.282 C79.943 58.642 79.95 60.003 79.957 61.363 C79.961 62.049 79.965 62.735 79.969 63.442 C79.99 67.072 80.005 70.703 80.014 74.333 C80.025 78.078 80.059 81.822 80.099 85.567 C80.125 88.451 80.134 91.335 80.137 94.22 C80.142 95.6 80.154 96.98 80.172 98.361 C80.197 100.294 80.193 102.228 80.189 104.162 C80.195 105.261 80.2 106.36 80.206 107.492 C79.605 111.16 78.278 112.82 75.719 115.465 C73.242 116.614 72.142 116.574 69.503 115.892 C63.183 113.244 57.312 110.117 51.406 106.652 C41.013 100.657 30.438 95.097 19.743 89.667 C-3.137 77.995 -3.137 77.995 -6.387 69.612 C-7.915 63.89 -7.586 57.927 -7.582 52.051 C-7.586 50.763 -7.591 49.475 -7.595 48.148 C-7.602 45.433 -7.602 42.719 -7.597 40.004 C-7.591 36.533 -7.608 33.062 -7.631 29.591 C-7.65 26.265 -7.646 22.939 -7.645 19.613 C-7.654 18.37 -7.663 17.128 -7.672 15.847 C-7.666 14.689 -7.66 13.531 -7.654 12.337 C-7.654 11.321 -7.655 10.306 -7.655 9.259 C-6.975 4.178 -5.093 0.721 0 0 Z M-3.281 5.465 C-3.669 8.012 -3.669 8.012 -3.685 11.272 C-3.698 12.491 -3.711 13.709 -3.724 14.965 C-3.722 16.302 -3.719 17.639 -3.715 18.977 C-3.719 20.347 -3.725 21.717 -3.731 23.088 C-3.74 25.965 -3.737 28.843 -3.727 31.72 C-3.716 35.395 -3.736 39.068 -3.765 42.742 C-3.784 45.576 -3.783 48.409 -3.778 51.243 C-3.777 53.252 -3.794 55.261 -3.811 57.27 C-3.759 64.18 -3.595 68.926 0.719 74.465 C3.328 76.441 3.328 76.441 6.469 78.09 C7.067 78.411 7.665 78.733 8.281 79.064 C9.648 79.798 11.02 80.524 12.396 81.243 C14.942 82.582 17.468 83.956 19.992 85.336 C25.081 88.115 30.183 90.869 35.289 93.616 C38.315 95.247 41.337 96.884 44.358 98.523 C46.898 99.901 49.44 101.274 51.983 102.647 C53.213 103.312 54.442 103.978 55.67 104.646 C57.395 105.584 59.123 106.515 60.852 107.445 C61.84 107.981 62.829 108.516 63.848 109.067 C66.752 110.481 69.635 111.515 72.719 112.465 C75.262 110.338 76.59 109.141 77.22 105.829 C77.22 104.829 77.22 103.828 77.22 102.798 C77.23 101.659 77.239 100.521 77.249 99.348 C77.238 98.122 77.226 96.896 77.215 95.633 C77.216 95 77.216 95 77.219 91.799 C77.218 89.121 77.208 86.445 77.185 83.767 C77.157 80.351 77.16 76.936 77.172 73.519 C77.181 70.245 77.166 66.97 77.152 63.695 C77.155 62.475 77.158 61.255 77.161 59.998 C77.076 52.268 76.806 46.623 71.188 40.875 C66.883 37.63 62.017 35.318 57.219 32.902 C55.148 31.842 53.077 30.779 51.008 29.715 C49.959 29.176 48.91 28.637 47.829 28.082 C43.044 25.594 38.318 23.002 33.594 20.402 C26.082 16.283 18.547 12.212 10.969 8.215 C10.069 7.737 9.169 7.258 8.242 6.765 C7.414 6.331 6.587 5.897 5.734 5.449 C5.005 5.065 4.276 4.68 3.524 4.284 C0.3 2.821 -0.212 3.419 -3.281 5.465 Z " fill="#000000" transform="translate(147.28125,80.53515625)"/>
<path d="M0 0 C4.928 0.299 9.655 2.379 13 6 C14.009 10.134 13.757 14.088 13.5 18.312 C13.464 19.435 13.428 20.557 13.391 21.713 C13.296 24.479 13.165 27.238 13 30 C10 31 10 31 7.809 30.074 C7.026 29.617 6.244 29.159 5.438 28.688 C5.045 28.463 5.045 28.463 3.059 27.324 C1 26 1 26 -1 24 C-1.243 21.677 -1.243 21.677 -1.23 18.809 C-1.229 17.782 -1.227 16.755 -1.225 15.697 C-1.212 14.622 -1.2 13.546 -1.188 12.438 C-1.187 11.358 -1.186 10.278 -1.186 9.166 C-1.14 1.14 -1.14 1.14 0 0 Z M3 5 C3 10.94 3 16.88 3 23 C4.98 23.66 6.96 24.32 9 25 C9.108 22.228 9.187 19.46 9.25 16.688 C9.284 15.902 9.317 15.116 9.352 14.307 C9.451 8.487 9.451 8.487 7.109 5.957 C5 5 5 5 3 5 Z " fill="#000000" transform="translate(160,108)"/>
<path d="M0 0 C5.03 0.444 7.205 2.26 12 5 C12 13.58 12 22.16 12 31 C6.756 29.951 2.637 29.081 -1 25 C-2.023 20.885 -1.802 16.96 -1.562 12.75 C-1.535 11.636 -1.507 10.523 -1.479 9.375 C-1.225 1.225 -1.225 1.225 0 0 Z M2 5 C1.865 7.939 1.766 10.872 1.688 13.812 C1.646 14.646 1.604 15.479 1.561 16.338 C1.514 18.659 1.525 20.727 2 23 C4.433 25.107 5.776 26 9 26 C9.135 23.061 9.234 20.128 9.312 17.188 C9.354 16.354 9.396 15.521 9.439 14.662 C9.486 12.341 9.475 10.273 9 8 C6.567 5.893 5.224 5 2 5 Z " fill="#000000" transform="translate(197,127)"/>
<path d="M0 0 C3.25 0.171 4.736 0.78 7.25 2.875 C10.641 6.992 10.323 10.916 10 16 C7 18 7 18 3.5 17.875 C0 17 0 17 -1.875 15.312 C-3.758 11.443 -4.42 8.423 -3.188 4.25 C-2 2 -2 2 0 0 Z M1 4 C0 5 0 5 -0.188 7.875 C0 11 0 11 2 14 C3.65 13.67 5.3 13.34 7 13 C6.39 7.508 6.39 7.508 4.562 5.125 C3 4 3 4 1 4 Z " fill="#000000" transform="translate(180,150)"/>
<path d="M0 0 C5.857 1.085 10.92 4.11 16.102 6.926 C17.198 7.509 18.293 8.092 19.423 8.693 C22.782 10.486 26.13 12.297 29.477 14.113 C30.462 14.645 31.447 15.177 32.462 15.725 C37.035 18.194 41.598 20.681 46.148 23.191 C49.786 25.197 53.443 27.16 57.117 29.098 C58.028 29.583 58.939 30.069 59.878 30.57 C61.595 31.485 63.318 32.391 65.046 33.286 C71.24 36.613 75.774 40.402 78.477 47.113 C78.744 49.99 78.744 49.99 78.767 53.363 C78.78 54.628 78.793 55.893 78.806 57.196 C78.809 58.573 78.811 59.951 78.812 61.328 C78.819 62.745 78.826 64.163 78.833 65.58 C78.845 68.548 78.848 71.516 78.847 74.484 C78.847 78.282 78.874 82.079 78.909 85.876 C78.931 88.802 78.935 91.729 78.934 94.655 C78.936 96.055 78.945 97.455 78.961 98.854 C78.98 100.814 78.972 102.774 78.962 104.734 C78.965 105.848 78.968 106.962 78.971 108.109 C78.361 111.817 77.122 113.486 74.477 116.113 C67.423 117.715 61.882 113.508 55.914 110.113 C54.196 109.161 52.478 108.209 50.759 107.258 C49.552 106.59 48.345 105.92 47.14 105.249 C42.628 102.735 38.084 100.285 33.52 97.867 C32.858 97.516 32.196 97.166 31.514 96.804 C28.917 95.429 26.319 94.055 23.72 92.682 C-4.673 77.666 -4.673 77.666 -7.523 69.113 C-7.633 67.034 -7.682 64.951 -7.7 62.869 C-7.713 61.581 -7.726 60.293 -7.739 58.966 C-7.748 57.558 -7.755 56.15 -7.762 54.742 C-7.766 54.033 -7.77 53.323 -7.774 52.593 C-7.795 48.84 -7.809 45.088 -7.819 41.336 C-7.83 37.461 -7.864 33.586 -7.904 29.711 C-7.93 26.73 -7.938 23.749 -7.942 20.768 C-7.947 19.339 -7.958 17.911 -7.977 16.482 C-8.001 14.484 -7.998 12.485 -7.993 10.487 C-7.999 9.35 -8.005 8.213 -8.011 7.042 C-7.175 2.02 -5.021 0.161 0 0 Z M-4.523 6.113 C-4.784 8.629 -4.784 8.629 -4.798 11.845 C-4.808 13.046 -4.817 14.248 -4.827 15.486 C-4.826 16.792 -4.825 18.097 -4.824 19.441 C-4.828 20.792 -4.832 22.142 -4.837 23.493 C-4.845 26.327 -4.844 29.162 -4.839 31.997 C-4.833 35.619 -4.85 39.241 -4.873 42.864 C-4.888 45.656 -4.889 48.447 -4.886 51.239 C-4.887 53.221 -4.901 55.203 -4.915 57.184 C-4.908 58.399 -4.902 59.613 -4.896 60.864 C-4.896 61.929 -4.897 62.993 -4.898 64.089 C-4.284 69.05 -2.414 72.245 1.133 75.703 C4.807 78.537 8.846 80.593 12.977 82.676 C14.679 83.553 16.381 84.432 18.082 85.312 C18.967 85.769 19.852 86.226 20.763 86.697 C25.304 89.068 29.796 91.528 34.289 93.988 C34.742 94.235 34.742 94.235 37.035 95.484 C41.895 98.134 46.733 100.817 51.551 103.543 C52.543 104.099 53.535 104.654 54.557 105.227 C56.459 106.293 58.356 107.369 60.245 108.457 C68.439 113.026 68.439 113.026 73.477 112.113 C76.152 109.438 75.735 108.12 75.751 104.382 C75.761 103.18 75.77 101.978 75.78 100.74 C75.779 99.435 75.778 98.13 75.777 96.785 C75.781 95.435 75.786 94.084 75.79 92.734 C75.798 89.899 75.797 87.065 75.792 84.23 C75.786 80.607 75.803 76.985 75.827 73.363 C75.841 70.571 75.842 67.779 75.839 64.988 C75.84 63.006 75.854 61.024 75.868 59.042 C75.865 58.435 75.865 58.435 75.849 55.362 C75.85 54.298 75.85 53.234 75.851 52.137 C75.252 47.295 73.41 44.058 70.008 40.617 C65.419 37.078 60.133 34.645 54.977 32.051 C52.726 30.9 50.476 29.748 48.227 28.594 C47.096 28.014 45.966 27.435 44.801 26.837 C39.818 24.253 34.895 21.566 29.977 18.863 C28.186 17.884 26.396 16.905 24.605 15.926 C22.053 14.528 19.503 13.128 16.957 11.719 C14.614 10.424 12.265 9.143 9.914 7.863 C9.23 7.48 8.545 7.097 7.84 6.702 C-0.571 2.161 -0.571 2.161 -4.523 6.113 Z " fill="#000000" transform="translate(147.5234375,177.88671875)"/>
<path d="M0 0 C4.688 1.34 8.429 2.628 12 6 C12.764 9.932 12.563 13.763 12.375 17.75 C12.348 18.829 12.321 19.908 12.293 21.02 C12.222 23.682 12.124 26.34 12 29 C9.345 30.017 8.308 30.13 5.641 29.004 C4.852 28.528 4.063 28.053 3.25 27.562 C2.451 27.089 1.652 26.616 0.828 26.129 C0.225 25.756 -0.378 25.384 -1 25 C-1.029 21.021 -1.047 17.042 -1.062 13.062 C-1.071 11.926 -1.079 10.79 -1.088 9.619 C-1.091 8.54 -1.094 7.46 -1.098 6.348 C-1.103 5.347 -1.108 4.347 -1.114 3.317 C-1 1 -1 1 0 0 Z M2 5 C2 10.61 2 16.22 2 22 C3.98 22.99 5.96 23.98 8 25 C8 19.06 8 13.12 8 7 C6.02 6.34 4.04 5.68 2 5 Z " fill="#000000" transform="translate(160,206)"/>
<path d="M0 0 C4.338 1.343 7.864 2.932 12 5 C12 13.25 12 21.5 12 30 C9 31 9 31 6.773 30.039 C6.378 29.806 6.378 29.806 4.375 28.625 C3.578 28.164 2.782 27.702 1.961 27.227 C0 26 0 26 -1 25 C-1.099 23.231 -1.131 21.459 -1.133 19.688 C-1.134 18.612 -1.135 17.537 -1.137 16.43 C-1.135 15.864 -1.135 15.864 -1.125 13 C-1.129 11.868 -1.133 10.736 -1.137 9.57 C-1.135 8.495 -1.134 7.42 -1.133 6.312 C-1.132 5.319 -1.131 4.325 -1.129 3.301 C-1 1 -1 1 0 0 Z M2 5 C2.33 11.27 2.66 17.54 3 24 C4.98 24.66 6.96 25.32 9 26 C9.108 23.062 9.187 20.127 9.25 17.188 C9.284 16.354 9.317 15.521 9.352 14.662 C9.45 8.511 9.45 8.511 7.172 5.926 C5 5 5 5 2 5 Z " fill="#000000" transform="translate(196,225)"/>
<path d="M0 0 C4.316 0.48 6.202 1.702 9 5 C10.601 8.202 10.628 11.535 10 15 C7.812 17.125 7.812 17.125 5 18 C2.375 17.562 2.375 17.562 0 16 C-2.651 11.977 -3.625 8.795 -3 4 C-1.5 1.625 -1.5 1.625 0 0 Z M1 4 C0.67 4.33 0.34 4.66 0 5 C0.6 11.6 0.6 11.6 3 14 C5.125 13.625 5.125 13.625 7 13 C7.365 7.522 7.365 7.522 5.688 5.125 C4 4 4 4 1 4 Z " fill="#000000" transform="translate(179,248)"/>
</svg>
