<?xml version="1.0" encoding="UTF-8"?>
<!-- Generator: visioncortex VTracer 0.6.12 -->
<svg version="1.1" xmlns="http://www.w3.org/2000/svg" width="500" height="500">
<path d="M0,0 L8,0 L26,6 L31,10 L34,17 L37,31 L42,30 L53,30 L59,35 L61,40 L106,55 L133,64 L138,69 L140,75 L140,88 L138,122 L133,150 L129,156 L124,160 L117,163 L122,201 L122,207 L119,210 L113,210 L110,207 L99,171 L93,172 L47,190 L-2,209 L-51,228 L-95,245 L-134,260 L-136,260 L-139,301 L-141,311 L-144,313 L-150,312 L-152,309 L-157,263 L-229,227 L-231,230 L-241,255 L-243,256 L-249,256 L-252,252 L-247,223 L-247,218 L-255,214 L-261,206 L-265,181 L-272,131 L-271,123 L-266,118 L-257,115 L-251,114 L-253,98 L-253,89 L-250,83 L-245,79 L-180,58 L-130,42 L-72,23 L-22,7 Z M-2,3 L-66,24 L-107,37 L-116,40 L-116,42 L-101,48 L-97,49 L-92,44 L14,9 L19,7 L16,5 L10,3 Z M20,9 L-23,23 L-90,45 L-94,47 L-96,50 L-95,58 L-82,114 L-81,123 L-77,122 L-70,118 L-25,102 L-24,88 L-21,74 L-27,58 L-28,47 L-26,40 L-21,37 L2,37 L15,39 L33,33 L34,31 L31,16 L28,11 L25,9 Z M39,33 L23,38 L18,40 L10,40 L-2,38 L-19,38 L-25,41 L-26,43 L-26,56 L-20,73 L-21,82 L-23,92 L-23,99 L-20,108 L-17,110 L-1,110 L19,104 L29,104 L41,106 L54,106 L60,104 L63,101 L63,86 L57,70 L57,63 L59,53 L59,44 L56,35 L54,33 Z M-122,42 L-177,60 L-234,78 L-247,83 L-250,88 L-251,94 L-248,115 L-227,124 L-226,120 L-229,106 L-229,95 L-225,89 L-221,86 L-169,69 L-126,55 L-106,49 L-107,47 Z M61,44 L60,57 L101,71 L110,75 L115,79 L120,72 L132,67 L130,65 L80,49 L65,44 Z M-109,51 L-163,69 L-213,85 L-223,89 L-227,94 L-228,103 L-223,125 L-209,132 L-174,147 L-164,151 L-116,134 L-86,124 L-83,122 L-84,111 L-95,64 L-99,52 L-100,51 Z M60,60 L58,65 L59,71 L64,84 L66,92 L95,101 L108,105 L113,107 L113,82 L109,76 L93,70 L63,60 Z M129,70 L122,73 L117,79 L116,82 L115,94 L114,135 L116,133 L117,130 L118,118 L119,83 L121,78 L126,74 L135,71 L135,70 Z M131,74 L124,77 L121,81 L120,95 L119,125 L117,135 L114,139 L113,144 L113,161 L122,158 L127,155 L130,151 L135,127 L137,102 L137,75 L136,74 Z M66,95 L63,104 L57,107 L38,107 L27,105 L20,105 L6,110 L-6,112 L-16,112 L-21,109 L-24,104 L-34,107 L-71,120 L-75,122 L-75,124 L-40,137 L-8,149 L-4,150 L3,150 L23,143 L69,126 L104,113 L109,110 L109,107 L87,100 L70,95 Z M110,112 L92,119 L22,145 L5,151 L-6,152 L-5,157 L-4,176 L8,176 L53,159 L87,146 L108,138 L112,134 L112,112 Z M-254,117 L-266,121 L-268,125 L-252,133 L-223,146 L-181,165 L-169,171 L-167,171 L-165,175 L-162,175 L-158,170 L-146,166 L-141,166 L-146,161 L-187,143 L-236,122 L-247,117 Z M-88,126 L-131,141 L-159,151 L-160,153 L-142,161 L-138,166 L-135,175 L-134,191 L-133,196 L-124,197 L-112,194 L-56,173 L-11,156 L-9,154 L-10,150 L-34,141 L-75,126 Z M-269,128 L-268,141 L-259,204 L-255,210 L-250,214 L-194,242 L-175,251 L-156,261 L-153,261 L-157,245 L-160,228 L-164,180 L-168,174 L-173,170 L-209,154 L-244,138 L-267,128 Z M113,135 L114,137 Z M109,139 L89,147 L44,164 L9,177 L-5,179 L-10,185 L-55,202 L-105,221 L-116,225 L-127,226 L-132,226 L-130,232 L-129,254 L-123,253 L-76,235 L-30,217 L14,200 L58,183 L99,167 L111,162 L111,139 Z M-9,156 L-17,160 L-89,187 L-116,197 L-120,198 L-133,198 L-133,211 L-132,223 L-130,224 L-119,224 L-104,219 L-62,203 L-12,184 L-7,180 L-6,178 L-6,160 L-7,156 Z M111,164 L102,168 L103,175 L112,205 L115,208 L120,206 L115,168 L114,164 Z M-148,168 L-158,172 L-158,175 L-150,172 L-143,172 L-140,177 L-138,214 L-136,229 L-134,230 L-135,199 L-136,180 L-138,171 L-142,168 Z M-148,173 L-158,177 L-161,181 L-161,199 L-158,232 L-153,255 L-150,260 L-144,261 L-131,256 L-131,242 L-132,234 L-136,232 L-138,227 L-139,221 L-141,182 L-142,175 L-145,173 Z M-160,175 Z M-244,220 L-249,247 L-249,253 L-244,254 L-239,244 L-233,228 L-234,224 L-241,220 Z M-134,230 Z M-153,261 Z M-142,262 L-154,264 L-152,287 L-150,307 L-148,310 L-143,309 L-142,308 L-139,270 L-139,262 Z " fill="#000000" transform="translate(316,102)"/>
</svg>
