<?xml version="1.0" encoding="UTF-8"?>
<!-- Generator: visioncortex VTracer 0.6.12 -->
<svg version="1.1" xmlns="http://www.w3.org/2000/svg" width="500" height="500">
<path d="M0,0 L26,0 L43,3 L56,7 L65,12 L75,21 L81,31 L83,38 L85,55 L89,63 L97,70 L113,81 L130,93 L150,107 L167,119 L184,131 L202,144 L222,158 L240,171 L258,184 L267,190 L276,193 L299,195 L315,199 L328,206 L338,215 L344,225 L347,233 L347,261 L343,271 L335,281 L327,287 L317,292 L306,295 L291,296 L277,294 L263,289 L253,282 L248,278 L241,268 L238,259 L235,247 L229,237 L219,229 L203,218 L185,205 L166,192 L151,181 L132,168 L114,155 L94,141 L77,129 L61,118 L53,113 L44,110 L30,109 L10,109 L-2,106 L-14,100 L-25,91 L-34,81 L-42,68 L-46,56 L-46,42 L-45,39 L-42,38 L-26,46 L5,62 L10,61 L24,51 L30,47 L32,47 L31,42 L3,27 L-11,19 L-13,16 L-13,9 L-11,3 Z M0,4 L-4,6 L12,15 L34,27 L35,28 L35,48 L17,61 L7,67 L-9,59 L-31,48 L-38,44 L-40,44 L-39,50 L-31,65 L-22,76 L-13,84 L-3,90 L6,93 L11,94 L44,95 L56,99 L67,106 L84,118 L101,130 L118,142 L138,156 L155,168 L173,181 L196,197 L214,210 L231,222 L237,229 L241,238 L245,254 L251,263 L258,270 L268,276 L280,280 L286,281 L302,281 L314,278 L328,271 L336,263 L342,252 L343,248 L343,234 L338,222 L329,212 L320,206 L308,201 L299,199 L276,197 L265,193 L255,187 L239,175 L222,163 L205,151 L191,141 L174,129 L157,117 L140,105 L120,91 L102,78 L89,69 L83,60 L81,55 L78,34 L72,24 L64,16 L50,9 L33,5 L27,4 Z M-9,9 L-9,15 L1,21 L30,37 L32,37 L32,30 L22,24 L-6,9 Z M-42,53 L-40,62 L-34,74 L-26,84 L-18,92 L-6,100 L5,104 L10,105 L44,106 L56,110 L74,122 L91,134 L111,148 L128,160 L145,172 L162,184 L179,196 L196,208 L214,221 L227,230 L232,234 L237,242 L238,239 L234,230 L229,225 L220,218 L203,206 L186,194 L168,181 L152,170 L134,157 L118,146 L100,133 L84,122 L67,110 L53,101 L44,98 L10,97 L-4,93 L-18,84 L-30,72 L-38,59 L-41,53 Z M242,258 Z M243,259 L244,265 L250,274 L259,282 L271,288 L281,291 L289,292 L298,292 L314,289 L328,282 L337,273 L342,264 L341,261 L334,270 L324,277 L312,282 L301,284 L286,284 L270,280 L258,274 L248,265 L244,259 Z " fill="#000000" transform="translate(95,106)"/>
<path d="M0,0 L24,1 L37,11 L40,14 L44,32 L37,48 L28,54 L18,59 L-5,57 L-20,46 L-24,31 L-23,23 L-17,10 Z M3,4 L2,5 L2,10 L3,11 L11,12 L21,12 L21,5 Z M-4,7 L-14,13 L-15,14 L-15,19 L-11,18 L-1,12 L-1,7 Z M25,8 L25,13 L34,21 L36,21 L36,15 L27,8 Z M0,15 L-16,25 L-19,32 L-17,43 L-4,53 L13,55 L19,54 L34,46 L39,33 L36,26 L23,16 L15,15 Z " fill="#000000" transform="translate(382,319)"/>
</svg>
