<?xml version="1.0" encoding="UTF-8"?>
<!-- Generator: visioncortex VTracer 0.6.12 -->
<svg version="1.1" xmlns="http://www.w3.org/2000/svg" width="356" height="356">
<path d="M0 0 C99.66 0 199.32 0 302 0 C302.66 0.66 303.32 1.32 304 2 C304 10.25 304 18.5 304 27 C303.34 27.66 302.68 28.32 302 29 C285.17 29 268.34 29 251 29 C251 31.97 251 34.94 251 38 C252.65 38.66 254.3 39.32 256 40 C257.65 43.3 259.3 46.6 261 50 C261 52.64 261 55.28 261 58 C258.03 67.9 255.06 77.8 252 88 C251.01 89.65 250.02 91.3 249 93 C248.01 93.99 247.02 94.98 246 96 C245.01 96.33 244.02 96.66 243 97 C240.36 97 237.72 97 235 97 C231.37 95.68 227.74 94.36 224 93 C222.185 91.68 222.185 91.68 213 85 C211.02 82.36 209.04 79.72 207 77 C206.01 75.02 205.02 73.04 204 71 C204 68.36 204 65.72 204 63 C211.26 55.74 218.52 48.48 226 41 C227.155 40.175 227.155 40.175 233 36 C234.32 35.67 235.64 35.34 237 35 C237.33 33.02 237.66 31.04 238 29 C212.26 29.33 186.52 29.66 160 30 C160.33 32.31 160.66 34.62 161 37 C163.31 39.64 165.62 42.28 168 45 C168.33 45.825 168.33 45.825 170 50 C170 52.97 170 55.94 170 59 C166.7 69.23 163.4 79.46 160 90 C158.68 91.65 157.36 93.3 156 95 C155.175 95.33 155.175 95.33 151 97 C147.7 96.67 144.4 96.34 141 96 C137.04 94.02 133.08 92.04 129 90 C127.35 88.515 127.35 88.515 119 81 C117.35 78.36 115.7 75.72 114 73 C113.835 71.515 113.835 71.515 113 64 C114.155 62.68 114.155 62.68 120 56 C122.31 54.02 124.62 52.04 127 50 C128.155 48.68 128.155 48.68 134 42 C136.97 40.02 139.94 38.04 143 36 C144.32 36 145.64 36 147 36 C146.67 34.02 146.34 32.04 146 30 C132.965 29.835 132.965 29.835 67 29 C67.165 30.32 67.165 30.32 68 37 C69.65 38.32 71.3 39.64 73 41 C74.32 43.64 75.64 46.28 77 49 C77 52.3 77 55.6 77 59 C73.37 69.89 69.74 80.78 66 92 C64.35 93.32 62.7 94.64 61 96 C58.36 96.33 55.72 96.66 53 97 C49.04 95.68 45.08 94.36 41 93 C37.7 90.69 34.4 88.38 31 86 C28.69 83.69 26.38 81.38 24 79 C22.35 75.37 20.7 71.74 19 68 C19.33 66.35 19.66 64.7 20 63 C20.66 62.175 20.66 62.175 24 58 C26.64 55.69 29.28 53.38 32 51 C34.97 48.03 37.94 45.06 41 42 C43.97 40.02 46.94 38.04 50 36 C50.66 35.835 50.66 35.835 54 35 C54 33.35 54 31.7 54 30 C35.85 29.67 17.7 29.34 -1 29 C-1.33 28.67 -1.66 28.34 -2 28 C-2 19.42 -2 10.84 -2 2 C-1.34 1.34 -0.68 0.68 0 0 Z M2 3 C1.67 3.33 1.34 3.66 1 4 C1 6.97 1 9.94 1 13 C1.33 13.33 1.66 13.66 2 14 C100.34 14 198.68 14 300 14 C300 10.37 300 6.74 300 3 C201.66 3 103.32 3 2 3 Z M2 17 C1.67 17.66 1.34 18.32 1 19 C1 21.31 1 23.62 1 26 C99.67 26 198.34 26 300 26 C300 23.03 300 20.06 300 17 C201.66 17 103.32 17 2 17 Z M60 29 C59.67 29.165 59.67 29.165 58 30 C58 32.97 58 35.94 58 39 C59.32 39.33 60.64 39.66 62 40 C62.66 39.34 63.32 38.68 64 38 C64 35.36 64 32.72 64 30 C62.68 29.67 61.36 29.34 60 29 Z M150 30 C150 32.64 150 35.28 150 38 C150.66 38.66 151.32 39.32 152 40 C153.32 40 154.64 40 156 40 C156 36.7 156 33.4 156 30 C154.02 30 152.04 30 150 30 Z M242 30 C241.67 30.33 241.34 30.66 241 31 C241 32.98 241 34.96 241 37 C241.33 37.495 241.33 37.495 243 40 C244.32 40 245.64 40 247 40 C247.33 39.34 247.66 38.68 248 38 C248 35.36 248 32.72 248 30 C246.02 30 244.04 30 242 30 Z M51 39 C49.02 40.32 47.04 41.64 45 43 C42.69 45.145 42.69 45.145 31 56 C31 56.66 31 57.32 31 58 C35.95 59.98 40.9 61.96 46 64 C49.3 66.31 52.6 68.62 56 71 C58.97 74.3 61.94 77.6 65 81 C65.66 80.67 66.32 80.34 67 80 C68.155 76.205 68.155 76.205 74 57 C73.835 55.515 73.835 55.515 73 48 C71.68 46.02 70.36 44.04 69 42 C67.68 42 66.36 42 65 42 C63.02 42.33 61.04 42.66 59 43 C57.35 41.68 55.7 40.36 54 39 C53.01 39 52.02 39 51 39 Z M144 39 C143.175 39.495 143.175 39.495 139 42 C134.05 46.95 129.1 51.9 124 57 C124.495 57.33 124.495 57.33 127 59 C130.96 60.65 134.92 62.3 139 64 C143.29 66.97 147.58 69.94 152 73 C153.98 75.97 155.96 78.94 158 82 C158.66 82 159.32 82 160 82 C161.98 75.07 163.96 68.14 166 61 C166.33 58.69 166.66 56.38 167 54 C166.01 51.03 165.02 48.06 164 45 C163.01 43.68 162.02 42.36 161 41 C159.35 41.66 157.7 42.32 156 43 C155.01 42.835 155.01 42.835 150 42 C149.01 41.01 148.02 40.02 147 39 C146.01 39 145.02 39 144 39 Z M234 39 C232.68 40.155 232.68 40.155 226 46 C222.37 49.63 218.74 53.26 215 57 C215.33 57.66 215.66 58.32 216 59 C219.3 59.99 222.6 60.98 226 62 C229.96 64.31 233.92 66.62 238 69 C240.64 71.64 243.28 74.28 246 77 C247.32 78.65 248.64 80.3 250 82 C250.99 79.36 251.98 76.72 253 74 C254.65 68.06 256.3 62.12 258 56 C257.34 52.7 256.68 49.4 256 46 C254.68 44.35 253.36 42.7 252 41 C250.35 41.66 248.7 42.32 247 43 C246.01 42.835 246.01 42.835 241 42 C240.01 41.01 239.02 40.02 238 39 C236.68 39 235.36 39 234 39 Z M27 61 C25.68 61.99 24.36 62.98 23 64 C23.33 66.64 23.66 69.28 24 72 C25.32 73.815 25.32 73.815 32 83 C35.63 85.31 39.26 87.62 43 90 C45.64 90.99 48.28 91.98 51 93 C53.97 93 56.94 93 60 93 C60.99 92.01 61.98 91.02 63 90 C62.835 88.845 62.835 88.845 62 83 C60.68 81.02 59.36 79.04 58 77 C55.36 74.69 52.72 72.38 50 70 C45.38 67.69 40.76 65.38 36 63 C34.515 62.67 34.515 62.67 27 61 Z M119 62 C118.505 62.66 118.505 62.66 116 66 C116.99 68.97 117.98 71.94 119 75 C120.98 77.64 122.96 80.28 125 83 C128.3 85.31 131.6 87.62 135 90 C137.64 90.99 140.28 91.98 143 93 C146.3 93 149.6 93 153 93 C153.99 92.34 154.98 91.68 156 91 C156 89.02 156 87.04 156 85 C155.175 83.68 155.175 83.68 151 77 C148.03 74.36 145.06 71.72 142 69 C137.05 66.69 132.1 64.38 127 62 C124.36 62 121.72 62 119 62 Z M209 62 C208.67 62.495 208.67 62.495 207 65 C207.33 67.31 207.66 69.62 208 72 C209.98 74.97 211.96 77.94 214 81 C216.64 83.31 219.28 85.62 222 88 C225.63 89.65 229.26 91.3 233 93 C236.96 93 240.92 93 245 93 C245.66 92.34 246.32 91.68 247 91 C247 89.02 247 87.04 247 85 C246.175 83.68 246.175 83.68 242 77 C239.03 74.36 236.06 71.72 233 69 C229.04 67.02 225.08 65.04 221 63 C219.68 62.67 218.36 62.34 217 62 C214.36 62 211.72 62 209 62 Z " fill="#000000" transform="translate(26,152)"/>
<path d="M0 0 C1.65 1.65 3.3 3.3 5 5 C5.825 5.66 5.825 5.66 10 9 C11.32 9.66 12.64 10.32 14 11 C15.65 11 17.3 11 19 11 C19.66 12.65 20.32 14.3 21 16 C18.36 16 15.72 16 13 16 C10.03 14.35 7.06 12.7 4 11 C2.02 8.69 0.04 6.38 -2 4 C-1.34 2.68 -0.68 1.36 0 0 Z " fill="#000000" transform="translate(60,220)"/>
<path d="M0 0 C0.66 0.165 0.66 0.165 4 1 C5.98 3.31 7.96 5.62 10 8 C11.32 8.66 12.64 9.32 14 10 C16.31 10.33 18.62 10.66 21 11 C21.33 11.99 21.66 12.98 22 14 C21.34 14.66 20.68 15.32 20 16 C17.03 15.34 14.06 14.68 11 14 C8.03 11.69 5.06 9.38 2 7 C1.01 5.68 0.02 4.36 -1 3 C-0.67 2.01 -0.34 1.02 0 0 Z " fill="#000000" transform="translate(152,221)"/>
<path d="M0 0 C0.66 0.165 0.66 0.165 4 1 C5.65 2.98 7.3 4.96 9 7 C10.98 7.99 12.96 8.98 15 10 C16.98 10.66 18.96 11.32 21 12 C21 12.99 21 13.98 21 15 C18.69 15 16.38 15 14 15 C11.36 13.68 8.72 12.36 6 11 C3.69 8.36 1.38 5.72 -1 3 C-0.67 2.01 -0.34 1.02 0 0 Z " fill="#000000" transform="translate(243,221)"/>
</svg>
