<?xml version="1.0" encoding="UTF-8"?>
<!-- Generator: visioncortex VTracer 0.6.12 -->
<svg version="1.1" xmlns="http://www.w3.org/2000/svg" width="500" height="500">
<path d="M0,0 L9,1 L72,24 L118,41 L145,51 L168,59 L195,69 L195,243 L194,314 L186,318 L189,320 L223,335 L227,337 L227,356 L184,377 L156,390 L139,398 L123,406 L89,422 L72,430 L66,429 L38,416 L20,408 L-13,393 L-29,386 L-43,379 L-63,370 L-79,363 L-94,356 L-128,340 L-154,328 L-183,315 L-197,308 L-197,290 L-180,282 L-173,279 L-172,104 L-171,72 L-156,65 L-122,51 L-91,38 L-53,22 L-24,10 Z M2,3 L-26,15 L-67,32 L-86,40 L-117,53 L-153,68 L-163,72 L-163,74 L-120,92 L-81,108 L-40,125 L7,144 L17,141 L56,125 L97,108 L133,93 L179,74 L186,71 L182,68 L140,53 L96,37 L50,20 L4,3 Z M189,73 L162,84 L114,104 L78,119 L41,134 L14,145 L14,379 L18,384 L20,384 L22,388 L24,389 L28,386 L27,384 L25,384 L25,302 L26,219 L30,210 L38,205 L63,195 L80,188 L87,187 L92,192 L92,355 L96,356 L120,345 L134,338 L158,327 L186,314 L191,311 L192,73 Z M-168,76 L-168,156 L-161,150 L-154,142 L-154,140 L-152,140 L-143,129 L-137,130 L-113,141 L-88,152 L-45,171 L-27,179 L-23,181 L-23,330 L-29,329 L-70,310 L-109,292 L-133,281 L-146,275 L-146,193 L-155,193 L-163,181 L-168,185 L-169,253 L-169,294 L-137,309 L-121,316 L-106,323 L-76,337 L-60,344 L-45,351 L-13,366 L9,376 L11,375 L12,149 L-15,138 L-52,123 L-86,109 L-122,94 L-161,78 Z M-142,132 L-155,147 L-164,157 L-164,159 L-145,168 L-116,181 L-81,197 L-52,210 L-48,209 L-39,198 L-27,184 L-27,182 L-56,169 L-75,161 L-90,154 L-135,134 Z M-166,163 L-166,175 L-162,177 L-154,190 L-146,189 L-137,188 L-129,200 L-127,202 L-116,200 L-110,199 L-108,204 L-101,213 L-92,212 L-85,211 L-74,226 L-64,224 L-57,222 L-55,227 L-51,230 L-51,214 L-63,208 L-99,192 L-118,183 L-154,167 L-163,163 Z M-27,188 L-27,190 L-29,190 L-37,200 L-48,213 L-48,234 L-39,231 L-26,225 L-25,224 L-25,188 Z M82,190 L35,209 L30,215 L29,217 L28,250 L27,380 L29,381 L62,366 L87,355 L89,353 L90,235 L90,195 L87,190 Z M-142,191 L-143,192 L-143,270 L-136,268 L-135,267 L-135,196 L-139,191 Z M-132,203 L-132,267 L-118,274 L-87,288 L-82,287 L-46,271 L-43,269 L-43,236 L-50,238 L-59,226 L-76,230 L-78,225 L-86,214 L-96,216 L-102,217 L-112,203 L-121,204 L-129,205 L-130,203 Z M-28,229 L-39,234 L-39,270 L-28,275 L-26,275 L-25,246 L-25,230 Z M-134,270 L-141,273 L-137,276 L-101,293 L-78,303 L-66,309 L-33,324 L-29,326 L-26,326 L-26,320 L-31,317 L-63,302 L-96,287 L-127,273 Z M-43,273 L-73,286 L-80,289 L-79,292 L-46,307 L-30,314 L-26,315 L-26,280 L-40,273 Z M-175,284 L-189,290 L-189,292 L-180,296 L-173,294 L-172,293 L-172,284 Z M-193,294 L-193,306 L-182,311 L-181,311 L-181,299 L-191,294 Z M-173,297 L-177,299 L-177,313 L-161,321 L-143,329 L-129,336 L-115,342 L-100,349 L-68,364 L-35,379 L-16,388 L7,398 L17,403 L21,403 L21,391 L11,380 L-21,365 L-54,350 L-93,332 L-128,316 L-169,297 Z M178,321 L152,333 L134,341 L120,348 L100,357 L103,360 L138,376 L142,377 L175,361 L203,348 L220,339 L219,337 L182,321 Z M222,342 L196,354 L180,362 L152,375 L143,380 L142,381 L142,391 L144,392 L179,375 L202,364 L223,354 L224,343 Z M89,357 L60,370 L31,383 L33,389 L28,390 L31,393 L64,408 L69,410 L74,409 L100,397 L134,381 L136,380 L136,378 L118,370 L104,363 L90,357 Z M138,382 L111,395 L83,408 L73,413 L72,414 L72,425 L81,422 L114,406 L137,395 L139,394 L139,382 Z M24,394 L24,405 L29,408 L59,422 L66,425 L69,425 L69,414 L64,411 L38,399 L27,394 Z " fill="#000000" transform="translate(236,32)"/>
<path d="M0,0 L4,0 L4,37 L-28,50 L-60,63 L-62,62 L-62,26 L-52,21 Z M-1,4 L-50,24 L-59,28 L-59,58 L-54,57 L-27,46 L0,35 L1,34 L1,4 Z " fill="#000000" transform="translate(324,166)"/>
<path d="M0,0 L3,0 L3,64 L0,67 L-37,83 L-41,83 L-41,18 L-36,15 Z M-3,5 L-37,19 L-38,78 L-32,77 L-4,65 L-1,63 L0,35 L0,5 Z " fill="#000000" transform="translate(314,236)"/>
<path d="M0,0 L6,0 L8,3 L7,9 L2,14 L-3,13 L-4,6 Z M2,3 L-1,6 L0,10 L4,8 L5,5 Z " fill="#000000" transform="translate(273,325)"/>
<path d="M0,0 L4,0 L4,51 L-6,56 L-36,69 L-39,69 L-39,18 L-23,10 Z M0,4 L-21,13 L-36,20 L-36,64 L-30,63 L-6,52 L0,49 L1,36 L1,4 Z " fill="#000000" transform="translate(312,327)"/>
</svg>
