<?xml version="1.0" encoding="UTF-8"?>
<!-- Generator: visioncortex VTracer 0.6.12 -->
<svg version="1.1" xmlns="http://www.w3.org/2000/svg" width="500" height="500">
<path d="M0,0 L3,1 L9,11 L9,20 L15,25 L32,34 L40,42 L44,49 L55,55 L56,57 L55,59 L47,63 L45,71 L40,117 L37,140 L32,144 L17,152 L16,154 L18,154 L21,160 L20,167 L17,170 L20,260 L22,326 L25,329 L26,336 L31,338 L38,348 L39,379 L49,385 L49,392 L55,394 L64,400 L64,423 L49,431 L33,439 L6,453 L2,455 L-2,454 L-29,440 L-43,432 L-59,424 L-62,422 L-62,398 L-49,391 L-47,384 L-38,379 L-36,379 L-36,347 L-28,337 L-24,335 L-23,330 L-21,327 L-19,280 L-17,226 L-16,187 L-16,170 L-19,166 L-20,161 L-17,155 L-15,152 L-32,143 L-35,141 L-37,128 L-41,90 L-44,64 L-48,60 L-54,56 L-52,53 L-41,47 L-35,38 L-29,33 L-9,22 L-7,18 L-8,13 Z M0,6 L-5,14 L-2,18 L4,18 L6,16 L5,11 L2,6 Z M-2,21 L2,23 L5,21 Z M-6,23 L-9,28 L-8,31 L-5,33 L7,33 L10,31 L10,25 L6,24 L4,25 L-2,25 Z M-14,28 L-19,32 L-9,38 L-1,42 L-1,36 L-9,33 L-12,28 Z M14,29 L10,34 L3,36 L3,42 L19,34 L21,32 L16,29 Z M-25,34 L-34,41 L-39,51 L-37,55 L-19,65 L-3,74 L-1,74 L-1,45 L-21,34 Z M24,34 L10,41 L3,45 L3,74 L7,73 L23,64 L37,57 L41,54 L38,45 L31,37 Z M-42,55 L-46,56 L-46,58 L-26,69 L-10,78 L-3,82 L-1,82 L-2,77 L-26,64 L-41,55 Z M43,56 L17,70 L3,78 L2,82 L7,81 L35,66 L49,58 L46,56 Z M-40,65 L-39,78 L-34,128 L-33,132 L-30,133 L-31,115 L-34,85 L-32,79 L-25,77 L-17,81 L-11,88 L-7,97 L-6,106 L-5,138 L-4,147 L-1,149 L-1,86 L-22,74 L-38,65 Z M39,66 L17,78 L3,86 L2,87 L2,149 L6,147 L7,115 L8,101 L11,91 L18,82 L24,78 L31,78 L34,81 L35,83 L35,94 L31,133 L35,131 L42,71 L42,66 Z M-29,80 L-31,82 L-31,96 L-27,135 L-9,145 L-7,144 L-8,104 L-10,95 L-16,85 L-21,81 L-23,80 Z M25,80 L19,84 L13,92 L10,101 L9,113 L9,145 L15,143 L28,136 L31,112 L33,93 L33,84 L30,80 Z M-32,136 L-31,140 L-5,154 L-1,156 L-1,152 L-25,139 L-30,136 Z M32,136 L18,144 L4,151 L2,155 L7,154 L33,140 L34,136 Z M-12,154 L-11,159 L-5,163 L7,163 L12,160 L13,154 L2,159 L-3,158 L-10,154 Z M-15,158 L-16,159 L-16,165 L-9,171 L-4,172 L6,172 L14,169 L18,163 L17,159 L12,163 L7,165 L-5,165 L-12,162 Z M-12,173 L-12,185 L-11,185 L-11,177 L-8,177 L-11,272 L-12,295 L-12,330 L-16,329 L-15,333 L-10,337 L-6,338 L8,338 L15,335 L19,330 L17,277 L14,174 L10,173 L7,174 L-6,174 Z M-13,204 L-14,224 L-14,256 L-13,256 L-12,232 L-12,204 Z M-15,263 L-16,287 L-16,318 L-15,318 L-14,295 L-14,263 Z M-17,327 L-16,329 Z M-20,331 L-21,332 L-21,338 L-16,343 L-10,346 L-6,347 L8,347 L17,344 L22,339 L23,332 L21,331 L18,336 L9,340 L-7,340 L-16,336 Z M-28,341 L-32,347 L-31,350 L-17,357 L-3,365 L-1,365 L-1,354 L-24,341 Z M27,341 L4,353 L3,354 L3,365 L9,363 L34,350 L32,345 L29,341 Z M0,350 Z M-33,352 L-33,383 L-5,398 L-1,400 L-1,369 L-9,364 L-26,355 L-31,352 Z M33,353 L18,361 L4,368 L3,369 L3,400 L19,392 L35,384 L35,353 Z M-39,383 L-41,384 L-40,387 L-17,399 L-5,406 L-1,407 L-1,403 L-27,389 L-34,385 L-36,385 L-36,383 Z M38,384 L38,386 L32,388 L17,396 L3,403 L2,407 L8,405 L34,392 L43,387 L43,385 Z M-44,388 L-44,396 L-34,402 L-2,419 L-1,419 L-1,410 L-28,396 L-42,388 Z M44,389 L17,403 L3,410 L2,412 L2,418 L4,419 L20,411 L44,399 L46,397 L46,389 Z M-50,395 L-56,399 L-54,402 L-38,410 L-10,425 L-1,430 L5,429 L32,415 L51,405 L59,401 L54,397 L49,395 L48,399 L21,413 L4,422 L-2,422 L-24,410 L-43,400 L-48,395 Z M-59,403 L-59,420 L-37,432 L-17,443 L-3,450 L-1,450 L-1,433 L-15,425 L-40,412 L-56,403 Z M58,404 L39,414 L17,425 L4,432 L2,434 L2,450 L7,449 L50,427 L61,421 L61,404 Z " fill="#000000" transform="translate(250,22)"/>
<path d="M0,0 L2,1 L3,24 L5,128 L5,155 L2,155 L1,153 L-1,49 L-1,1 Z " fill="#000000" transform="translate(259,199)"/>
<path d="M0,0 L2,1 L2,32 L0,145 L-1,156 L-4,155 L-3,72 L-2,24 L-1,1 Z " fill="#000000" transform="translate(246,200)"/>
<path d="M0,0 L3,0 L4,73 L4,156 L1,156 L0,135 Z " fill="#000000" transform="translate(251,201)"/>
</svg>
